<svg version="1.1" id="Layer_1" xmlns="http://www.w3.org/2000/svg" xmlns:xlink="http://www.w3.org/1999/xlink" x="0px" y="0px"
	 width="100%" viewBox="0 0 607 508" enable-background="new 0 0 607 508" xml:space="preserve">
<path fill="#FFFFFF" opacity="1.000000" stroke="none" 
	d="
M608.000000,175.000000 
	C608.000000,286.666656 608.000000,397.833313 608.000000,509.000000 
	C405.666718,509.000000 203.333405,509.000000 1.000084,509.000000 
	C1.000056,339.666718 1.000056,170.333450 1.000028,1.000130 
	C203.333252,1.000086 405.666504,1.000086 607.999878,1.000043 
	C608.000000,58.833332 608.000000,116.666664 608.000000,175.000000 
M288.158386,366.490997 
	C288.374207,366.760956 288.650787,366.933838 289.310608,367.502106 
	C289.857788,367.682281 290.404938,367.862427 291.569611,368.613159 
	C292.881927,368.745636 294.194244,368.993835 295.506592,368.994110 
	C381.434570,369.012390 467.362549,369.015503 553.290527,368.972473 
	C554.867798,368.971710 556.444885,368.400787 558.769714,368.041382 
	C561.564758,367.456451 564.211792,366.717346 564.803650,362.839325 
	C565.192749,362.157654 565.828247,361.507233 565.919434,360.787811 
	C566.106506,359.311615 566.015259,357.798431 566.015320,356.300476 
	C566.017273,251.927567 566.030396,147.554642 565.933716,43.181820 
	C565.931458,40.780300 564.686707,38.379932 563.998291,35.382294 
	C563.678528,34.911236 563.358704,34.440178 562.705383,33.470097 
	C562.145142,33.304920 561.584900,33.139744 560.884827,32.232510 
	C558.609619,31.506639 556.335144,30.148947 554.059021,30.146091 
	C468.042480,30.038206 382.025696,30.028517 296.009277,30.178190 
	C293.332733,30.182848 290.659302,32.010025 287.530304,33.182705 
	C287.244751,33.378929 287.060364,33.645218 286.529999,34.181969 
	C286.250580,34.378738 286.065857,34.641964 285.325012,35.328487 
	C284.573975,38.475201 283.170044,41.621178 283.166504,44.768726 
	C283.051758,146.871170 283.071838,248.973740 283.072632,351.076294 
	C283.072662,352.242157 282.702789,353.590851 283.158569,354.540924 
	C284.780975,357.922974 282.082855,362.881134 287.162170,365.483917 
	C287.356110,365.769684 287.620697,365.954132 288.158386,366.490997 
M247.302689,290.071045 
	C246.866379,290.967743 246.430069,291.864410 245.158432,293.148132 
	C242.038406,292.850830 238.920013,292.334320 235.797943,292.311035 
	C231.774216,292.281097 229.600891,290.684021 229.189316,286.531982 
	C229.210129,288.992310 229.519119,292.710754 230.757614,293.051575 
	C235.489243,294.353699 240.514465,294.629333 245.448746,295.086700 
	C245.897537,295.128326 246.479843,293.729584 247.252838,292.414825 
	C247.516022,291.618958 247.779190,290.823090 248.526688,289.642120 
	C248.371658,288.749359 248.216629,287.856628 248.319595,286.327667 
	C248.556961,285.225250 248.794327,284.122864 249.496033,282.665894 
	C249.590088,282.063416 249.684143,281.460938 249.778198,280.858459 
	C249.567932,280.833557 249.357681,280.808655 249.147415,280.783752 
	C249.086456,281.510895 249.025497,282.238037 248.287140,283.098877 
	C248.159653,284.429077 248.032166,285.759277 247.962845,287.802765 
	C247.958954,288.519348 247.955063,289.235931 247.302689,290.071045 
M301.431824,423.726654 
	C301.307373,423.547485 301.182953,423.368286 300.197144,422.765259 
	C279.816040,422.730316 259.434906,422.662750 239.053848,422.678833 
	C232.274445,422.684204 225.495209,422.904053 218.236557,422.301147 
	C223.573608,418.973114 228.910660,415.645050 234.819717,411.960327 
	C233.245972,410.630676 231.970840,409.114899 230.347092,408.265472 
	C225.873596,405.925262 222.116592,408.542450 217.734436,409.914734 
	C216.791351,407.577545 215.848267,405.240387 215.284225,402.252655 
	C215.216888,400.545624 215.519989,398.720764 215.020721,397.151123 
	C212.253830,388.452606 209.097809,379.875427 206.433289,371.147308 
	C198.761887,346.018158 186.940460,321.928314 187.412598,294.165314 
	C188.943192,290.068512 190.473785,285.971741 192.306427,282.564148 
	C194.495346,283.292419 196.736404,284.768921 198.864243,284.620605 
	C208.524597,283.947479 218.153046,282.816284 228.342484,282.191284 
	C229.296616,282.376373 230.250732,282.561462 231.204865,282.746552 
	C231.254868,281.557892 231.304871,280.369263 231.170837,278.487640 
	C231.540436,277.625153 231.910049,276.762634 232.660095,275.509460 
	C232.529922,274.571350 232.399734,273.633270 231.322479,272.925201 
	C224.874588,272.936401 218.399200,273.313477 211.988297,272.832123 
	C207.602859,272.502777 203.307251,270.977051 199.245819,269.303406 
	C199.482727,268.354614 200.229996,267.106384 199.876556,266.503906 
	C196.784653,261.233704 193.827774,255.826309 190.141403,250.984558 
	C187.931534,248.082031 184.253128,248.374557 180.545105,248.815643 
	C173.208252,249.688385 165.765076,249.631668 158.388412,250.234940 
	C156.892899,250.357254 154.657684,251.364166 154.192627,252.532272 
	C151.349106,259.674500 144.670532,265.945709 148.781357,274.853729 
	C149.340530,276.065430 149.059647,277.835327 148.745026,279.252991 
	C145.912521,292.015808 143.017395,304.765076 140.048981,317.496948 
	C139.645401,319.228027 138.949692,320.971741 138.023392,322.485718 
	C134.689362,327.934906 135.425964,330.819489 141.139206,334.960693 
	C140.676849,344.610046 140.214478,354.259369 138.887283,363.894867 
	C132.228241,363.425446 126.710175,365.358063 121.884094,370.336456 
	C116.905487,375.472290 116.913391,381.708740 116.019211,388.219269 
	C114.131287,384.110016 111.916893,379.826233 112.230270,375.736115 
	C112.933357,366.559265 114.697800,357.442230 116.397346,348.369629 
	C117.950981,340.075958 118.725281,331.995972 114.151588,324.326447 
	C110.849037,318.788452 104.352287,314.956238 99.394524,315.987152 
	C99.218590,315.980621 99.042656,315.974091 98.737900,315.186676 
	C97.737801,314.795349 96.756836,314.124939 95.734718,314.054871 
	C81.732140,313.094788 72.323036,320.311737 65.748764,331.715546 
	C57.578243,345.888306 56.083382,361.363922 59.158848,377.117065 
	C63.109421,397.352661 73.627693,412.609589 94.014137,419.600861 
	C96.088013,420.312073 97.982979,421.545013 99.027817,422.630920 
	C90.522057,422.630920 82.016304,422.630920 73.510544,422.630920 
	C73.520279,423.005402 73.530006,423.379913 73.539734,423.754395 
	C95.378929,423.754395 117.218117,423.754395 139.980942,423.866425 
	C147.621902,423.829742 155.262848,423.793060 163.694260,423.969330 
	C180.146362,423.898468 196.598480,423.827637 213.831451,423.867615 
	C214.880371,423.829895 215.929276,423.792175 217.897476,423.964417 
	C233.342392,423.976562 248.787445,424.031586 264.232208,423.987274 
	C276.509338,423.952057 288.786102,423.795319 301.431824,423.726654 
M246.935318,275.324341 
	C246.090927,274.131805 245.442047,272.181122 244.361938,271.902588 
	C242.021423,271.298981 238.705551,270.558044 237.186584,271.712585 
	C235.417252,273.057434 234.079666,276.589355 234.534439,278.756805 
	C234.937637,280.678467 237.862289,282.994690 240.013123,283.419617 
	C243.665543,284.141296 246.084396,281.578278 247.714279,278.267578 
	C248.375336,277.842712 249.036377,277.417847 249.697433,276.992981 
	C248.863098,276.660339 248.028763,276.327667 246.935318,275.324341 
M189.998917,229.959824 
	C189.998917,229.959824 189.990067,230.019043 190.600143,229.610260 
	C192.828613,216.944550 188.868057,211.436981 173.435501,205.862686 
	C173.516724,199.654312 171.080170,194.853317 164.923248,192.744522 
	C158.520508,190.551575 154.038605,194.172073 150.118790,198.479172 
	C148.126785,200.667999 146.649933,203.330276 144.975815,205.802658 
	C142.559387,209.371307 140.539749,213.284882 137.707214,216.480865 
	C130.087158,225.078644 118.288002,223.413208 112.946518,213.259766 
	C112.504059,212.418701 111.996437,211.611923 111.519089,210.789200 
	C112.054123,216.037918 112.833183,221.327057 115.125046,225.849564 
	C120.333168,236.126617 136.337479,240.056137 143.638077,226.572739 
	C145.849945,222.487671 147.868073,218.261871 150.457474,214.426285 
	C153.551605,209.843033 157.724396,206.902771 163.970047,208.339890 
	C152.309265,221.174393 152.407700,231.370392 164.414047,240.525528 
	C172.115631,245.542496 184.929047,243.337845 189.566559,232.224655 
	C189.730667,231.470367 189.894791,230.716080 189.998917,229.959824 
M241.234344,255.313583 
	C233.431564,254.474075 232.627151,255.121338 233.218796,261.763092 
	C235.162369,257.267700 235.140640,257.344879 240.316528,258.801910 
	C242.045059,259.288483 244.298660,260.024536 245.649796,259.339630 
	C249.665405,257.304199 250.968414,259.246765 251.409409,263.801544 
	C253.255341,258.198608 251.033508,256.502441 247.015381,256.102844 
	C245.369537,255.939148 243.729477,255.717163 241.234344,255.313583 
M232.936111,268.389893 
	C233.272415,267.594727 233.608734,266.799530 233.945038,266.004364 
	C233.412018,265.895721 232.879013,265.787079 232.345993,265.678467 
	C232.345993,266.677002 232.345993,267.675568 232.936111,268.389893 
M251.937119,269.541656 
	C251.888214,269.070526 251.839310,268.599365 251.790405,268.128204 
	C250.797745,268.915375 249.805084,269.702515 248.812439,270.489655 
	C249.056992,270.821716 249.301544,271.153778 249.546097,271.485870 
	C250.288071,271.039154 251.030029,270.592468 251.937119,269.541656 
M250.518234,264.399139 
	C250.518234,264.399139 250.592667,264.520691 250.518234,264.399139 
z"/>
<path fill="#313042" opacity="1.000000" stroke="none" 
	d="
M187.110779,294.812775 
	C186.940460,321.928314 198.761887,346.018158 206.433289,371.147308 
	C209.097809,379.875427 212.253830,388.452606 215.020721,397.151123 
	C215.519989,398.720764 215.216888,400.545624 214.709869,402.614655 
	C211.418182,403.691193 208.700836,404.405701 205.632706,405.043915 
	C204.108826,403.464844 202.653381,402.105621 201.805573,400.437561 
	C191.435425,380.033936 181.162689,359.580841 170.832825,339.156708 
	C170.094452,337.696808 169.106735,336.362946 167.429245,333.683533 
	C163.826859,350.384430 160.580292,365.435791 157.180099,380.834473 
	C155.435898,388.299103 153.917130,395.433807 152.196442,402.519531 
	C151.835815,404.004517 150.731689,405.308960 149.533691,406.597534 
	C146.406784,406.495361 143.716370,406.492340 140.700043,406.158936 
	C140.141830,404.234009 139.715546,402.640289 139.708664,401.044830 
	C139.663940,390.683380 139.710434,380.321533 139.802368,369.607239 
	C139.840973,368.537354 139.804260,367.820099 139.845551,366.707825 
	C139.866409,365.511444 139.809265,364.710083 139.752121,363.908722 
	C140.214478,354.259369 140.676849,344.610046 141.540298,334.479309 
	C145.952042,333.381744 148.766541,331.650909 149.044449,327.080261 
	C149.222839,324.146210 149.426071,321.130646 150.241516,318.333313 
	C153.148163,308.362305 156.321625,298.469055 159.376480,288.603210 
	C169.030731,290.764771 178.070755,292.788757 187.110779,294.812775 
z"/>
<path fill="#C9DAB6" opacity="1.000000" stroke="none" 
	d="
M139.319702,363.901794 
	C139.809265,364.710083 139.866409,365.511444 139.578278,366.896118 
	C133.931778,374.712891 131.924622,383.072601 132.206131,391.754211 
	C132.466568,399.785889 133.385544,407.939301 139.279770,414.771454 
	C139.169510,417.792236 139.083389,420.386169 138.648254,422.946594 
	C137.854446,422.789642 137.409637,422.666199 136.809906,422.229431 
	C130.968033,420.296844 125.138535,419.056854 119.621948,416.984039 
	C105.442642,411.656250 94.448700,402.595490 89.540268,387.839447 
	C85.632111,376.090515 85.721016,363.794800 88.665077,351.937317 
	C91.684921,339.774628 96.110840,327.961090 99.921371,315.994720 
	C104.352287,314.956238 110.849037,318.788452 114.151588,324.326447 
	C118.725281,331.995972 117.950981,340.075958 116.397346,348.369629 
	C114.697800,357.442230 112.933357,366.559265 112.230270,375.736115 
	C111.916893,379.826233 114.131287,384.110016 116.019211,388.219269 
	C116.913391,381.708740 116.905487,375.472290 121.884094,370.336456 
	C126.710175,365.358063 132.228241,363.425446 139.319702,363.901794 
z"/>
<path fill="#C9DAB6" opacity="1.000000" stroke="none" 
	d="
M99.960968,422.535858 
	C97.982979,421.545013 96.088013,420.312073 94.014137,419.600861 
	C73.627693,412.609589 63.109421,397.352661 59.158848,377.117065 
	C56.083382,361.363922 57.578243,345.888306 65.748764,331.715546 
	C72.323036,320.311737 81.732140,313.094788 95.734718,314.054871 
	C96.756836,314.124939 97.737801,314.795349 98.515213,315.756592 
	C88.299622,335.465179 83.829620,355.897675 85.317329,377.355988 
	C86.119827,388.931061 91.067520,399.146667 99.803970,407.147797 
	C108.473343,415.087494 118.744118,419.894989 129.824219,422.408966 
	C119.611504,422.559784 109.786232,422.547821 99.960968,422.535858 
z"/>
<path fill="#D7C7C7" opacity="1.000000" stroke="none" 
	d="
M187.261688,294.489044 
	C178.070755,292.788757 169.030731,290.764771 159.376480,288.603210 
	C156.321625,298.469055 153.148163,308.362305 150.241516,318.333313 
	C149.426071,321.130646 149.222839,324.146210 149.044449,327.080261 
	C148.766541,331.650909 145.952042,333.381744 141.577408,334.037506 
	C135.425964,330.819489 134.689362,327.934906 138.023392,322.485718 
	C138.949692,320.971741 139.645401,319.228027 140.048981,317.496948 
	C143.017395,304.765076 145.912521,292.015808 148.745026,279.252991 
	C149.059647,277.835327 149.340530,276.065430 148.781357,274.853729 
	C144.670532,265.945709 151.349106,259.674500 154.192627,252.532272 
	C154.657684,251.364166 156.892899,250.357254 158.388412,250.234940 
	C165.765076,249.631668 173.208252,249.688385 180.545105,248.815643 
	C184.253128,248.374557 187.931534,248.082031 190.141403,250.984558 
	C193.827774,255.826309 196.784653,261.233704 199.876556,266.503906 
	C200.229996,267.106384 199.482727,268.354614 198.740402,269.689484 
	C193.172485,270.897980 191.212875,273.897369 191.975372,278.885437 
	C192.124435,279.860626 192.001724,280.877350 192.004379,281.874939 
	C190.473785,285.971741 188.943192,290.068512 187.261688,294.489044 
z"/>
<path fill="#DADADA" opacity="1.000000" stroke="none" 
	d="
M564.021606,35.979034 
	C564.686707,38.379932 565.931458,40.780300 565.933716,43.181820 
	C566.030396,147.554642 566.017273,251.927567 566.015320,356.300476 
	C566.015259,357.798431 566.106506,359.311615 565.919434,360.787811 
	C565.828247,361.507233 565.192749,362.157654 564.401794,362.919800 
	C563.999939,363.000244 563.991211,362.993591 563.996948,362.566467 
	C564.324768,359.345673 564.927124,356.552124 564.928528,353.758240 
	C564.977173,257.114532 564.931641,160.470703 565.077637,63.827187 
	C565.085022,58.900326 563.591919,57.836952 558.899597,57.844177 
	C469.754303,57.981453 380.608734,57.945061 291.463196,57.946194 
	C285.010406,57.946274 285.005432,57.951382 285.005341,64.437386 
	C285.004272,160.248001 284.978027,256.058655 285.090179,351.869141 
	C285.095276,356.240601 286.350067,360.610596 287.010986,364.991943 
	C286.999146,365.002563 286.977203,365.027527 286.977203,365.027527 
	C282.082855,362.881134 284.780975,357.922974 283.158569,354.540924 
	C282.702789,353.590851 283.072662,352.242157 283.072632,351.076294 
	C283.071838,248.973740 283.051758,146.871170 283.166504,44.768726 
	C283.170044,41.621178 284.573975,38.475201 285.663910,35.164314 
	C286.002808,35.000145 286.032104,35.025406 286.026550,35.446430 
	C285.682220,39.813831 285.101227,43.757393 285.055206,47.707176 
	C284.960815,55.814175 284.125488,55.030685 292.099030,55.031914 
	C380.635254,55.045570 469.171478,55.040520 557.707703,55.040413 
	C558.872620,55.040413 560.046265,54.947403 561.200806,55.056580 
	C563.963318,55.317814 565.209534,54.228233 564.986511,51.366936 
	C564.587830,46.253696 564.310791,41.130981 563.992554,36.004936 
	C564.002197,35.997646 564.021545,35.979038 564.021606,35.979034 
z"/>
<path fill="#313042" opacity="1.000000" stroke="none" 
	d="
M164.046539,239.891479 
	C152.407700,231.370392 152.309265,221.174393 163.970047,208.339890 
	C157.724396,206.902771 153.551605,209.843033 150.457474,214.426285 
	C147.868073,218.261871 145.849945,222.487671 143.638077,226.572739 
	C136.337479,240.056137 120.333168,236.126617 115.125046,225.849564 
	C112.833183,221.327057 112.054123,216.037918 111.519089,210.789200 
	C111.996437,211.611923 112.504059,212.418701 112.946518,213.259766 
	C118.288002,223.413208 130.087158,225.078644 137.707214,216.480865 
	C140.539749,213.284882 142.559387,209.371307 144.975815,205.802658 
	C146.649933,203.330276 148.126785,200.667999 150.118790,198.479172 
	C154.038605,194.172073 158.520508,190.551575 164.923248,192.744522 
	C171.080170,194.853317 173.516724,199.654312 173.435501,205.862686 
	C188.868057,211.436981 192.828613,216.944550 190.213898,229.416595 
	C189.360001,226.680695 188.892380,224.138474 188.291931,220.874268 
	C185.394043,222.933395 181.820206,222.095108 180.315155,224.743256 
	C180.479156,225.461014 180.643158,226.178772 180.807175,226.896530 
	C174.246445,226.175110 167.685715,225.453690 160.013306,224.610031 
	C160.518082,227.406342 161.025085,230.991165 161.855255,234.499512 
	C162.296738,236.365204 163.297974,238.098450 164.046539,239.891479 
z"/>
<path fill="#DADADA" opacity="1.000000" stroke="none" 
	d="
M287.984436,32.987541 
	C290.659302,32.010025 293.332733,30.182848 296.009277,30.178190 
	C382.025696,30.028517 468.042480,30.038206 554.059021,30.146091 
	C556.335144,30.148947 558.609619,31.506639 560.944458,32.614296 
	C561.004089,32.996086 560.986877,33.017311 560.572632,32.962532 
	C557.705078,32.606709 555.251831,32.043854 552.798401,32.042515 
	C469.154846,31.996929 385.511292,31.988525 301.867767,32.047764 
	C297.249420,32.051037 292.631531,32.679485 288.007263,33.009438 
	C288.001068,33.001934 287.984436,32.987541 287.984436,32.987541 
z"/>
<path fill="#E4E4E4" opacity="1.000000" stroke="none" 
	d="
M558.022034,368.095886 
	C556.444885,368.400787 554.867798,368.971710 553.290527,368.972473 
	C467.362549,369.015503 381.434570,369.012390 295.506592,368.994110 
	C294.194244,368.993835 292.881927,368.745636 291.480835,368.219055 
	C291.673309,367.636047 291.868378,367.381165 292.448120,367.040894 
	C381.284607,367.027954 469.650299,367.034515 558.013855,367.304810 
	C558.015198,367.744324 558.018616,367.920105 558.022034,368.095886 
z"/>
<path fill="#F0B9B8" opacity="1.000000" stroke="none" 
	d="
M164.230286,240.208496 
	C163.297974,238.098450 162.296738,236.365204 161.855255,234.499512 
	C161.025085,230.991165 160.518082,227.406342 160.013306,224.610031 
	C167.685715,225.453690 174.246445,226.175110 180.807175,226.896530 
	C180.643158,226.178772 180.479156,225.461014 180.315155,224.743256 
	C181.820206,222.095108 185.394043,222.933395 188.291931,220.874268 
	C188.892380,224.138474 189.360001,226.680695 189.908844,229.620972 
	C189.990067,230.019043 189.998917,229.959824 189.738510,230.066254 
	C189.357178,230.977509 189.236267,231.782333 189.115356,232.587143 
	C184.929047,243.337845 172.115631,245.542496 164.230286,240.208496 
z"/>
<path fill="#F0B9B8" opacity="1.000000" stroke="none" 
	d="
M192.155396,282.219543 
	C192.001724,280.877350 192.124435,279.860626 191.975372,278.885437 
	C191.212875,273.897369 193.172485,270.897980 198.603226,270.030884 
	C203.307251,270.977051 207.602859,272.502777 211.988297,272.832123 
	C218.399200,273.313477 224.874588,272.936401 231.749695,273.213806 
	C232.211151,274.301636 232.245392,275.100891 232.279663,275.900146 
	C231.910049,276.762634 231.540436,277.625153 231.145950,279.150208 
	C230.011703,280.491821 228.902344,281.170898 227.792969,281.849945 
	C218.153046,282.816284 208.524597,283.947479 198.864243,284.620605 
	C196.736404,284.768921 194.495346,283.292419 192.155396,282.219543 
z"/>
<path fill="#FCFCFC" opacity="1.000000" stroke="none" 
	d="
M130.211685,422.246216 
	C118.744118,419.894989 108.473343,415.087494 99.803970,407.147797 
	C91.067520,399.146667 86.119827,388.931061 85.317329,377.355988 
	C83.829620,355.897675 88.299622,335.465179 98.579620,316.147034 
	C99.042656,315.974091 99.218590,315.980621 99.657944,315.990936 
	C96.110840,327.961090 91.684921,339.774628 88.665077,351.937317 
	C85.721016,363.794800 85.632111,376.090515 89.540268,387.839447 
	C94.448700,402.595490 105.442642,411.656250 119.621948,416.984039 
	C125.138535,419.056854 130.968033,420.296844 136.424606,422.278015 
	C134.200043,422.508606 132.205856,422.377411 130.211685,422.246216 
z"/>
<path fill="#313042" opacity="1.000000" stroke="none" 
	d="
M216.978210,423.754456 
	C215.929276,423.792175 214.880371,423.829895 213.435165,423.559326 
	C212.980942,423.092743 212.922989,422.934418 212.842834,422.432617 
	C212.804535,419.295502 208.085907,417.512268 211.443497,414.044739 
	C213.961105,412.825256 216.132416,411.629120 218.303711,410.432983 
	C222.116592,408.542450 225.873596,405.925262 230.347092,408.265472 
	C231.970840,409.114899 233.245972,410.630676 234.819717,411.960327 
	C228.910660,415.645050 223.573608,418.973114 218.233490,422.500854 
	C217.813019,423.051880 217.395615,423.403168 216.978210,423.754456 
z"/>
<path fill="#313042" opacity="1.000000" stroke="none" 
	d="
M138.997253,422.980133 
	C139.083389,420.386169 139.169510,417.792236 139.476349,414.731079 
	C139.697067,414.263855 140.023407,414.031281 140.271729,414.074677 
	C140.680374,414.067535 140.840668,414.017029 141.439850,414.044952 
	C144.252365,414.063995 146.625992,414.004669 149.371185,414.026306 
	C150.496750,414.060913 151.250717,414.014587 152.371246,414.056274 
	C158.765121,413.996307 161.537140,417.773529 163.087708,423.052490 
	C162.929504,423.423248 162.916656,423.589813 162.903809,423.756348 
	C155.262848,423.793060 147.621902,423.829742 139.535233,423.614441 
	C139.089523,423.362427 138.997253,422.980133 138.997253,422.980133 
z"/>
<path fill="#7A9C44" opacity="1.000000" stroke="none" 
	d="
M247.190872,278.035095 
	C246.084396,281.578278 243.665543,284.141296 240.013123,283.419617 
	C237.862289,282.994690 234.937637,280.678467 234.534439,278.756805 
	C234.079666,276.589355 235.417252,273.057434 237.186584,271.712585 
	C238.705551,270.558044 242.021423,271.298981 244.361938,271.902588 
	C245.442047,272.181122 246.090927,274.131805 247.012115,275.998260 
	C247.122879,277.126495 247.156876,277.580780 247.190872,278.035095 
z"/>
<path fill="#585669" opacity="1.000000" stroke="none" 
	d="
M217.437836,423.859436 
	C217.395615,423.403168 217.813019,423.051880 218.473160,422.863220 
	C225.495209,422.904053 232.274445,422.684204 239.053848,422.678833 
	C259.434906,422.662750 279.816040,422.730316 300.671509,423.102600 
	C301.145844,423.439911 301.063049,423.692505 301.063049,423.692505 
	C288.786102,423.795319 276.509338,423.952057 264.232208,423.987274 
	C248.787445,424.031586 233.342392,423.976562 217.437836,423.859436 
z"/>
<path fill="#F0B9B8" opacity="1.000000" stroke="none" 
	d="
M218.019073,410.173859 
	C216.132416,411.629120 213.961105,412.825256 211.163513,413.844666 
	C209.019318,410.818695 207.501404,407.969482 205.983490,405.120239 
	C208.700836,404.405701 211.418182,403.691193 214.520355,402.939941 
	C215.848267,405.240387 216.791351,407.577545 218.019073,410.173859 
z"/>
<path fill="#585669" opacity="1.000000" stroke="none" 
	d="
M241.660568,255.417633 
	C243.729477,255.717163 245.369537,255.939148 247.015381,256.102844 
	C251.033508,256.502441 253.255341,258.198608 251.409409,263.801544 
	C250.968414,259.246765 249.665405,257.304199 245.649796,259.339630 
	C244.298660,260.024536 242.045059,259.288483 240.316528,258.801910 
	C235.140640,257.344879 235.162369,257.267700 233.218796,261.763092 
	C232.627151,255.121338 233.431564,254.474075 241.660568,255.417633 
z"/>
<path fill="#585669" opacity="1.000000" stroke="none" 
	d="
M138.648254,422.946594 
	C138.997253,422.980133 139.089523,423.362427 139.073425,423.558411 
	C117.218117,423.754395 95.378929,423.754395 73.539734,423.754395 
	C73.530006,423.379913 73.520279,423.005402 73.510544,422.630920 
	C82.016304,422.630920 90.522057,422.630920 99.494392,422.583374 
	C109.786232,422.547821 119.611504,422.559784 129.824219,422.408997 
	C132.205856,422.377411 134.200043,422.508606 136.579514,422.591278 
	C137.409637,422.666199 137.854446,422.789642 138.648254,422.946594 
z"/>
<path fill="#585669" opacity="1.000000" stroke="none" 
	d="
M247.000137,292.999664 
	C246.479843,293.729584 245.897537,295.128326 245.448746,295.086700 
	C240.514465,294.629333 235.489243,294.353699 230.757614,293.051575 
	C229.519119,292.710754 229.210129,288.992310 229.189316,286.531982 
	C229.600891,290.684021 231.774216,292.281097 235.797943,292.311035 
	C238.920013,292.334320 242.038406,292.850830 245.832489,292.993958 
	C246.671097,292.893097 246.835617,292.946381 247.000137,292.999664 
z"/>
<path fill="#585669" opacity="1.000000" stroke="none" 
	d="
M212.865036,422.776062 
	C212.922989,422.934418 212.980942,423.092743 213.044739,423.503937 
	C196.598480,423.827637 180.146362,423.898468 163.299042,423.862854 
	C162.916656,423.589813 162.929504,423.423248 163.535904,422.979980 
	C180.374649,422.727539 196.619843,422.751801 212.865036,422.776062 
z"/>
<path fill="#DADADA" opacity="1.000000" stroke="none" 
	d="
M558.395874,368.068634 
	C558.018616,367.920105 558.015198,367.744324 558.317444,367.171173 
	C560.412537,365.513763 562.201843,364.253662 563.991211,362.993591 
	C563.991211,362.993591 563.999939,363.000244 564.005615,363.005646 
	C564.211792,366.717346 561.564758,367.456451 558.395874,368.068634 
z"/>
<path fill="#FCFCFC" opacity="1.000000" stroke="none" 
	d="
M228.067719,282.020630 
	C228.902344,281.170898 230.011703,280.491821 231.237976,279.496674 
	C231.304871,280.369263 231.254868,281.557892 231.204865,282.746552 
	C230.250732,282.561462 229.296616,282.376373 228.067719,282.020630 
z"/>
<path fill="#FCFCFC" opacity="1.000000" stroke="none" 
	d="
M232.641052,268.531982 
	C232.345993,267.675568 232.345993,266.677002 232.345993,265.678467 
	C232.879013,265.787079 233.412018,265.895721 233.945038,266.004364 
	C233.608734,266.799530 233.272415,267.594727 232.641052,268.531982 
z"/>
<path fill="#FCFCFC" opacity="1.000000" stroke="none" 
	d="
M251.854553,269.843689 
	C251.030029,270.592468 250.288071,271.039154 249.546097,271.485870 
	C249.301544,271.153778 249.056992,270.821716 248.812439,270.489655 
	C249.805084,269.702515 250.797745,268.915375 251.790405,268.128235 
	C251.839310,268.599365 251.888214,269.070526 251.854553,269.843689 
z"/>
<path fill="#FCFCFC" opacity="1.000000" stroke="none" 
	d="
M247.452576,278.151337 
	C247.156876,277.580780 247.122879,277.126495 247.141663,276.333618 
	C248.028763,276.327667 248.863098,276.660339 249.697433,276.992981 
	C249.036377,277.417847 248.375336,277.842712 247.452576,278.151337 
z"/>
<path fill="#FCFCFC" opacity="1.000000" stroke="none" 
	d="
M247.904678,287.089478 
	C248.032166,285.759277 248.159653,284.429077 248.641693,283.047058 
	C248.996231,282.995209 249.031677,283.020447 249.031677,283.020447 
	C248.794327,284.122864 248.556961,285.225250 248.150024,286.675354 
	C247.980453,287.023010 247.904678,287.089478 247.904678,287.089478 
z"/>
<path fill="#FCFCFC" opacity="1.000000" stroke="none" 
	d="
M247.126495,292.707245 
	C246.835617,292.946381 246.671097,292.893097 246.250168,292.800476 
	C246.430069,291.864410 246.866379,290.967743 247.648727,290.031677 
	C247.994766,289.992279 248.042343,290.027222 248.042358,290.027222 
	C247.779190,290.823090 247.516022,291.618958 247.126495,292.707245 
z"/>
<path fill="#FCFCFC" opacity="1.000000" stroke="none" 
	d="
M232.469879,275.704803 
	C232.245392,275.100891 232.211151,274.301636 232.223236,273.098755 
	C232.399734,273.633270 232.529922,274.571350 232.469879,275.704803 
z"/>
<path fill="#FCFCFC" opacity="1.000000" stroke="none" 
	d="
M248.980377,282.980194 
	C249.025497,282.238037 249.086456,281.510895 249.147415,280.783752 
	C249.357681,280.808655 249.567932,280.833557 249.778198,280.858459 
	C249.684143,281.460938 249.590088,282.063416 249.263855,282.843170 
	C249.031677,283.020447 248.996231,282.995209 248.980377,282.980194 
z"/>
<path fill="#DADADA" opacity="1.000000" stroke="none" 
	d="
M291.977295,367.060364 
	C291.868378,367.381165 291.673309,367.636047 291.172058,367.933777 
	C290.404938,367.862427 289.857788,367.682281 289.156006,367.250000 
	C289.001434,366.997925 289.010986,366.986176 289.381897,366.974609 
	C290.494324,366.995453 291.235809,367.027924 291.977295,367.060364 
z"/>
<path fill="#FCFCFC" opacity="1.000000" stroke="none" 
	d="
M247.972961,289.972412 
	C247.955063,289.235931 247.958954,288.519348 247.933762,287.446106 
	C247.904678,287.089478 247.980453,287.023010 248.021027,286.993439 
	C248.216629,287.856628 248.371658,288.749359 248.284515,289.834656 
	C248.042343,290.027222 247.994766,289.992279 247.972961,289.972412 
z"/>
<path fill="#313042" opacity="1.000000" stroke="none" 
	d="
M189.340958,232.405899 
	C189.236267,231.782333 189.357178,230.977509 189.768494,230.067245 
	C189.894791,230.716080 189.730667,231.470367 189.340958,232.405899 
z"/>
<path fill="#DADADA" opacity="1.000000" stroke="none" 
	d="
M561.014404,32.985329 
	C561.584900,33.139744 562.145142,33.304920 562.849609,33.739349 
	C562.993835,34.008598 562.950195,34.049713 562.654419,34.036224 
	C561.901367,33.687599 561.444092,33.352467 560.986877,33.017323 
	C560.986877,33.017311 561.004089,32.996086 561.014404,32.985329 
z"/>
<path fill="#DADADA" opacity="1.000000" stroke="none" 
	d="
M563.016357,33.988861 
	C563.358704,34.440178 563.678528,34.911236 564.009888,35.680664 
	C564.021545,35.979038 564.002197,35.997646 563.739380,35.849396 
	C563.301086,35.150669 563.125610,34.600193 562.950195,34.049713 
	C562.950195,34.049713 562.993835,34.008598 563.016357,33.988861 
z"/>
<path fill="#313042" opacity="1.000000" stroke="none" 
	d="
M301.247437,423.709595 
	C301.063049,423.692505 301.145844,423.439911 301.102173,423.314514 
	C301.182953,423.368286 301.307373,423.547485 301.247437,423.709595 
z"/>
<path fill="#DADADA" opacity="1.000000" stroke="none" 
	d="
M286.977142,33.981571 
	C287.060364,33.645218 287.244751,33.378929 287.757385,33.085121 
	C287.984436,32.987541 288.001068,33.001934 287.917847,33.242081 
	C287.637573,33.774738 287.365753,33.953762 287.009308,34.009766 
	C286.999420,34.000233 286.977142,33.981571 286.977142,33.981571 
z"/>
<path fill="#DADADA" opacity="1.000000" stroke="none" 
	d="
M285.989288,34.985901 
	C286.065857,34.641964 286.250580,34.378738 286.753571,34.081772 
	C286.977142,33.981571 286.999420,34.000233 286.918945,34.241146 
	C286.645233,34.775265 286.376434,34.956379 286.032104,35.025406 
	C286.032104,35.025406 286.002808,35.000145 285.989288,34.985901 
z"/>
<path fill="#DADADA" opacity="1.000000" stroke="none" 
	d="
M288.994751,367.003754 
	C288.650787,366.933838 288.374207,366.760956 288.075928,366.247772 
	C287.993500,366.004547 288.029633,365.970337 288.257751,366.070129 
	C288.784546,366.362427 288.959595,366.634521 289.010986,366.986176 
	C289.010986,366.986176 289.001434,366.997925 288.994751,367.003754 
z"/>
<path fill="#DADADA" opacity="1.000000" stroke="none" 
	d="
M287.974731,366.020874 
	C287.620697,365.954132 287.356110,365.769684 287.069702,365.255737 
	C286.977203,365.027527 286.999146,365.002563 287.236786,365.090057 
	C287.759949,365.371460 287.945007,365.635712 288.029633,365.970337 
	C288.029633,365.970337 287.993500,366.004547 287.974731,366.020874 
z"/>
<path fill="#FCFCFC" opacity="1.000000" stroke="none" 
	d="
M250.555450,264.459900 
	C250.592667,264.520691 250.518234,264.399139 250.555450,264.459900 
z"/>
<path fill="#FCFCFC" opacity="1.000000" stroke="none" 
	d="
M212.842834,422.432617 
	C196.619843,422.751801 180.374649,422.727539 163.681244,422.775818 
	C161.537140,417.773529 158.765121,413.996307 152.406723,413.696655 
	C157.019073,402.840515 161.449509,392.349640 157.333710,380.487152 
	C160.580292,365.435791 163.826859,350.384430 167.429245,333.683533 
	C169.106735,336.362946 170.094452,337.696808 170.832825,339.156708 
	C181.162689,359.580841 191.435425,380.033936 201.805573,400.437561 
	C202.653381,402.105621 204.108826,403.464844 205.632706,405.043915 
	C207.501404,407.969482 209.019318,410.818695 210.817215,413.868042 
	C208.085907,417.512268 212.804535,419.295502 212.842834,422.432617 
z"/>
<path fill="#C9DAB6" opacity="1.000000" stroke="none" 
	d="
M141.000946,413.966553 
	C140.840668,414.017029 140.680374,414.067535 140.226837,413.709747 
	C132.725983,398.888245 131.439560,384.446869 139.727051,369.959839 
	C139.710434,380.321533 139.663940,390.683380 139.708664,401.044830 
	C139.715546,402.640289 140.141830,404.234009 140.693298,406.566406 
	C141.008621,409.525055 141.004776,411.745819 141.000946,413.966553 
z"/>
<path fill="#C9DAB6" opacity="1.000000" stroke="none" 
	d="
M157.180099,380.834473 
	C161.449509,392.349640 157.019073,402.840515 152.040176,413.608643 
	C151.250717,414.014587 150.496750,414.060913 149.372528,413.634918 
	C149.324921,411.007263 149.647552,408.851929 149.970184,406.696625 
	C150.731689,405.308960 151.835815,404.004517 152.196442,402.519531 
	C153.917130,395.433807 155.435898,388.299103 157.180099,380.834473 
z"/>
<path fill="#FCFCFC" opacity="1.000000" stroke="none" 
	d="
M139.802368,369.607239 
	C131.439560,384.446869 132.725983,398.888245 139.978516,413.666351 
	C140.023407,414.031281 139.697067,414.263855 139.500488,414.304260 
	C133.385544,407.939301 132.466568,399.785889 132.206131,391.754211 
	C131.924622,383.072601 133.931778,374.712891 139.500275,367.291138 
	C139.804260,367.820099 139.840973,368.537354 139.802368,369.607239 
z"/>
<path fill="#F0B9B8" opacity="1.000000" stroke="none" 
	d="
M149.533691,406.597534 
	C149.647552,408.851929 149.324921,411.007263 149.000946,413.553955 
	C146.625992,414.004669 144.252365,414.063995 141.439850,414.044952 
	C141.004776,411.745819 141.008621,409.525055 141.019196,406.896820 
	C143.716370,406.492340 146.406784,406.495361 149.533691,406.597534 
z"/>
<path fill="#FFFFFF" opacity="1.000000" stroke="none" 
	d="
M288.257751,366.070129 
	C287.945007,365.635712 287.759949,365.371460 287.248596,365.079407 
	C286.350067,360.610596 285.095276,356.240601 285.090179,351.869141 
	C284.978027,256.058655 285.004272,160.248001 285.005341,64.437386 
	C285.005432,57.951382 285.010406,57.946274 291.463196,57.946194 
	C380.608734,57.945061 469.754303,57.981453 558.899597,57.844177 
	C563.591919,57.836952 565.085022,58.900326 565.077637,63.827187 
	C564.931641,160.470703 564.977173,257.114532 564.928528,353.758240 
	C564.927124,356.552124 564.324768,359.345673 563.996948,362.566467 
	C562.201843,364.253662 560.412537,365.513763 558.319580,366.907471 
	C469.650299,367.034515 381.284607,367.027954 292.448120,367.040894 
	C291.235809,367.027924 290.494324,366.995453 289.381897,366.974609 
	C288.959595,366.634521 288.784546,366.362427 288.257751,366.070129 
M319.160980,322.483765 
	C319.361572,322.762451 319.627655,322.946381 320.286713,323.541931 
	C320.853546,323.698944 321.420410,323.855957 322.349518,324.722504 
	C323.885925,325.153564 325.421143,325.955261 326.958923,325.960266 
	C351.244110,326.039093 375.529785,326.056061 399.814575,325.930756 
	C401.560760,325.921753 403.300720,324.702515 405.635132,323.999420 
	C406.097595,323.671844 406.560089,323.344299 407.521606,322.689240 
	C407.687195,322.131042 407.852783,321.572845 408.479095,320.830688 
	C408.756500,320.622192 408.932617,320.348511 409.608490,319.423645 
	C409.745483,318.780884 410.001465,318.138245 410.002197,317.495300 
	C410.026886,296.552490 410.044281,275.609558 409.986969,254.666885 
	C409.983612,253.441147 409.347656,252.217133 408.822876,250.532623 
	C408.642700,250.231567 408.381226,250.043427 407.847839,249.508316 
	C407.651062,249.217712 407.380554,249.038147 406.853455,248.505264 
	C406.653351,248.216446 406.380920,248.037979 405.848389,247.508652 
	C405.637939,247.232346 405.363281,247.056015 404.627380,246.434601 
	C403.755646,246.285568 402.883881,246.136536 401.436493,245.375427 
	C401.123413,245.268509 400.810455,245.068375 400.497223,245.067917 
	C375.719299,245.032440 350.941223,244.980469 326.163727,245.076004 
	C324.762512,245.081390 323.365997,246.307617 321.250427,246.962860 
	C320.164093,247.972214 319.077789,248.981552 317.385468,250.470871 
	C316.927429,252.369781 316.080872,254.266724 316.071320,256.167877 
	C315.973389,275.647003 315.950195,295.127289 316.097992,314.605774 
	C316.114258,316.746735 317.329010,318.878571 318.178162,321.467499 
	C318.367706,321.754242 318.628326,321.942810 319.160980,322.483765 
M405.000000,135.000000 
	C405.000000,135.000000 404.999115,134.994995 404.828979,134.524185 
	C404.553864,134.349182 404.278717,134.174194 404.000000,134.000000 
	C404.000000,134.000000 404.000336,133.996109 403.706268,133.465851 
	C403.138031,133.309570 402.569763,133.153275 402.000000,133.000000 
	C402.000000,133.000000 402.002380,132.997421 401.648834,132.282730 
	C400.119629,131.851715 398.591614,131.050018 397.061035,131.045120 
	C373.002899,130.967957 348.943695,130.912033 324.887207,131.126114 
	C322.582550,131.146591 320.294220,132.996323 318.000000,134.000000 
	C318.000000,134.000000 317.996887,133.998489 317.481018,134.311615 
	C317.319183,134.874908 317.157349,135.438202 317.000000,136.000000 
	C317.000000,136.000000 317.000000,135.995239 316.239532,136.104401 
	C315.493347,138.161163 314.116608,140.212570 314.099091,142.275528 
	C313.934052,161.726059 313.939331,181.179031 314.088409,200.629822 
	C314.104736,202.759109 315.332489,204.879135 316.000000,207.000000 
	C316.000000,207.000000 315.996033,207.001480 316.054688,207.698639 
	C318.038818,209.127060 320.022949,210.555481 322.943024,212.018250 
	C347.582001,212.027267 372.221069,212.057388 396.859894,211.999893 
	C398.581024,211.995880 400.300629,211.342270 401.999878,211.000076 
	C401.999878,211.000076 401.984528,211.017487 402.466766,210.826401 
	C402.650787,210.544922 402.834778,210.263458 402.999084,209.997955 
	C402.999084,209.997955 402.979523,210.014053 403.632751,209.999496 
	C404.173645,209.660019 404.714508,209.320526 405.736725,208.670746 
	C406.159576,207.857147 406.582428,207.043549 407.587341,205.666275 
	C408.054413,203.772110 408.917267,201.880035 408.927368,199.983444 
	C409.028381,181.044754 409.040192,162.104950 408.902618,143.166718 
	C408.890045,141.439621 407.665375,139.721313 407.000000,138.000000 
	C407.000000,138.000000 407.002106,137.997147 406.999054,137.389328 
	C406.667480,136.926376 406.335907,136.463425 406.000000,136.000000 
	C406.000000,136.000000 406.000031,135.995804 405.824890,135.527618 
	C405.631256,135.228104 405.357971,135.052521 405.000000,135.000000 
M324.176300,101.597618 
	C324.788391,102.056084 325.400452,102.514549 326.947815,103.006393 
	C390.296417,102.999321 453.645050,102.992249 517.637085,102.951836 
	C518.445740,102.320213 519.254395,101.688583 520.486267,100.827393 
	C520.750977,100.628494 520.941528,100.374023 521.710449,99.665512 
	C524.201721,94.632568 523.397583,91.363533 518.553223,88.349030 
	C516.647522,87.906433 514.742249,87.079155 512.836060,87.077026 
	C452.033173,87.009140 391.230164,86.986542 330.427612,87.144089 
	C327.921356,87.150581 325.419739,88.959724 322.311615,90.306618 
	C319.732239,93.740669 318.158691,97.112259 323.146423,100.514626 
	C323.347473,100.779121 323.605255,100.964966 324.176300,101.597618 
M465.307495,135.456741 
	C449.967255,139.176636 441.038177,150.562592 441.025238,166.429413 
	C441.019928,172.920456 440.920746,179.413574 441.048645,185.902115 
	C441.352631,201.323273 454.338409,214.579926 469.707703,214.895844 
	C481.519714,215.138641 493.343292,215.098999 505.157043,214.902420 
	C518.179626,214.685760 531.019714,205.265121 532.718262,192.439087 
	C534.266602,180.746796 534.195557,168.522461 532.639160,156.825241 
	C531.058228,144.943680 518.382324,135.335953 506.577332,135.102554 
	C493.105469,134.836212 479.622345,135.141449 465.307495,135.456741 
M457.408569,323.227203 
	C461.853607,324.458313 466.260498,326.553101 470.751160,326.751465 
	C482.216400,327.257965 493.722748,327.103333 505.205811,326.873047 
	C520.806091,326.560150 533.916504,313.042328 533.992432,297.501434 
	C534.028992,290.009644 534.121460,282.515015 533.968994,275.026123 
	C533.668762,260.276703 520.319763,247.128540 505.554413,247.012436 
	C493.901001,246.920776 482.246063,246.937073 470.592255,246.994797 
	C457.873627,247.057800 446.090973,254.623245 443.211670,266.881958 
	C441.013245,276.241821 441.264221,286.261780 441.122681,295.998230 
	C440.950043,307.876953 445.987671,317.153900 457.408569,323.227203 
z"/>
<path fill="#FFFFFF" opacity="1.000000" stroke="none" 
	d="
M286.026550,35.446430 
	C286.376434,34.956379 286.645233,34.775265 286.928833,34.250679 
	C287.365753,33.953762 287.637573,33.774738 287.924011,33.249584 
	C292.631531,32.679485 297.249420,32.051037 301.867767,32.047764 
	C385.511292,31.988525 469.154846,31.996929 552.798401,32.042515 
	C555.251831,32.043854 557.705078,32.606709 560.572632,32.962547 
	C561.444092,33.352467 561.901367,33.687599 562.654419,34.036224 
	C563.125610,34.600193 563.301086,35.150669 563.729736,35.856686 
	C564.310791,41.130981 564.587830,46.253696 564.986511,51.366936 
	C565.209534,54.228233 563.963318,55.317814 561.200806,55.056580 
	C560.046265,54.947403 558.872620,55.040413 557.707703,55.040413 
	C469.171478,55.040520 380.635254,55.045570 292.099030,55.031914 
	C284.125488,55.030685 284.960815,55.814175 285.055206,47.707176 
	C285.101227,43.757393 285.682220,39.813831 286.026550,35.446430 
M332.565643,45.783314 
	C331.666077,43.587181 331.223633,40.918762 329.661682,39.406925 
	C328.949158,38.717266 325.088165,39.756889 324.349396,41.010551 
	C323.462677,42.515263 323.600433,45.711010 324.682861,47.063171 
	C326.959930,49.907665 329.873657,49.305973 332.565643,45.783314 
M316.822296,40.675278 
	C314.408264,38.223083 311.502655,37.991161 309.567383,40.610683 
	C308.533752,42.009743 308.517944,45.172939 309.441620,46.685940 
	C310.182098,47.898853 313.319916,48.672485 314.882996,48.140369 
	C317.907013,47.110897 319.002136,44.506283 316.822296,40.675278 
M296.950958,48.567039 
	C301.807831,48.208786 304.433868,45.247726 302.458374,41.973885 
	C301.599609,40.550732 299.404907,39.092220 297.875916,39.152245 
	C296.354828,39.211956 293.696747,41.152912 293.693878,42.274467 
	C293.688721,44.276253 295.306305,46.282192 296.950958,48.567039 
z"/>
<path fill="#C9DAB6" opacity="1.000000" stroke="none" 
	d="
M465.725800,135.327515 
	C479.622345,135.141449 493.105469,134.836212 506.577332,135.102554 
	C518.382324,135.335953 531.058228,144.943680 532.639160,156.825241 
	C534.195557,168.522461 534.266602,180.746796 532.718262,192.439087 
	C531.019714,205.265121 518.179626,214.685760 505.157043,214.902420 
	C493.343292,215.098999 481.519714,215.138641 469.707703,214.895844 
	C454.338409,214.579926 441.352631,201.323273 441.048645,185.902115 
	C440.920746,179.413574 441.019928,172.920456 441.025238,166.429413 
	C441.038177,150.562592 449.967255,139.176636 465.725800,135.327515 
M475.391052,163.372177 
	C472.672943,164.231445 469.954803,165.090714 467.236664,165.949982 
	C467.266022,166.442551 467.295380,166.935104 467.324738,167.427658 
	C468.653564,167.347519 469.986664,167.309265 471.310059,167.175400 
	C472.622681,167.042603 474.447449,166.200714 475.112946,166.767410 
	C476.164185,167.662582 476.733032,169.434204 476.932129,170.912170 
	C477.066925,171.912903 476.217407,173.046249 475.129425,173.958191 
	C474.673492,173.865707 474.217590,173.773239 473.216492,173.337921 
	C470.770081,172.287567 468.323639,171.237213 465.914337,170.202789 
	C464.156403,171.372406 462.249908,172.640884 459.563568,173.938919 
	C453.826202,175.509247 453.465912,180.019760 454.082031,184.668884 
	C454.664917,189.067062 457.867065,191.081711 462.046417,191.598145 
	C464.019775,191.841995 466.020874,191.861267 468.322357,192.603958 
	C470.763763,198.298065 474.189880,196.008682 477.912292,194.022354 
	C481.736755,191.981567 479.651703,188.997299 479.476349,186.399414 
	C479.373444,184.873993 478.437958,183.404770 478.173096,181.406525 
	C478.778442,180.945297 479.383789,180.484070 480.814270,179.894089 
	C490.371521,177.414963 494.918152,179.569656 496.687744,187.651794 
	C499.831207,188.154282 503.059174,188.670288 506.586487,189.234146 
	C505.826965,185.591873 505.241089,182.782166 505.153229,179.317596 
	C505.440918,177.191605 505.728607,175.065613 506.794830,172.817566 
	C507.761017,172.979858 508.726807,173.144363 509.693420,173.304062 
	C513.092041,173.865601 518.500427,170.960709 517.622070,168.976562 
	C516.219116,165.807190 514.387207,162.780930 512.369080,159.956833 
	C511.695038,159.013565 509.917511,158.538971 508.604767,158.452606 
	C506.946533,158.343521 505.247742,158.850494 502.762054,159.207153 
	C502.112793,160.094208 500.879761,161.778763 500.272522,162.608398 
	C498.374634,160.060211 496.455963,157.484085 494.537323,154.907959 
	C492.909760,156.596817 491.282166,158.285675 489.055542,159.752838 
	C484.751709,160.933777 480.447906,162.114716 475.391052,163.372177 
M493.752014,152.590256 
	C493.543030,152.578400 493.334076,152.566544 493.125092,152.554703 
	C493.223389,152.668655 493.321716,152.782623 493.752014,152.590256 
z"/>
<path fill="#FEFEFE" opacity="1.000000" stroke="none" 
	d="
M407.005249,206.229950 
	C406.582428,207.043549 406.159576,207.857147 405.155823,208.828278 
	C404.043091,209.328552 403.511322,209.671295 402.979523,210.014053 
	C402.979523,210.014053 402.999084,209.997955 402.772095,210.091431 
	C402.358246,210.462433 402.171387,210.739960 401.984528,211.017487 
	C401.984528,211.017487 401.999878,211.000076 401.539917,210.982483 
	C374.720337,210.958832 348.360687,210.952774 321.802155,210.688339 
	C319.734192,209.287125 317.865112,208.144302 315.996033,207.001480 
	C315.996033,207.001480 316.000000,207.000000 316.018860,206.533020 
	C316.021851,184.985123 315.975098,163.904129 316.034576,142.823425 
	C316.041016,140.546478 316.663361,138.271255 317.000000,135.995239 
	C317.000000,135.995239 317.000000,136.000000 317.257446,135.845184 
	C317.675568,135.126419 317.836243,134.562454 317.996887,133.998489 
	C317.996887,133.998489 318.000000,134.000000 318.422974,134.009735 
	C321.790375,133.675613 324.733887,133.042480 327.679321,133.033371 
	C352.453491,132.956650 377.227966,132.994232 402.002380,132.997421 
	C402.002380,132.997421 402.000000,133.000000 402.160156,133.252167 
	C402.880310,133.668259 403.440308,133.832184 404.000336,133.996109 
	C404.000336,133.996109 404.000000,134.000000 404.094849,134.229309 
	C404.386719,134.747147 404.656555,134.925949 404.999115,134.994995 
	C404.999115,134.994995 405.000000,135.000000 405.095093,135.230453 
	C405.385864,135.751648 405.655823,135.929947 406.000031,135.995804 
	C406.000031,135.995804 406.000000,136.000000 406.007935,136.302002 
	C406.344604,137.068375 406.673370,137.532761 407.002106,137.997147 
	C407.002106,137.997147 407.000000,138.000000 406.989197,138.468079 
	C406.987305,161.367416 406.996277,183.798691 407.005249,206.229950 
M383.883270,175.732269 
	C383.599091,175.479202 383.314911,175.226151 383.123688,174.216415 
	C384.297089,169.999222 385.470490,165.782028 386.410706,162.402832 
	C382.872650,160.961655 379.287201,159.545563 375.758423,158.000107 
	C375.374390,157.831940 375.039185,156.852631 375.153687,156.359131 
	C375.907379,153.110352 374.257385,153.121323 371.567719,152.064896 
	C367.217285,150.356171 366.479340,154.473785 363.369110,154.690353 
	C357.882721,152.198700 357.505768,157.812988 355.625244,159.785172 
	C353.257538,158.573059 351.340851,157.591843 349.424164,156.610626 
	C348.627136,158.432327 347.817688,160.248779 347.045776,162.081070 
	C346.922729,162.373245 346.968201,162.736420 346.326233,163.315857 
	C345.694122,165.926315 344.195099,165.980988 342.141235,164.770462 
	C342.141235,164.770462 342.242157,164.841873 342.052094,164.299667 
	C341.718353,164.184784 341.384644,164.069885 340.279785,163.902115 
	C339.220154,164.987701 338.299835,166.790588 337.075531,167.028442 
	C332.899719,167.839737 333.943146,170.418808 333.841492,172.947159 
	C332.903564,174.241547 331.118347,175.596710 331.205933,176.817535 
	C331.382568,179.280365 332.577484,181.670151 332.890961,184.629715 
	C330.375183,186.751740 330.731171,189.320892 333.123474,190.642609 
	C334.360748,191.326172 336.795441,189.842316 339.466827,189.664825 
	C339.714966,189.797119 339.963135,189.929413 340.273499,190.797516 
	C344.074097,194.438553 347.973145,193.967621 352.287323,191.662231 
	C355.959747,191.417999 359.632172,191.173767 363.700043,191.259537 
	C368.750671,191.496704 373.801300,191.733871 379.185486,192.700470 
	C380.443298,192.941376 381.724823,193.097000 382.954376,193.439362 
	C386.462341,194.416092 389.580536,193.807343 391.607635,190.694595 
	C393.740509,187.419403 392.566376,184.474808 389.916382,181.285248 
	C390.011169,178.560165 391.860779,175.407318 387.712830,173.014954 
	C388.200531,174.392502 388.455139,175.111740 388.746582,175.934998 
	C386.903046,176.080078 385.463379,176.193375 383.883270,175.732269 
z"/>
<path fill="#C9DAB6" opacity="1.000000" stroke="none" 
	d="
M457.065125,323.074219 
	C445.987671,317.153900 440.950043,307.876953 441.122681,295.998230 
	C441.264221,286.261780 441.013245,276.241821 443.211670,266.881958 
	C446.090973,254.623245 457.873627,247.057800 470.592255,246.994797 
	C482.246063,246.937073 493.901001,246.920776 505.554413,247.012436 
	C520.319763,247.128540 533.668762,260.276703 533.968994,275.026123 
	C534.121460,282.515015 534.028992,290.009644 533.992432,297.501434 
	C533.916504,313.042328 520.806091,326.560150 505.205811,326.873047 
	C493.722748,327.103333 482.216400,327.257965 470.751160,326.751465 
	C466.260498,326.553101 461.853607,324.458313 457.065125,323.074219 
M514.769958,300.683044 
	C519.608032,287.436096 512.062866,271.779663 499.032837,268.028076 
	C482.584808,263.292389 468.072906,274.977264 467.888153,293.648254 
	C467.895966,294.060516 467.903778,294.472778 467.622223,295.131287 
	C467.723694,295.445740 467.825134,295.760223 467.930176,296.854767 
	C469.601013,307.343933 479.029449,315.779602 490.255188,316.829132 
	C500.614471,317.797638 510.785187,311.211731 514.769958,300.683044 
M481.019989,259.164520 
	C469.110535,257.335052 460.759949,263.144470 457.673004,275.386475 
	C467.791748,271.463501 477.914703,267.538940 489.386780,263.091309 
	C485.848267,261.411438 483.799957,260.439056 481.019989,259.164520 
z"/>
<path fill="#E4E4E4" opacity="1.000000" stroke="none" 
	d="
M322.915955,89.929031 
	C325.419739,88.959724 327.921356,87.150581 330.427612,87.144089 
	C391.230164,86.986542 452.033173,87.009140 512.836060,87.077026 
	C514.742249,87.079155 516.647522,87.906433 518.774841,88.676918 
	C518.996460,89.004807 518.923523,89.080505 518.464478,89.066986 
	C456.981354,89.039299 395.957306,89.004730 334.933350,89.058243 
	C330.992310,89.061699 327.051849,89.744217 323.062897,90.064789 
	C323.014679,90.018738 322.915955,89.929031 322.915955,89.929031 
z"/>
<path fill="#DADADA" opacity="1.000000" stroke="none" 
	d="
M516.993652,102.985176 
	C453.645050,102.992249 390.296417,102.999321 326.475525,102.724899 
	C326.003632,102.266655 326.003998,102.089912 326.472534,101.935066 
	C390.293701,101.956512 453.646729,101.956070 517.001099,102.213028 
	C516.999512,102.642014 516.996582,102.813599 516.993652,102.985176 
z"/>
<path fill="#E4E4E4" opacity="1.000000" stroke="none" 
	d="
M401.825623,132.640076 
	C377.227966,132.994232 352.453491,132.956650 327.679321,133.033371 
	C324.733887,133.042480 321.790375,133.675613 318.422119,134.008163 
	C320.294220,132.996323 322.582550,131.146591 324.887207,131.126114 
	C348.943695,130.912033 373.002899,130.967957 397.061035,131.045120 
	C398.591614,131.050018 400.119629,131.851715 401.825623,132.640076 
z"/>
<path fill="#E4E4E4" opacity="1.000000" stroke="none" 
	d="
M316.619751,136.049820 
	C316.663361,138.271255 316.041016,140.546478 316.034576,142.823425 
	C315.975098,163.904129 316.021851,184.985123 316.018036,206.534744 
	C315.332489,204.879135 314.104736,202.759109 314.088409,200.629822 
	C313.939331,181.179031 313.934052,161.726059 314.099091,142.275528 
	C314.116608,140.212570 315.493347,138.161163 316.619751,136.049820 
z"/>
<path fill="#E4E4E4" opacity="1.000000" stroke="none" 
	d="
M407.296295,205.948120 
	C406.996277,183.798691 406.987305,161.367416 406.990967,138.467545 
	C407.665375,139.721313 408.890045,141.439621 408.902618,143.166718 
	C409.040192,162.104950 409.028381,181.044754 408.927368,199.983444 
	C408.917267,201.880035 408.054413,203.772110 407.296295,205.948120 
z"/>
<path fill="#DADADA" opacity="1.000000" stroke="none" 
	d="
M405.043579,324.045990 
	C403.300720,324.702515 401.560760,325.921753 399.814575,325.930756 
	C375.529785,326.056061 351.244110,326.039093 326.958923,325.960266 
	C325.421143,325.955261 323.885925,325.153564 322.174255,324.361847 
	C321.998962,324.001190 322.005402,323.992218 322.427307,324.004089 
	C325.636841,324.329773 328.423431,324.904480 331.212250,324.915558 
	C351.016907,324.994141 370.822388,325.020111 390.626770,324.912079 
	C395.411133,324.885986 400.192413,324.295471 404.991638,323.985352 
	C405.008118,324.006256 405.043579,324.045990 405.043579,324.045990 
z"/>
<path fill="#DADADA" opacity="1.000000" stroke="none" 
	d="
M321.967316,246.965652 
	C323.365997,246.307617 324.762512,245.081390 326.163727,245.076004 
	C350.941223,244.980469 375.719299,245.032440 400.497223,245.067917 
	C400.810455,245.068375 401.123413,245.268509 401.718689,245.687180 
	C402.000916,245.998932 401.995026,246.007675 401.526978,246.018219 
	C379.149994,246.033371 357.240784,245.985046 335.332306,246.086777 
	C330.891968,246.107391 326.454254,246.694687 322.004059,247.006790 
	C321.992767,246.992844 321.967316,246.965652 321.967316,246.965652 
z"/>
<path fill="#DADADA" opacity="1.000000" stroke="none" 
	d="
M322.001038,210.946732 
	C348.360687,210.952774 374.720337,210.958832 401.550476,210.977814 
	C400.300629,211.342270 398.581024,211.995880 396.859894,211.999893 
	C372.221069,212.057388 347.582001,212.027267 322.470581,211.741882 
	C321.999084,211.292572 322.000061,211.119659 322.001038,210.946732 
z"/>
<path fill="#DADADA" opacity="1.000000" stroke="none" 
	d="
M317.987915,321.014648 
	C317.329010,318.878571 316.114258,316.746735 316.097992,314.605774 
	C315.950195,295.127289 315.973389,275.647003 316.071320,256.167877 
	C316.080872,254.266724 316.927429,252.369781 317.693085,250.235779 
	C318.000702,250.000671 318.008362,250.008133 318.020813,250.446564 
	C318.027100,274.252838 318.020966,297.620697 318.008057,320.993958 
	C318.001282,320.999390 317.987915,321.014648 317.987915,321.014648 
z"/>
<path fill="#DADADA" opacity="1.000000" stroke="none" 
	d="
M409.006104,250.992310 
	C409.347656,252.217133 409.983612,253.441147 409.986969,254.666885 
	C410.044281,275.609558 410.026886,296.552490 410.002197,317.495300 
	C410.001465,318.138245 409.745483,318.780884 409.303894,319.711578 
	C408.999298,319.999512 408.991425,319.992676 408.978210,319.524902 
	C408.974396,296.373230 408.983795,273.689362 408.996399,251.002869 
	C408.999542,251.000259 409.006104,250.992310 409.006104,250.992310 
z"/>
<path fill="#E4E4E4" opacity="1.000000" stroke="none" 
	d="
M519.033081,88.967087 
	C523.397583,91.363533 524.201721,94.632568 521.352417,99.833740 
	C520.994446,100.001976 520.927673,99.943542 520.939941,99.514526 
	C520.276001,95.750511 519.599731,92.415512 518.923523,89.080505 
	C518.923523,89.080505 518.996460,89.004807 519.033081,88.967087 
z"/>
<path fill="#E4E4E4" opacity="1.000000" stroke="none" 
	d="
M322.919128,100.090561 
	C318.158691,97.112259 319.732239,93.740669 322.613770,90.117828 
	C322.915955,89.929031 323.014679,90.018738 323.030884,90.450104 
	C323.055420,93.901405 323.063782,96.921349 323.032776,99.977509 
	C322.993439,100.013725 322.919128,100.090561 322.919128,100.090561 
z"/>
<path fill="#E4E4E4" opacity="1.000000" stroke="none" 
	d="
M321.802155,210.688339 
	C322.000061,211.119659 321.999084,211.292572 322.002625,211.724701 
	C320.022949,210.555481 318.038818,209.127060 316.025360,207.350067 
	C317.865112,208.144302 319.734192,209.287125 321.802155,210.688339 
z"/>
<path fill="#DADADA" opacity="1.000000" stroke="none" 
	d="
M317.996094,249.995789 
	C319.077789,248.981552 320.164093,247.972214 321.608887,246.964264 
	C321.967316,246.965652 321.992767,246.992844 321.855347,247.298767 
	C320.481445,248.405838 319.244904,249.207001 318.008362,250.008148 
	C318.008362,250.008133 318.000702,250.000671 317.996094,249.995789 
z"/>
<path fill="#E4E4E4" opacity="1.000000" stroke="none" 
	d="
M517.315369,102.968506 
	C516.996582,102.813599 516.999512,102.642014 517.208008,101.959824 
	C518.257202,101.275536 519.100952,101.101860 519.973328,100.961250 
	C520.002014,100.994316 520.063110,101.056976 520.063110,101.056969 
	C519.254395,101.688583 518.445740,102.320213 517.315369,102.968506 
z"/>
<path fill="#E4E4E4" opacity="1.000000" stroke="none" 
	d="
M326.004364,101.913177 
	C326.003998,102.089912 326.003632,102.266655 326.007904,102.708206 
	C325.400452,102.514549 324.788391,102.056084 324.082764,101.300812 
	C323.989227,101.004013 324.054535,100.931862 324.340454,100.965988 
	C325.085724,101.304466 325.545044,101.608826 326.004364,101.913177 
z"/>
<path fill="#DADADA" opacity="1.000000" stroke="none" 
	d="
M402.006531,245.993210 
	C402.883881,246.136536 403.755646,246.285568 404.814728,246.716949 
	C405.002075,246.999283 404.983887,247.020538 404.647217,247.021255 
	C403.538696,246.683868 402.766846,246.345779 401.995026,246.007675 
	C401.995026,246.007675 402.000916,245.998932 402.006531,245.993210 
z"/>
<path fill="#DADADA" opacity="1.000000" stroke="none" 
	d="
M407.022552,323.016724 
	C406.560089,323.344299 406.097595,323.671844 405.339355,324.022705 
	C405.043579,324.045990 405.008118,324.006256 405.151794,323.732788 
	C405.854797,323.297363 406.414124,323.135437 406.985107,322.984650 
	C406.996796,322.995789 407.022552,323.016724 407.022552,323.016724 
z"/>
<path fill="#DADADA" opacity="1.000000" stroke="none" 
	d="
M321.993103,324.007080 
	C321.420410,323.855957 320.853546,323.698944 320.141388,323.271118 
	C319.996063,323.000336 320.030060,322.962341 320.325958,322.982025 
	C321.083038,323.331879 321.544220,323.662048 322.005402,323.992218 
	C322.005402,323.992218 321.998962,324.001190 321.993103,324.007080 
z"/>
<path fill="#DADADA" opacity="1.000000" stroke="none" 
	d="
M408.018402,321.014648 
	C407.852783,321.572845 407.687195,322.131042 407.272095,322.852966 
	C407.022552,323.016724 406.996796,322.995789 406.989044,322.684662 
	C407.317566,321.912720 407.653839,321.451874 407.996216,320.996399 
	C408.002258,321.001770 408.018402,321.014648 408.018402,321.014648 
z"/>
<path fill="#DADADA" opacity="1.000000" stroke="none" 
	d="
M403.306152,210.006775 
	C403.511322,209.671295 404.043091,209.328552 404.915161,208.983429 
	C404.714508,209.320526 404.173645,209.660019 403.306152,210.006775 
z"/>
<path fill="#E4E4E4" opacity="1.000000" stroke="none" 
	d="
M403.853302,133.730988 
	C403.440308,133.832184 402.880310,133.668259 402.160889,133.250656 
	C402.569763,133.153275 403.138031,133.309570 403.853302,133.730988 
z"/>
<path fill="#E4E4E4" opacity="1.000000" stroke="none" 
	d="
M317.738953,134.155060 
	C317.836243,134.562454 317.675568,135.126419 317.255249,135.845947 
	C317.157349,135.438202 317.319183,134.874908 317.738953,134.155060 
z"/>
<path fill="#E4E4E4" opacity="1.000000" stroke="none" 
	d="
M407.000580,137.693237 
	C406.673370,137.532761 406.344604,137.068375 406.010071,136.302246 
	C406.335907,136.463425 406.667480,136.926376 407.000580,137.693237 
z"/>
<path fill="#E4E4E4" opacity="1.000000" stroke="none" 
	d="
M323.954468,101.038078 
	C323.605255,100.964966 323.347473,100.779121 323.032776,100.302597 
	C322.919128,100.090561 322.993439,100.013725 323.242615,100.091949 
	C323.754822,100.368324 323.942413,100.622223 324.054535,100.931862 
	C324.054535,100.931862 323.989227,101.004013 323.954468,101.038078 
z"/>
<path fill="#E4E4E4" opacity="1.000000" stroke="none" 
	d="
M521.026123,100.032974 
	C520.941528,100.374023 520.750977,100.628494 520.274658,100.942184 
	C520.063110,101.056976 520.002014,100.994316 520.080322,100.746674 
	C520.354431,100.230133 520.610779,100.044968 520.927673,99.943542 
	C520.927673,99.943542 520.994446,100.001976 521.026123,100.032974 
z"/>
<path fill="#E4E4E4" opacity="1.000000" stroke="none" 
	d="
M404.914062,134.759583 
	C404.656555,134.925949 404.386719,134.747147 404.096619,134.228912 
	C404.278717,134.174194 404.553864,134.349182 404.914062,134.759583 
z"/>
<path fill="#E4E4E4" opacity="1.000000" stroke="none" 
	d="
M405.912476,135.761719 
	C405.655823,135.929947 405.385864,135.751648 405.097595,135.230896 
	C405.357971,135.052521 405.631256,135.228104 405.912476,135.761719 
z"/>
<path fill="#DADADA" opacity="1.000000" stroke="none" 
	d="
M402.225647,210.921936 
	C402.171387,210.739960 402.358246,210.462433 402.781952,210.083435 
	C402.834778,210.263458 402.650787,210.544922 402.225647,210.921936 
z"/>
<path fill="#DADADA" opacity="1.000000" stroke="none" 
	d="
M405.013245,246.989471 
	C405.363281,247.056015 405.637939,247.232346 405.927917,247.751282 
	C406.007477,247.993927 405.981079,248.018738 405.757324,247.916351 
	C405.246094,247.621719 405.062866,247.357239 404.983887,247.020538 
	C404.983887,247.020538 405.002075,246.999283 405.013245,246.989471 
z"/>
<path fill="#DADADA" opacity="1.000000" stroke="none" 
	d="
M406.021851,247.981903 
	C406.380920,248.037979 406.653351,248.216446 406.930481,248.749573 
	C407.007477,248.993866 406.980865,249.018875 406.758179,248.915222 
	C406.257111,248.612747 406.072296,248.348465 405.981079,248.018738 
	C405.981079,248.018738 406.007477,247.993927 406.021851,247.981903 
z"/>
<path fill="#DADADA" opacity="1.000000" stroke="none" 
	d="
M407.021912,248.981735 
	C407.380554,249.038147 407.651062,249.217712 407.927490,249.751373 
	C408.007111,249.994431 407.977722,250.021790 407.754761,249.918579 
	C407.255432,249.613983 407.071808,249.348495 406.980865,249.018875 
	C406.980865,249.018875 407.007477,248.993866 407.021912,248.981735 
z"/>
<path fill="#DADADA" opacity="1.000000" stroke="none" 
	d="
M319.977631,323.017944 
	C319.627655,322.946381 319.361572,322.762451 319.078064,322.243408 
	C318.995178,322.003082 319.028687,321.971436 319.256287,322.066772 
	C319.769409,322.358215 319.951477,322.624969 320.030060,322.962341 
	C320.030060,322.962341 319.996063,323.000336 319.977631,323.017944 
z"/>
<path fill="#DADADA" opacity="1.000000" stroke="none" 
	d="
M408.022797,249.981323 
	C408.381226,250.043427 408.642700,250.231567 408.914490,250.762466 
	C409.006104,250.992310 408.999542,251.000259 408.760590,250.920502 
	C408.241119,250.633667 408.059814,250.360687 407.977722,250.021790 
	C407.977722,250.021790 408.007111,249.994431 408.022797,249.981323 
z"/>
<path fill="#DADADA" opacity="1.000000" stroke="none" 
	d="
M318.977570,322.018127 
	C318.628326,321.942810 318.367706,321.754242 318.083038,321.241089 
	C317.987915,321.014648 318.001282,320.999390 318.242554,321.078705 
	C318.771637,321.358002 318.953278,321.629120 319.028687,321.971436 
	C319.028687,321.971436 318.995178,322.003082 318.977570,322.018127 
z"/>
<path fill="#DADADA" opacity="1.000000" stroke="none" 
	d="
M409.003418,320.004578 
	C408.932617,320.348511 408.756500,320.622192 408.248749,320.922668 
	C408.018402,321.014648 408.002258,321.001770 408.091217,320.765259 
	C408.366333,320.222565 408.636749,320.043884 408.991425,319.992676 
	C408.991425,319.992676 408.999298,319.999512 409.003418,320.004578 
z"/>
<path fill="#313042" opacity="1.000000" stroke="none" 
	d="
M332.363525,46.109840 
	C329.873657,49.305973 326.959930,49.907665 324.682861,47.063171 
	C323.600433,45.711010 323.462677,42.515263 324.349396,41.010551 
	C325.088165,39.756889 328.949158,38.717266 329.661682,39.406925 
	C331.223633,40.918762 331.666077,43.587181 332.363525,46.109840 
z"/>
<path fill="#313042" opacity="1.000000" stroke="none" 
	d="
M317.033356,41.012474 
	C319.002136,44.506283 317.907013,47.110897 314.882996,48.140369 
	C313.319916,48.672485 310.182098,47.898853 309.441620,46.685940 
	C308.517944,45.172939 308.533752,42.009743 309.567383,40.610683 
	C311.502655,37.991161 314.408264,38.223083 317.033356,41.012474 
z"/>
<path fill="#313042" opacity="1.000000" stroke="none" 
	d="
M296.598145,48.426716 
	C295.306305,46.282192 293.688721,44.276253 293.693878,42.274467 
	C293.696747,41.152912 296.354828,39.211956 297.875916,39.152245 
	C299.404907,39.092220 301.599609,40.550732 302.458374,41.973885 
	C304.433868,45.247726 301.807831,48.208786 296.598145,48.426716 
z"/>
<path fill="#7A9C44" opacity="1.000000" stroke="none" 
	d="
M504.655182,179.972443 
	C505.241089,182.782166 505.826965,185.591873 506.586487,189.234146 
	C503.059174,188.670288 499.831207,188.154282 496.687744,187.651794 
	C494.918152,179.569656 490.371521,177.414963 480.357849,179.641129 
	C479.522522,178.395264 479.143616,177.402359 479.158386,176.340210 
	C481.515228,174.730499 483.478363,173.190018 485.675964,171.465652 
	C486.650970,169.678299 487.555054,168.127335 488.091034,166.458176 
	C488.768890,164.347275 489.147125,162.140152 489.654602,159.974533 
	C491.282166,158.285675 492.909760,156.596817 494.537323,154.907959 
	C496.455963,157.484085 498.374634,160.060211 500.272522,162.608398 
	C500.879761,161.778763 502.112793,160.094208 502.762054,159.207153 
	C505.247742,158.850494 506.946533,158.343521 508.604767,158.452606 
	C509.917511,158.538971 511.695038,159.013565 512.369080,159.956833 
	C514.387207,162.780930 516.219116,165.807190 517.622070,168.976562 
	C518.500427,170.960709 513.092041,173.865601 509.693420,173.304062 
	C508.726807,173.144363 507.761017,172.979858 506.207764,172.616364 
	C503.948334,170.416626 502.275940,168.418106 499.806152,165.466614 
	C498.158813,168.848068 497.253510,170.706329 496.100525,173.073044 
	C499.904297,172.366608 503.699219,175.890106 504.655182,179.972443 
z"/>
<path fill="#C54032" opacity="1.000000" stroke="none" 
	d="
M478.764709,176.409424 
	C479.143616,177.402359 479.522522,178.395264 479.945312,179.705505 
	C479.383789,180.484070 478.778442,180.945297 477.699371,181.742950 
	C474.153564,185.380341 471.081482,188.681320 468.009399,191.982300 
	C466.020874,191.861267 464.019775,191.841995 462.046417,191.598145 
	C457.867065,191.081711 454.664917,189.067062 454.082031,184.668884 
	C453.465912,180.019760 453.826202,175.509247 460.044281,174.170898 
	C461.425232,175.531219 462.325470,176.659531 462.997498,178.104523 
	C462.423401,180.271469 461.982025,182.117172 461.893311,183.979675 
	C461.885284,184.148254 465.082306,184.848602 465.203186,184.582016 
	C465.930878,182.977417 466.288910,181.176880 466.557526,179.409515 
	C466.639221,178.872086 466.046082,178.232101 466.047974,177.379333 
	C468.210693,177.002045 470.087402,176.884521 471.572906,176.791504 
	C472.397369,175.619736 473.079498,174.650238 473.761658,173.680756 
	C474.217590,173.773239 474.673492,173.865707 475.668518,174.288361 
	C477.059998,175.215485 477.912354,175.812454 478.764709,176.409424 
z"/>
<path fill="#E4E4E4" opacity="1.000000" stroke="none" 
	d="
M468.165894,192.293121 
	C471.081482,188.681320 474.153564,185.380341 477.551331,181.994812 
	C478.437958,183.404770 479.373444,184.873993 479.476349,186.399414 
	C479.651703,188.997299 481.736755,191.981567 477.912292,194.022354 
	C474.189880,196.008682 470.763763,198.298065 468.165894,192.293121 
z"/>
<path fill="#EDAA49" opacity="1.000000" stroke="none" 
	d="
M479.158386,176.340195 
	C477.912354,175.812454 477.059998,175.215485 476.007874,174.369385 
	C476.217407,173.046249 477.066925,171.912903 476.932129,170.912170 
	C476.733032,169.434204 476.164185,167.662582 475.112946,166.767410 
	C474.447449,166.200714 472.622681,167.042603 471.310059,167.175400 
	C469.986664,167.309265 468.653564,167.347519 467.324738,167.427658 
	C467.295380,166.935104 467.266022,166.442551 467.236664,165.949982 
	C469.954803,165.090714 472.672943,164.231445 475.989746,163.596069 
	C480.899963,164.891495 486.260498,164.776855 485.441528,171.649551 
	C483.478363,173.190018 481.515228,174.730499 479.158386,176.340195 
z"/>
<path fill="#C54032" opacity="1.000000" stroke="none" 
	d="
M485.675964,171.465652 
	C486.260498,164.776855 480.899963,164.891495 476.366272,163.557816 
	C480.447906,162.114716 484.751709,160.933777 489.355042,159.863678 
	C489.147125,162.140152 488.768890,164.347275 488.091034,166.458176 
	C487.555054,168.127335 486.650970,169.678299 485.675964,171.465652 
z"/>
<path fill="#313042" opacity="1.000000" stroke="none" 
	d="
M473.489075,173.509338 
	C473.079498,174.650238 472.397369,175.619736 471.572906,176.791504 
	C470.087402,176.884521 468.210693,177.002045 465.742706,177.503357 
	C464.509552,177.854050 463.867615,177.820938 463.225708,177.787842 
	C462.325470,176.659531 461.425232,175.531219 460.434204,174.156128 
	C462.249908,172.640884 464.156403,171.372406 465.914337,170.202789 
	C468.323639,171.237213 470.770081,172.287567 473.489075,173.509338 
z"/>
<path fill="#C54032" opacity="1.000000" stroke="none" 
	d="
M504.904205,179.645020 
	C503.699219,175.890106 499.904297,172.366608 496.100525,173.073044 
	C497.253510,170.706329 498.158813,168.848068 499.806152,165.466614 
	C502.275940,168.418106 503.948334,170.416626 505.818512,172.677399 
	C505.728607,175.065613 505.440918,177.191605 504.904205,179.645020 
z"/>
<path fill="#7A9C44" opacity="1.000000" stroke="none" 
	d="
M493.585999,152.743408 
	C493.321716,152.782623 493.223389,152.668655 493.125092,152.554703 
	C493.334076,152.566544 493.543030,152.578400 493.585999,152.743408 
z"/>
<path fill="#7A9C44" opacity="1.000000" stroke="none" 
	d="
M363.846100,155.095688 
	C366.479340,154.473785 367.217285,150.356171 371.567719,152.064896 
	C374.257385,153.121323 375.907379,153.110352 375.153687,156.359131 
	C375.039185,156.852631 375.374390,157.831940 375.758423,158.000107 
	C379.287201,159.545563 382.872650,160.961655 386.410706,162.402832 
	C385.470490,165.782028 384.297089,169.999222 382.814880,174.651367 
	C382.087860,175.417801 381.669647,175.749268 380.960724,175.984131 
	C380.355316,174.951736 380.040588,174.015945 379.759155,172.705170 
	C378.011627,170.706696 376.230865,169.083206 374.769745,167.751114 
	C373.342529,170.435074 372.474060,172.068298 371.459290,173.429779 
	C370.899414,171.727493 370.485870,170.296951 370.032867,168.554550 
	C370.287048,167.456848 370.580719,166.671005 370.981354,165.660309 
	C371.526001,165.223114 371.963715,165.010773 372.838196,164.868103 
	C375.638153,165.657776 378.001312,166.377792 380.315796,167.082962 
	C380.666504,163.964111 376.383545,160.249237 371.631744,160.306763 
	C368.506836,163.580444 366.849762,160.805954 364.949707,158.877014 
	C364.565308,157.428375 364.205719,156.262039 363.846100,155.095688 
z"/>
<path fill="#EDAA49" opacity="1.000000" stroke="none" 
	d="
M363.607605,154.893021 
	C364.205719,156.262039 364.565308,157.428375 364.703796,159.079407 
	C362.687012,161.730499 360.891327,163.896896 358.693054,165.984344 
	C355.174347,165.972961 352.058289,166.040543 348.699036,165.920197 
	C347.949127,164.843796 347.442444,163.955292 346.935760,163.066772 
	C346.968201,162.736420 346.922729,162.373245 347.045776,162.081070 
	C347.817688,160.248779 348.627136,158.432327 349.424164,156.610626 
	C351.340851,157.591843 353.257538,158.573059 355.625244,159.785172 
	C357.505768,157.812988 357.882721,152.198700 363.607605,154.893021 
z"/>
<path fill="#7A9C44" opacity="1.000000" stroke="none" 
	d="
M351.930145,191.076584 
	C347.973145,193.967621 344.074097,194.438553 340.564758,190.394653 
	C341.873993,189.501617 342.891968,189.011429 343.454315,188.740662 
	C341.973297,187.613571 340.403595,186.418991 339.576752,185.789749 
	C340.188141,183.695984 340.567993,182.395187 341.390564,181.048203 
	C342.419373,180.916473 343.005432,180.830933 343.910248,180.794342 
	C346.170837,181.488037 348.112640,182.132751 350.368347,182.866150 
	C351.115204,182.977676 351.548218,183.000519 352.062225,183.288910 
	C352.432465,183.993073 352.721710,184.431671 353.304810,185.051376 
	C357.232727,188.376877 352.485107,189.128204 351.930145,191.076584 
z"/>
<path fill="#C54032" opacity="1.000000" stroke="none" 
	d="
M352.108734,191.369415 
	C352.485107,189.128204 357.232727,188.376877 353.270020,184.749649 
	C352.960999,183.861191 352.980652,183.455566 353.328461,182.929535 
	C355.181061,182.206924 356.705475,181.604721 358.616821,181.055664 
	C361.396973,181.435318 363.790192,181.761856 366.039917,182.424942 
	C365.032501,185.484161 364.168549,188.206848 363.304565,190.929535 
	C359.632172,191.173767 355.959747,191.417999 352.108734,191.369415 
z"/>
<path fill="#C54032" opacity="1.000000" stroke="none" 
	d="
M389.883820,181.985107 
	C392.566376,184.474808 393.740509,187.419403 391.607635,190.694595 
	C389.580536,193.807343 386.462341,194.416092 382.954376,193.439362 
	C381.724823,193.097000 380.443298,192.941376 379.068298,192.015656 
	C378.994965,190.900131 379.038788,190.469452 379.054260,190.023865 
	C379.025909,190.008987 378.998505,190.066208 379.326324,190.049561 
	C380.202515,189.688095 380.750916,189.343277 381.600891,188.860931 
	C384.057922,186.399887 386.213348,184.076340 388.746307,181.818832 
	C389.377136,181.918274 389.630463,181.951691 389.883820,181.985107 
z"/>
<path fill="#EDAA49" opacity="1.000000" stroke="none" 
	d="
M340.947815,181.094391 
	C340.567993,182.395187 340.188141,183.695984 339.576752,185.789749 
	C340.403595,186.418991 341.973297,187.613571 343.454315,188.740662 
	C342.891968,189.011429 341.873993,189.501617 340.533661,190.026764 
	C339.963135,189.929413 339.714966,189.797119 338.881775,189.315491 
	C336.648621,187.340805 335.000488,185.715439 333.352356,184.090057 
	C332.577484,181.670151 331.382568,179.280365 331.205933,176.817535 
	C331.118347,175.596710 332.903564,174.241547 334.298889,173.330933 
	C336.201324,175.166107 337.646393,176.617523 339.218018,178.333588 
	C339.878998,179.430267 340.413422,180.262329 340.947815,181.094391 
z"/>
<path fill="#7A9C44" opacity="1.000000" stroke="none" 
	d="
M339.091431,178.068939 
	C337.646393,176.617523 336.201324,175.166107 334.656433,173.358917 
	C333.943146,170.418808 332.899719,167.839737 337.075531,167.028442 
	C338.299835,166.790588 339.220154,164.987701 340.779144,164.170319 
	C341.599731,164.572968 341.920929,164.707413 342.242157,164.841873 
	C342.242157,164.841873 342.141235,164.770462 342.138611,165.153534 
	C341.872467,168.809265 341.763733,172.106354 341.253082,175.339966 
	C341.095398,176.338516 339.842743,177.164139 339.091431,178.068939 
z"/>
<path fill="#585669" opacity="1.000000" stroke="none" 
	d="
M339.218018,178.333572 
	C339.842743,177.164139 341.095398,176.338516 341.253082,175.339966 
	C341.763733,172.106354 341.872467,168.809265 342.189667,165.118683 
	C344.195099,165.980988 345.694122,165.926315 346.630981,163.191315 
	C347.442444,163.955292 347.949127,164.843796 348.667297,166.110641 
	C348.878784,166.488983 348.895386,166.876541 348.600891,167.055801 
	C346.673157,170.067001 345.039948,172.898926 343.334717,176.152115 
	C343.372345,177.964050 343.481903,179.354721 343.591492,180.745392 
	C343.005432,180.830933 342.419373,180.916473 341.390564,181.048203 
	C340.413422,180.262329 339.878998,179.430267 339.218018,178.333572 
z"/>
<path fill="#313042" opacity="1.000000" stroke="none" 
	d="
M379.082642,190.038757 
	C379.038788,190.469452 378.994965,190.900131 378.901520,191.650940 
	C373.801300,191.733871 368.750671,191.496704 363.502319,191.094543 
	C364.168549,188.206848 365.032501,185.484161 366.308472,182.291763 
	C367.026245,181.809845 367.401947,181.684875 367.617188,181.818466 
	C367.815887,181.941772 367.953308,182.352600 367.928772,182.619400 
	C367.176910,190.787903 368.119141,191.633072 376.156860,190.101837 
	C377.101837,189.921814 378.105957,190.052246 379.082642,190.038757 
z"/>
<path fill="#EDAA49" opacity="1.000000" stroke="none" 
	d="
M389.900085,181.635178 
	C389.630463,181.951691 389.377136,181.918274 388.577393,181.616516 
	C385.578247,181.499069 383.125580,181.649963 380.752869,181.417938 
	C381.896454,179.458923 382.960114,177.882797 384.023743,176.306671 
	C385.463379,176.193375 386.903046,176.080078 388.746582,175.934998 
	C388.455139,175.111740 388.200531,174.392502 387.712830,173.014954 
	C391.860779,175.407318 390.011169,178.560165 389.900085,181.635178 
z"/>
<path fill="#C9DAB6" opacity="1.000000" stroke="none" 
	d="
M383.953522,176.019470 
	C382.960114,177.882797 381.896454,179.458923 380.492188,181.519501 
	C376.604279,184.979828 374.572296,184.514053 372.544067,180.109436 
	C375.702148,178.724640 378.476776,177.402679 381.251404,176.080719 
	C381.669647,175.749268 382.087860,175.417801 382.768402,175.029709 
	C383.314911,175.226151 383.599091,175.479202 383.953522,176.019470 
z"/>
<path fill="#C54032" opacity="1.000000" stroke="none" 
	d="
M333.121643,184.359894 
	C335.000488,185.715439 336.648621,187.340805 338.492950,189.151932 
	C336.795441,189.842316 334.360748,191.326172 333.123474,190.642609 
	C330.731171,189.320892 330.375183,186.751740 333.121643,184.359894 
z"/>
<path fill="#585669" opacity="1.000000" stroke="none" 
	d="
M342.147125,164.570770 
	C341.920929,164.707413 341.599731,164.572968 341.164703,164.196747 
	C341.384644,164.069885 341.718353,164.184784 342.147125,164.570770 
z"/>
<path fill="#EA7631" opacity="1.000000" stroke="none" 
	d="
M467.911591,294.885040 
	C467.903778,294.472778 467.895966,294.060516 468.289368,293.295868 
	C471.972961,290.982056 473.827911,286.625824 479.075134,288.036713 
	C484.931854,289.611511 490.438995,288.729858 494.090851,282.914734 
	C495.934875,279.978271 498.243774,280.484741 500.151031,282.811035 
	C503.480225,286.871643 506.632477,291.078186 509.825378,295.249237 
	C511.342560,297.231262 512.782593,299.272400 514.257568,301.286743 
	C510.785187,311.211731 500.614471,317.797638 490.255188,316.829132 
	C479.029449,315.779602 469.601013,307.343933 467.958405,296.166748 
	C467.961609,295.280823 467.936584,295.082916 467.911591,294.885040 
z"/>
<path fill="#EDAA49" opacity="1.000000" stroke="none" 
	d="
M514.513794,300.984894 
	C512.782593,299.272400 511.342560,297.231262 509.825378,295.249237 
	C506.632477,291.078186 503.480225,286.871643 500.151031,282.811035 
	C498.243774,280.484741 495.934875,279.978271 494.090851,282.914734 
	C490.438995,288.729858 484.931854,289.611511 479.075134,288.036713 
	C473.827911,286.625824 471.972961,290.982056 468.333008,292.989410 
	C468.072906,274.977264 482.584808,263.292389 499.032837,268.028076 
	C512.062866,271.779663 519.608032,287.436096 514.513794,300.984894 
z"/>
<path fill="#7A9C44" opacity="1.000000" stroke="none" 
	d="
M481.385834,259.315582 
	C483.799957,260.439056 485.848267,261.411438 489.386780,263.091309 
	C477.914703,267.538940 467.791748,271.463501 457.673004,275.386475 
	C460.759949,263.144470 469.110535,257.335052 481.385834,259.315582 
z"/>
<path fill="#EDAA49" opacity="1.000000" stroke="none" 
	d="
M467.766907,295.008179 
	C467.936584,295.082916 467.961609,295.280823 467.956604,295.776733 
	C467.825134,295.760223 467.723694,295.445740 467.766907,295.008179 
z"/>
<path fill="#FFFFFF" opacity="1.000000" stroke="none" 
	d="
M520.939941,99.514526 
	C520.610779,100.044968 520.354431,100.230133 520.051636,100.713608 
	C519.100952,101.101860 518.257202,101.275536 517.206665,101.702423 
	C453.646729,101.956070 390.293701,101.956512 326.472534,101.935074 
	C325.545044,101.608826 325.085724,101.304466 324.340454,100.965988 
	C323.942413,100.622223 323.754822,100.368324 323.281921,100.055733 
	C323.063782,96.921349 323.055420,93.901405 323.079102,90.496155 
	C327.051849,89.744217 330.992310,89.061699 334.933350,89.058243 
	C395.957306,89.004730 456.981354,89.039299 518.464478,89.066986 
	C519.599731,92.415512 520.276001,95.750511 520.939941,99.514526 
z"/>
<path fill="#FEFEFE" opacity="1.000000" stroke="none" 
	d="
M408.978210,319.524902 
	C408.636749,320.043884 408.366333,320.222565 408.085144,320.759888 
	C407.653839,321.451874 407.317566,321.912720 406.977356,322.673523 
	C406.414124,323.135437 405.854797,323.297363 405.135315,323.711884 
	C400.192413,324.295471 395.411133,324.885986 390.626770,324.912079 
	C370.822388,325.020111 351.016907,324.994141 331.212250,324.915558 
	C328.423431,324.904480 325.636841,324.329773 322.427307,324.004089 
	C321.544220,323.662048 321.083038,323.331879 320.325958,322.982025 
	C319.951477,322.624969 319.769409,322.358215 319.256287,322.066772 
	C318.953278,321.629120 318.771637,321.358002 318.249298,321.073273 
	C318.020966,297.620697 318.027100,274.252838 318.020813,250.446564 
	C319.244904,249.207001 320.481445,248.405838 321.866638,247.312714 
	C326.454254,246.694687 330.891968,246.107391 335.332306,246.086777 
	C357.240784,245.985046 379.149994,246.033371 401.526978,246.018219 
	C402.766846,246.345779 403.538696,246.683868 404.647217,247.021255 
	C405.062866,247.357239 405.246094,247.621719 405.757324,247.916351 
	C406.072296,248.348465 406.257111,248.612747 406.758179,248.915222 
	C407.071808,249.348495 407.255432,249.613983 407.754761,249.918579 
	C408.059814,250.360687 408.241119,250.633667 408.757446,250.923111 
	C408.983795,273.689362 408.974396,296.373230 408.978210,319.524902 
M364.737274,265.658783 
	C364.375641,263.595398 364.014038,261.532013 363.498413,258.589905 
	C359.951904,261.872345 357.575500,264.071808 354.945740,266.505768 
	C353.869263,265.159119 353.028198,264.106964 351.837585,262.617462 
	C351.971130,264.872131 352.063629,266.433502 352.169891,268.227448 
	C349.785797,267.727539 347.737885,267.298126 346.046570,266.943481 
	C343.317047,271.617493 344.155426,275.482574 348.896912,278.601715 
	C348.896912,278.601715 348.801483,278.966125 348.084259,278.996460 
	C342.401520,280.891693 342.330994,284.659149 344.671082,289.232178 
	C345.504791,288.800415 346.338501,288.368622 347.348358,288.669342 
	C349.653412,292.255615 351.169220,297.602478 354.427246,299.062988 
	C361.289276,302.139252 368.998962,303.528534 376.488129,304.929443 
	C381.396637,305.847626 384.644501,303.112885 385.898407,297.339813 
	C384.672607,292.502747 383.446777,287.665649 382.072937,282.118774 
	C381.242126,280.334991 380.366364,278.570557 379.588562,276.763947 
	C376.776642,270.232544 371.643219,267.047607 364.737274,265.658783 
z"/>
<path fill="#EA7631" opacity="1.000000" stroke="none" 
	d="
M462.997498,178.104523 
	C463.867615,177.820938 464.509552,177.854050 465.456726,177.763123 
	C466.046082,178.232101 466.639221,178.872086 466.557526,179.409515 
	C466.288910,181.176880 465.930878,182.977417 465.203186,184.582016 
	C465.082306,184.848602 461.885284,184.148254 461.893311,183.979675 
	C461.982025,182.117172 462.423401,180.271469 462.997498,178.104523 
z"/>
<path fill="#585669" opacity="1.000000" stroke="none" 
	d="
M372.160645,180.172287 
	C374.572296,184.514053 376.604279,184.979828 380.412231,181.902405 
	C383.125580,181.649963 385.578247,181.499069 388.199829,181.550476 
	C386.213348,184.076340 384.057922,186.399887 381.248047,188.855896 
	C380.061890,189.347656 379.530212,189.706924 378.998505,190.066208 
	C378.998505,190.066208 379.025909,190.008987 379.054260,190.023865 
	C378.105957,190.052246 377.101837,189.921814 376.156860,190.101837 
	C368.119141,191.633072 367.176910,190.787903 367.928772,182.619400 
	C367.953308,182.352600 367.815887,181.941772 367.617188,181.818466 
	C367.401947,181.684875 367.026245,181.809845 366.451965,181.955231 
	C363.790192,181.761856 361.396973,181.435318 358.674072,180.666763 
	C358.516785,177.819672 358.689209,175.414612 359.114777,172.761032 
	C359.923096,170.927139 360.478302,169.341751 361.408386,167.817200 
	C364.546295,168.207504 367.309296,168.536957 370.072327,168.866394 
	C370.485870,170.296951 370.899414,171.727493 371.418427,173.751129 
	C372.058228,175.008713 372.592529,175.673233 372.940460,176.621521 
	C372.556274,177.994293 372.358459,179.083282 372.160645,180.172287 
z"/>
<path fill="#C9DAB6" opacity="1.000000" stroke="none" 
	d="
M359.095642,166.063293 
	C360.891327,163.896896 362.687012,161.730499 364.728577,159.361694 
	C366.849762,160.805954 368.506836,163.580444 371.611359,160.641327 
	C372.069855,162.196747 372.235626,163.497604 372.401398,164.798431 
	C371.963715,165.010773 371.526001,165.223114 370.745239,165.465302 
	C369.965332,164.297424 369.528503,163.099716 369.091675,161.901993 
	C368.498505,162.423706 367.905304,162.945419 367.312134,163.467117 
	C367.312134,164.348419 367.312134,165.229721 367.312134,166.996246 
	C366.433716,165.329407 366.002930,164.511948 365.536743,163.627304 
	C363.910767,164.737808 362.340881,165.810013 360.526001,166.862976 
	C359.885895,166.583588 359.490753,166.323441 359.095642,166.063293 
z"/>
<path fill="#EDAA49" opacity="1.000000" stroke="none" 
	d="
M372.544067,180.109436 
	C372.358459,179.083282 372.556274,177.994293 373.212280,176.392838 
	C375.688904,174.946960 377.707397,174.013550 379.725891,173.080139 
	C380.040588,174.015945 380.355316,174.951736 380.960724,175.984131 
	C378.476776,177.402679 375.702148,178.724640 372.544067,180.109436 
z"/>
<path fill="#EDAA49" opacity="1.000000" stroke="none" 
	d="
M360.770996,166.882202 
	C362.340881,165.810013 363.910767,164.737808 365.536743,163.627304 
	C366.002930,164.511948 366.433716,165.329407 367.312134,166.996246 
	C367.312134,165.229721 367.312134,164.348419 367.312134,163.467117 
	C367.905304,162.945419 368.498505,162.423706 369.091675,161.901993 
	C369.528503,163.099716 369.965332,164.297424 370.638275,165.690155 
	C370.580719,166.671005 370.287048,167.456848 370.032867,168.554550 
	C367.309296,168.536957 364.546295,168.207504 361.367523,167.591507 
	C360.951782,167.304962 360.770996,166.882202 360.770996,166.882202 
z"/>
<path fill="#C54032" opacity="1.000000" stroke="none" 
	d="
M379.759155,172.705170 
	C377.707397,174.013550 375.688904,174.946960 373.398621,176.109070 
	C372.592529,175.673233 372.058228,175.008713 371.564758,174.022858 
	C372.474060,172.068298 373.342529,170.435074 374.769745,167.751114 
	C376.230865,169.083206 378.011627,170.706696 379.759155,172.705170 
z"/>
<path fill="#C54032" opacity="1.000000" stroke="none" 
	d="
M372.838196,164.868103 
	C372.235626,163.497604 372.069855,162.196747 371.924469,160.561340 
	C376.383545,160.249237 380.666504,163.964111 380.315796,167.082962 
	C378.001312,166.377792 375.638153,165.657776 372.838196,164.868103 
z"/>
<path fill="#7A9C44" opacity="1.000000" stroke="none" 
	d="
M360.526001,166.862976 
	C360.770996,166.882202 360.951782,167.304962 360.992645,167.530670 
	C360.478302,169.341751 359.923096,170.927139 358.838745,172.636871 
	C357.131531,172.841873 355.953522,172.922562 354.475830,173.004547 
	C353.577332,172.981537 352.978485,172.957230 352.394470,172.620300 
	C351.237976,170.497284 350.066681,168.686905 348.895386,166.876541 
	C348.895386,166.876541 348.878784,166.488983 348.910492,166.298553 
	C352.058289,166.040543 355.174347,165.972961 358.693054,165.984344 
	C359.490753,166.323441 359.885895,166.583588 360.526001,166.862976 
z"/>
<path fill="#C54032" opacity="1.000000" stroke="none" 
	d="
M343.910248,180.794342 
	C343.481903,179.354721 343.372345,177.964050 343.691284,176.185486 
	C345.747223,176.246216 347.374573,176.694839 349.188202,177.463486 
	C349.601135,179.448151 349.827789,181.112808 350.054474,182.777466 
	C348.112640,182.132751 346.170837,181.488037 343.910248,180.794342 
z"/>
<path fill="#C9DAB6" opacity="1.000000" stroke="none" 
	d="
M350.368347,182.866150 
	C349.827789,181.112808 349.601135,179.448151 349.263611,177.066498 
	C350.228394,175.210648 351.304016,174.071793 352.379669,172.932922 
	C352.978485,172.957230 353.577332,172.981537 354.729187,173.201721 
	C351.687317,175.746887 351.664398,179.320435 351.991669,183.008911 
	C351.996429,183.005447 351.981201,183.023361 351.981201,183.023361 
	C351.548218,183.000519 351.115204,182.977676 350.368347,182.866150 
z"/>
<path fill="#C9DAB6" opacity="1.000000" stroke="none" 
	d="
M353.000305,183.049942 
	C352.980652,183.455566 352.960999,183.861191 352.976135,184.568542 
	C352.721710,184.431671 352.432465,183.993073 352.062225,183.288910 
	C351.981201,183.023361 351.996429,183.005447 352.244568,183.030426 
	C352.661896,183.053604 352.831085,183.051773 353.000305,183.049942 
z"/>
<path fill="#EDAA49" opacity="1.000000" stroke="none" 
	d="
M353.328461,182.929535 
	C352.831085,183.051773 352.661896,183.053604 352.239807,183.033905 
	C351.664398,179.320435 351.687317,175.746887 355.028870,173.200409 
	C355.953522,172.922562 357.131531,172.841873 358.585632,172.885376 
	C358.689209,175.414612 358.516785,177.819672 358.287140,180.613647 
	C356.705475,181.604721 355.181061,182.206924 353.328461,182.929535 
z"/>
<path fill="#313042" opacity="1.000000" stroke="none" 
	d="
M379.326324,190.049561 
	C379.530212,189.706924 380.061890,189.347656 380.946442,188.993408 
	C380.750916,189.343277 380.202515,189.688095 379.326324,190.049561 
z"/>
<path fill="#EDAA49" opacity="1.000000" stroke="none" 
	d="
M352.394470,172.620300 
	C351.304016,174.071793 350.228394,175.210648 349.077332,176.746490 
	C347.374573,176.694839 345.747223,176.246216 343.763275,175.764221 
	C345.039948,172.898926 346.673157,170.067001 348.600891,167.055801 
	C350.066681,168.686905 351.237976,170.497284 352.394470,172.620300 
z"/>
<path fill="#C54032" opacity="1.000000" stroke="none" 
	d="
M385.606049,298.056000 
	C384.644501,303.112885 381.396637,305.847626 376.488129,304.929443 
	C368.998962,303.528534 361.289276,302.139252 354.427246,299.062988 
	C351.169220,297.602478 349.653412,292.255615 347.538422,288.093384 
	C350.773956,285.004272 350.824707,282.115326 348.801483,278.966125 
	C348.801483,278.966125 348.896912,278.601715 349.288696,278.339264 
	C354.569153,274.808899 359.475464,271.566437 364.313171,268.224731 
	C364.698914,267.958282 364.610809,267.005859 364.742920,266.372223 
	C371.643219,267.047607 376.776642,270.232544 379.588562,276.763947 
	C380.366364,278.570557 381.242126,280.334991 381.936951,282.737305 
	C381.395447,284.004669 380.989868,284.653534 380.584320,285.302368 
	C385.040558,287.238342 383.749939,291.259033 384.120087,294.742310 
	C384.241699,295.886597 385.090027,296.953644 385.606049,298.056000 
M358.816467,275.615051 
	C356.250549,278.850586 356.955017,281.350189 361.081451,283.688416 
	C361.981171,282.146149 362.880859,280.603882 363.942596,278.783905 
	C362.506317,277.684784 360.987335,276.522369 358.816467,275.615051 
z"/>
<path fill="#7A9C44" opacity="1.000000" stroke="none" 
	d="
M364.740112,266.015503 
	C364.610809,267.005859 364.698914,267.958282 364.313171,268.224731 
	C359.475464,271.566437 354.569153,274.808899 349.309082,278.152008 
	C344.155426,275.482574 343.317047,271.617493 346.046570,266.943481 
	C347.737885,267.298126 349.785797,267.727539 352.169891,268.227448 
	C352.063629,266.433502 351.971130,264.872131 351.837585,262.617462 
	C353.028198,264.106964 353.869263,265.159119 354.945740,266.505768 
	C357.575500,264.071808 359.951904,261.872345 363.498413,258.589905 
	C364.014038,261.532013 364.375641,263.595398 364.740112,266.015503 
z"/>
<path fill="#EDAA49" opacity="1.000000" stroke="none" 
	d="
M348.442871,278.981293 
	C350.824707,282.115326 350.773956,285.004272 347.450348,287.727173 
	C346.338501,288.368622 345.504791,288.800415 344.670654,289.231323 
	C342.330994,284.659149 342.401520,280.891693 348.442871,278.981293 
z"/>
<path fill="#EA7631" opacity="1.000000" stroke="none" 
	d="
M385.752228,297.697906 
	C385.090027,296.953644 384.241699,295.886597 384.120087,294.742310 
	C383.749939,291.259033 385.040558,287.238342 380.584320,285.302368 
	C380.989868,284.653534 381.395447,284.004669 382.010986,283.092224 
	C383.446777,287.665649 384.672607,292.502747 385.752228,297.697906 
z"/>
<path fill="#EA7631" opacity="1.000000" stroke="none" 
	d="
M359.142395,275.487518 
	C360.987335,276.522369 362.506317,277.684784 363.942596,278.783905 
	C362.880859,280.603882 361.981171,282.146149 361.087280,283.690857 
	C356.955017,281.350189 356.250549,278.850586 359.142395,275.487518 
z"/>
</svg>