<svg version="1.1" id="Layer_1" xmlns="http://www.w3.org/2000/svg" xmlns:xlink="http://www.w3.org/1999/xlink" x="0px" y="0px"
	 width="100%" viewBox="0 0 601 461" enable-background="new 0 0 601 461" xml:space="preserve">
<path fill="#FFFFFF" opacity="1.000000" stroke="none" 
	d="
M313.000000,462.000000 
	C208.691101,462.000000 104.882187,462.000000 1.036642,462.000000 
	C1.036642,308.393921 1.036642,154.787827 1.036642,1.090869 
	C201.225586,1.090869 401.451233,1.090869 601.838440,1.090869 
	C601.838440,154.666534 601.838440,308.333252 601.838440,462.000000 
	C505.787811,462.000000 409.643890,462.000000 313.000000,462.000000 
M318.195557,300.976135 
	C317.003326,302.286133 315.811096,303.596100 313.951050,305.639893 
	C313.951050,306.612488 313.951050,308.752228 313.235260,311.022308 
	C303.465668,307.564056 298.374207,298.753906 299.308838,288.437408 
	C299.826202,282.726349 299.757629,276.784088 298.766876,271.154816 
	C297.142548,261.925934 290.523743,257.090210 281.081024,257.069611 
	C273.438110,257.052979 265.787750,257.252136 258.156738,256.950562 
	C255.928497,256.862488 253.402603,255.837463 251.627991,254.453506 
	C247.579147,251.296005 243.980865,247.568481 240.066162,244.228897 
	C236.750656,241.400467 233.368988,241.578934 232.413391,245.151886 
	C231.130875,249.947128 227.921585,251.011932 223.956451,252.016617 
	C221.757797,252.573685 219.749420,253.881653 217.023300,254.319931 
	C216.791672,253.367584 216.524887,252.422226 216.334167,251.461746 
	C215.115997,245.327332 211.575211,242.162628 206.794800,242.957977 
	C202.337982,243.699493 199.217865,248.512039 199.763977,253.973587 
	C200.258942,258.923615 202.543655,262.382233 207.609161,263.781158 
	C204.299042,269.212677 203.147278,275.030487 204.110229,280.861115 
	C208.006653,281.812408 211.476990,282.659668 215.865158,283.730988 
	C192.811005,302.546967 194.048035,341.395477 229.691727,353.829865 
	C213.458984,353.829865 197.738983,353.829865 181.992691,353.103088 
	C182.731598,351.459412 183.387375,349.772125 184.222549,348.178925 
	C190.980286,335.287262 197.063049,322.128632 195.921371,307.084106 
	C194.915451,293.828278 190.088486,282.508942 177.351929,276.272583 
	C176.163376,275.690643 173.277985,276.332642 172.562958,277.364441 
	C163.240143,290.817352 160.302032,305.823120 162.469208,321.920319 
	C164.091080,333.967072 169.730743,344.216217 176.186234,353.896942 
	C175.474152,353.845764 174.762070,353.794586 173.760376,353.152374 
	C173.482452,352.737610 173.213257,352.316681 172.925339,351.908966 
	C155.827316,327.698395 154.772446,302.827637 169.821411,277.274200 
	C170.297226,276.466278 170.505280,275.500671 170.842880,274.595947 
	C154.032486,269.216797 132.391312,284.525696 136.273468,309.453918 
	C134.578903,307.110504 132.961212,304.673553 131.906418,302.013428 
	C126.972275,289.569946 129.600220,277.175079 132.575653,264.867706 
	C135.195389,254.031586 137.697311,243.253738 137.091080,231.939728 
	C136.355865,218.218369 126.187370,206.232407 112.807060,204.526260 
	C109.866936,211.578445 106.621529,218.683426 103.913055,225.987518 
	C95.966217,247.418076 91.968407,269.611786 94.141914,292.410095 
	C96.703133,319.275116 112.110191,337.080139 136.237366,347.889679 
	C141.060898,350.050751 146.042313,351.859406 150.088562,353.912872 
	C148.071091,353.860565 146.053619,353.808289 143.572998,353.236572 
	C141.708694,352.529877 139.821991,351.876770 137.983536,351.108276 
	C118.465508,342.949677 103.016586,330.392731 95.647011,309.950775 
	C91.148788,297.473450 90.481079,284.483704 91.762070,271.165924 
	C93.283089,255.352661 96.247711,239.982986 101.846794,225.144867 
	C104.578430,217.905762 107.639214,210.790863 110.606033,203.484222 
	C105.232918,203.484222 100.008362,202.766403 95.053856,203.618622 
	C80.115173,206.188171 70.093071,215.724503 63.271488,228.591766 
	C51.464588,250.862564 49.572083,274.422729 55.794025,298.663177 
	C61.926632,322.555603 75.387604,340.596375 98.392609,350.786133 
	C100.316261,351.638214 102.101105,352.803680 103.023293,353.912354 
	C84.896683,353.912354 66.770073,353.912354 48.643463,353.912354 
	C48.646042,354.286835 48.648624,354.661346 48.651207,355.035828 
	C137.100937,355.035828 225.550674,355.035828 314.550720,355.672394 
	C344.573883,355.736023 374.597015,355.801758 404.620209,355.844116 
	C405.084656,355.844788 405.549500,355.557831 406.868378,355.465698 
	C409.839355,355.445282 412.810303,355.424835 416.687561,355.768829 
	C459.465668,355.810211 502.243744,355.857361 545.021851,355.863495 
	C546.227112,355.863678 547.432373,355.426300 548.637695,355.192993 
	C548.572693,354.737549 548.507690,354.282104 548.442688,353.826660 
	C528.657471,353.826660 508.872284,353.826660 489.378662,353.245728 
	C499.781860,345.639771 502.495178,330.662720 495.305939,320.527863 
	C491.982330,315.842438 486.925659,314.180908 481.871155,316.113464 
	C477.630920,317.734680 476.105438,321.215546 477.094910,327.382385 
	C477.408997,329.340027 478.302277,331.225983 478.459229,333.182587 
	C478.696655,336.142120 478.521210,339.134735 478.521210,342.113312 
	C476.215179,336.331787 473.265381,333.474823 469.255096,334.094788 
	C463.863220,334.928284 460.333191,339.384583 461.238464,344.787903 
	C461.753723,347.863159 462.996582,350.816498 462.988708,353.904938 
	C450.461914,353.911438 437.934967,353.950684 425.408600,353.881317 
	C423.910736,353.873016 422.416199,353.274170 421.636902,352.832733 
	C438.217163,346.820831 445.344849,332.207092 444.512451,319.463837 
	C443.373199,302.022980 432.435883,290.207062 415.567352,287.535767 
	C410.522797,286.736908 405.244751,287.412384 400.230865,287.412384 
	C400.816650,282.336243 401.453339,276.819031 402.146210,270.815063 
	C413.573547,270.815063 424.984650,270.815063 436.610321,270.815063 
	C436.236786,263.478546 432.865479,258.297028 427.563293,254.466797 
	C418.799438,248.135941 409.329163,248.478455 399.514618,252.810699 
	C397.317902,241.732803 392.567963,232.659836 383.572296,225.411652 
	C383.973083,215.846039 378.023895,209.210724 373.256348,201.828735 
	C367.829468,204.319885 362.973999,206.885132 357.869446,208.778885 
	C354.198639,210.140701 353.697906,211.859879 354.771179,215.457336 
	C359.304840,230.653275 361.683655,246.182953 361.165833,262.104858 
	C360.990082,267.508911 361.137939,272.923553 361.137939,278.719604 
	C365.034790,279.487579 369.407471,280.349335 373.619568,281.857910 
	C372.124451,284.784088 370.902191,287.892975 369.086639,290.604614 
	C361.480042,301.965424 351.615143,310.153534 337.455597,311.346741 
	C337.247253,310.278687 337.038910,309.210632 336.829071,308.134949 
	C338.642212,307.781525 340.170105,307.483734 341.689972,307.187469 
	C340.351074,299.755005 338.153473,298.329559 327.893555,297.080170 
	C328.558411,291.969360 329.223297,286.858551 330.253937,281.168121 
	C335.397888,269.856445 340.712585,258.618164 345.616486,247.203369 
	C348.221588,241.139450 345.897949,235.264221 339.987244,231.918976 
	C333.767761,228.398956 327.081360,225.622971 321.155182,221.684921 
	C312.695068,216.063065 303.639374,213.504272 293.584229,213.192139 
	C287.561859,213.005173 281.575500,211.779007 275.157959,214.953659 
	C264.114288,213.597672 253.070648,212.241669 242.597336,210.274673 
	C249.894150,210.162048 257.190796,210.038773 264.487793,209.940109 
	C270.508484,209.858688 271.881531,208.574997 271.903931,202.684113 
	C271.941254,192.878601 271.963409,183.072433 271.879761,173.267471 
	C271.859039,170.836166 271.407806,168.408524 271.177124,165.095123 
	C271.168304,156.961288 271.168304,156.960220 262.856354,156.959351 
	C252.404373,156.958237 241.952408,156.956726 231.500427,156.959869 
	C223.269638,156.962357 222.797043,157.480698 223.158432,166.811615 
	C223.126862,178.884644 223.058350,190.957748 223.080292,203.030685 
	C223.090271,208.517593 224.573105,209.772888 230.273880,209.969284 
	C233.504852,210.080582 236.724457,210.521072 239.216354,210.976151 
	C237.868988,212.492722 235.483276,213.929413 235.359375,215.540115 
	C234.896393,221.558563 235.174271,227.633987 235.174271,233.816635 
	C252.039551,233.816635 267.489594,233.816635 283.674713,233.996414 
	C296.139008,238.034760 308.545074,242.269165 321.100891,245.999496 
	C325.201416,247.217758 325.619141,248.806473 323.956970,252.303741 
	C320.107910,260.402405 316.681976,268.706787 312.683411,276.727814 
	C310.568054,280.971191 311.278503,283.237030 315.906403,285.091339 
	C315.922180,288.904541 315.751282,292.732910 316.059601,296.522278 
	C316.161163,297.770203 317.502380,298.917206 318.195557,300.976135 
M372.256195,157.198792 
	C367.194641,158.889328 362.133087,160.579865 356.670044,161.649231 
	C342.158966,156.399323 327.647888,151.149414 313.096375,145.135605 
	C314.707886,139.532257 314.479095,139.244751 308.636414,137.918762 
	C302.342957,136.490463 295.834900,135.560654 289.876129,133.242203 
	C284.878937,131.297867 282.859314,133.222687 281.062286,137.096085 
	C278.126892,143.423309 278.202698,150.021393 279.696106,156.606079 
	C281.759033,165.701828 282.011749,174.684784 279.071777,183.633820 
	C276.405731,191.749008 276.412842,191.751358 283.566620,196.644241 
	C292.074493,202.463272 300.349579,203.017120 307.090302,197.774994 
	C308.371826,196.778381 309.352844,194.239914 309.100311,192.627777 
	C308.049255,185.917206 306.435455,179.296371 305.112152,172.625961 
	C304.678131,170.438202 303.723572,167.952179 307.799469,166.944214 
	C320.593018,168.973755 333.386536,171.003296 346.201630,173.782959 
	C348.619019,180.602722 351.036407,187.422485 353.660736,194.826035 
	C364.024963,190.890884 374.032379,187.166046 383.959442,183.238235 
	C385.385468,182.674026 386.424194,181.130966 388.161285,179.646851 
	C392.194305,173.528198 392.139374,166.300613 388.018036,160.802185 
	C384.245880,155.769653 377.583496,154.129745 372.256195,157.198792 
M311.054321,94.095985 
	C314.383423,89.591469 314.659546,84.780273 311.749817,80.121925 
	C308.279083,74.565399 302.899445,72.301262 296.438721,72.652191 
	C287.488007,73.138367 280.986145,77.801369 276.120789,85.292274 
	C274.607819,84.249725 273.208923,83.592224 272.211884,82.550201 
	C264.305267,74.286835 255.444702,76.164993 247.737305,80.772209 
	C245.458145,82.134621 243.251831,83.619614 241.021820,85.063416 
	C233.357437,90.025604 225.510773,93.591286 216.577179,87.892303 
	C214.187241,99.494553 222.143250,109.526405 232.575089,107.499336 
	C237.068497,106.626205 241.994736,103.629860 244.955627,100.110184 
	C251.482239,92.351875 258.764587,89.724388 268.294891,93.033455 
	C270.148407,93.677017 272.114746,93.995613 274.224670,94.511978 
	C274.967346,101.502441 278.140289,107.032295 284.879791,109.468002 
	C288.713470,110.853516 292.957855,111.102524 297.708099,111.787041 
	C308.017212,107.313881 311.159576,103.210373 311.054321,94.095985 
z"/>
<path fill="#413F55" opacity="1.000000" stroke="none" 
	d="
M217.655273,254.851166 
	C219.749420,253.881653 221.757797,252.573685 223.956451,252.016617 
	C227.921585,251.011932 231.130875,249.947128 232.413391,245.151886 
	C233.368988,241.578934 236.750656,241.400467 240.066162,244.228897 
	C243.980865,247.568481 247.579147,251.296005 251.627991,254.453506 
	C253.402603,255.837463 255.928497,256.862488 258.156738,256.950562 
	C265.787750,257.252136 273.438110,257.052979 281.081024,257.069611 
	C290.523743,257.090210 297.142548,261.925934 298.766876,271.154816 
	C299.757629,276.784088 299.826202,282.726349 299.308838,288.437408 
	C298.374207,298.753906 303.465668,307.564056 313.690094,311.350586 
	C321.895874,314.617188 329.702209,314.776459 337.564148,312.145477 
	C351.615143,310.153534 361.480042,301.965424 369.086639,290.604614 
	C370.902191,287.892975 372.124451,284.784088 373.878906,281.175232 
	C377.079102,272.009705 378.400757,263.270508 375.928131,254.567810 
	C373.134888,244.736649 369.314209,235.172852 371.097229,223.475906 
	C375.083160,224.363708 379.306824,225.304459 383.530457,226.245209 
	C392.567963,232.659836 397.317902,241.732803 399.514618,252.810699 
	C409.329163,248.478455 418.799438,248.135941 427.563293,254.466797 
	C432.865479,258.297028 436.236786,263.478546 436.610321,270.815063 
	C424.984650,270.815063 413.573547,270.815063 402.146210,270.815063 
	C401.453339,276.819031 400.816650,282.336243 400.230865,287.412384 
	C405.244751,287.412384 410.522797,286.736908 415.567352,287.535767 
	C432.435883,290.207062 443.373199,302.022980 444.512451,319.463837 
	C445.344849,332.207092 438.217163,346.820831 420.928253,352.841370 
	C418.740173,353.701477 417.260742,354.552948 415.781281,355.404419 
	C412.810303,355.424835 409.839355,355.445282 406.276703,355.085663 
	C404.050629,354.196472 402.416260,353.687347 400.462524,353.032227 
	C385.609619,347.431946 378.291534,336.517059 376.718048,320.622284 
	C368.016327,331.254028 357.220581,336.358856 344.562134,336.936768 
	C334.260345,337.407074 323.914246,336.807220 313.590210,336.913971 
	C299.944489,337.054993 287.734833,333.249878 276.968628,323.866821 
	C272.602020,339.299347 262.722382,349.002136 247.982193,354.081451 
	C269.972382,354.081451 291.962555,354.081451 313.980927,354.319244 
	C314.009125,354.557037 314.000397,355.035828 314.000397,355.035828 
	C225.550674,355.035828 137.100937,355.035828 48.651207,355.035828 
	C48.648624,354.661346 48.646042,354.286835 48.643463,353.912354 
	C66.770073,353.912354 84.896683,353.912354 103.950562,353.949097 
	C117.930595,353.909241 130.983368,353.832611 144.036148,353.755981 
	C146.053619,353.808289 148.071091,353.860565 150.982407,353.958801 
	C159.267502,353.917664 166.658737,353.830566 174.049988,353.743408 
	C174.762070,353.794586 175.474152,353.845764 176.963287,353.900757 
	C179.166550,353.879669 180.592773,353.854767 182.018982,353.829865 
	C197.738983,353.829865 213.458984,353.829865 229.691727,353.829865 
	C194.048035,341.395477 192.811005,302.546967 215.865158,283.730988 
	C211.476990,282.659668 208.006653,281.812408 204.110229,280.861115 
	C203.147278,275.030487 204.299042,269.212677 208.105530,263.411194 
	C214.015106,262.959106 214.769806,257.727448 217.655273,254.851166 
M238.632751,324.902557 
	C245.496613,323.865265 249.122665,319.912506 248.450195,314.200531 
	C247.838882,309.008209 243.151154,305.371735 237.816010,305.951111 
	C233.588104,306.410248 230.260681,309.742157 229.653427,314.124664 
	C228.950836,319.195038 231.569687,322.622253 238.632751,324.902557 
M281.416290,297.217651 
	C285.265961,295.883545 287.046722,293.206146 286.231964,289.182343 
	C285.460602,285.372803 282.634247,283.651001 279.032593,283.517700 
	C273.626068,283.317627 268.206696,283.465637 262.155701,283.465637 
	C265.244446,286.943481 268.246643,289.426056 270.066101,292.589020 
	C272.610474,297.012268 275.936676,298.417236 281.416290,297.217651 
M403.154968,324.257812 
	C405.230865,328.006073 408.557892,330.277924 412.537537,328.697937 
	C415.062378,327.695526 418.128052,324.807892 418.465302,322.415344 
	C418.835724,319.787201 417.045471,315.889648 414.896393,314.172699 
	C413.137817,312.767700 409.128479,312.903595 406.724030,313.868805 
	C402.652161,315.503326 402.007690,319.443604 403.154968,324.257812 
z"/>
<path fill="#C9DAB6" opacity="1.000000" stroke="none" 
	d="
M173.905182,353.447906 
	C166.658737,353.830566 159.267502,353.917664 151.413589,353.917664 
	C146.042313,351.859406 141.060898,350.050751 136.237366,347.889679 
	C112.110191,337.080139 96.703133,319.275116 94.141914,292.410095 
	C91.968407,269.611786 95.966217,247.418076 103.913055,225.987518 
	C106.621529,218.683426 109.866936,211.578445 112.807060,204.526260 
	C126.187370,206.232407 136.355865,218.218369 137.091080,231.939728 
	C137.697311,243.253738 135.195389,254.031586 132.575653,264.867706 
	C129.600220,277.175079 126.972275,289.569946 131.906418,302.013428 
	C132.961212,304.673553 134.578903,307.110504 136.273468,309.453918 
	C132.391312,284.525696 154.032486,269.216797 170.842880,274.595947 
	C170.505280,275.500671 170.297226,276.466278 169.821411,277.274200 
	C154.772446,302.827637 155.827316,327.698395 172.925339,351.908966 
	C173.213257,352.316681 173.482452,352.737610 173.905182,353.447906 
z"/>
<path fill="#C9DAB6" opacity="1.000000" stroke="none" 
	d="
M143.804565,353.496277 
	C130.983368,353.832611 117.930595,353.909241 104.414131,353.904724 
	C102.101105,352.803680 100.316261,351.638214 98.392609,350.786133 
	C75.387604,340.596375 61.926632,322.555603 55.794025,298.663177 
	C49.572083,274.422729 51.464588,250.862564 63.271488,228.591766 
	C70.093071,215.724503 80.115173,206.188171 95.053856,203.618622 
	C100.008362,202.766403 105.232918,203.484222 110.606033,203.484222 
	C107.639214,210.790863 104.578430,217.905762 101.846794,225.144867 
	C96.247711,239.982986 93.283089,255.352661 91.762070,271.165924 
	C90.481079,284.483704 91.148788,297.473450 95.647011,309.950775 
	C103.016586,330.392731 118.465508,342.949677 137.983536,351.108276 
	C139.821991,351.876770 141.708694,352.529877 143.804565,353.496277 
z"/>
<path fill="#323143" opacity="1.000000" stroke="none" 
	d="
M275.986603,215.088654 
	C281.575500,211.779007 287.561859,213.005173 293.584229,213.192139 
	C303.639374,213.504272 312.695068,216.063065 321.155182,221.684921 
	C327.081360,225.622971 333.767761,228.398956 339.987244,231.918976 
	C345.897949,235.264221 348.221588,241.139450 345.616486,247.203369 
	C340.712585,258.618164 335.397888,269.856445 329.702087,281.488739 
	C325.269958,285.558350 320.371368,283.626556 315.918457,284.181183 
	C311.278503,283.237030 310.568054,280.971191 312.683411,276.727814 
	C316.681976,268.706787 320.107910,260.402405 323.956970,252.303741 
	C325.619141,248.806473 325.201416,247.217758 321.100891,245.999496 
	C308.545074,242.269165 296.139008,238.034760 283.107117,233.654785 
	C274.765869,228.307007 273.297607,224.223557 275.986603,215.088654 
z"/>
<path fill="#333243" opacity="1.000000" stroke="none" 
	d="
M297.017273,111.863335 
	C292.957855,111.102524 288.713470,110.853516 284.879791,109.468002 
	C278.140289,107.032295 274.967346,101.502441 274.224670,94.511978 
	C272.114746,93.995613 270.148407,93.677017 268.294891,93.033455 
	C258.764587,89.724388 251.482239,92.351875 244.955627,100.110184 
	C241.994736,103.629860 237.068497,106.626205 232.575089,107.499336 
	C222.143250,109.526405 214.187241,99.494553 216.577179,87.892303 
	C225.510773,93.591286 233.357437,90.025604 241.021820,85.063416 
	C243.251831,83.619614 245.458145,82.134621 247.737305,80.772209 
	C255.444702,76.164993 264.305267,74.286835 272.211884,82.550201 
	C273.208923,83.592224 274.607819,84.249725 276.120789,85.292274 
	C280.986145,77.801369 287.488007,73.138367 296.438721,72.652191 
	C302.899445,72.301262 308.279083,74.565399 311.749817,80.121925 
	C314.659546,84.780273 314.383423,89.591469 310.589783,94.575424 
	C308.263519,96.018661 306.502106,97.384552 304.523102,97.878265 
	C294.730011,100.321442 294.261108,100.996346 297.051636,110.400642 
	C297.183685,110.845634 297.035156,111.373863 297.017273,111.863335 
z"/>
<path fill="#CADAB7" opacity="1.000000" stroke="none" 
	d="
M182.005829,353.466492 
	C180.592773,353.854767 179.166550,353.879669 177.316010,353.835144 
	C169.730743,344.216217 164.091080,333.967072 162.469208,321.920319 
	C160.302032,305.823120 163.240143,290.817352 172.562958,277.364441 
	C173.277985,276.332642 176.163376,275.690643 177.351929,276.272583 
	C190.088486,282.508942 194.915451,293.828278 195.921371,307.084106 
	C197.063049,322.128632 190.980286,335.287262 184.222549,348.178925 
	C183.387375,349.772125 182.731598,351.459412 182.005829,353.466492 
z"/>
<path fill="#77A04B" opacity="1.000000" stroke="none" 
	d="
M306.935791,166.858704 
	C303.723572,167.952179 304.678131,170.438202 305.112152,172.625961 
	C306.435455,179.296371 308.049255,185.917206 309.100311,192.627777 
	C309.352844,194.239914 308.371826,196.778381 307.090302,197.774994 
	C300.349579,203.017120 292.074493,202.463272 283.566620,196.644241 
	C276.412842,191.751358 276.405731,191.749008 279.071777,183.633820 
	C282.011749,174.684784 281.759033,165.701828 279.696106,156.606079 
	C278.202698,150.021393 278.126892,143.423309 281.062286,137.096085 
	C282.859314,133.222687 284.878937,131.297867 289.876129,133.242203 
	C295.834900,135.560654 302.342957,136.490463 308.636414,137.918762 
	C314.479095,139.244751 314.707886,139.532257 312.824402,145.757339 
	C311.967926,148.866714 311.383423,151.354355 310.556519,154.122528 
	C309.187988,158.554932 308.061890,162.706818 306.935791,166.858704 
z"/>
<path fill="#CDCDCD" opacity="1.000000" stroke="none" 
	d="
M271.154419,165.979202 
	C271.407806,168.408524 271.859039,170.836166 271.879761,173.267471 
	C271.963409,183.072433 271.941254,192.878601 271.903931,202.684113 
	C271.881531,208.574997 270.508484,209.858688 264.487793,209.940109 
	C257.190796,210.038773 249.894150,210.162048 241.966003,210.638580 
	C240.872849,210.939407 240.411026,210.876343 239.949188,210.813293 
	C236.724457,210.521072 233.504852,210.080582 230.273880,209.969284 
	C224.573105,209.772888 223.090271,208.517593 223.080292,203.030685 
	C223.058350,190.957748 223.126862,178.884644 223.677139,166.384460 
	C239.848709,165.964584 255.501556,165.971893 271.154419,165.979202 
M240.473999,195.984528 
	C245.840576,194.953232 251.214355,193.957748 256.571625,192.880219 
	C261.591827,191.870499 262.618286,190.254791 261.621094,185.195648 
	C261.332977,183.733841 261.114349,182.254745 260.750519,180.812164 
	C259.890228,177.401291 257.985138,175.762283 254.213196,176.621658 
	C249.047791,177.798477 243.835449,178.788620 238.615341,179.698776 
	C235.392242,180.260757 232.830307,181.148117 232.990112,185.186401 
	C233.274963,192.385147 234.960632,195.248413 240.473999,195.984528 
z"/>
<path fill="#77A04C" opacity="1.000000" stroke="none" 
	d="
M383.551392,225.828430 
	C379.306824,225.304459 375.083160,224.363708 371.097229,223.475906 
	C369.314209,235.172852 373.134888,244.736649 375.928131,254.567810 
	C378.400757,263.270508 377.079102,272.009705 373.959229,280.851807 
	C369.407471,280.349335 365.034790,279.487579 361.137939,278.719604 
	C361.137939,272.923553 360.990082,267.508911 361.165833,262.104858 
	C361.683655,246.182953 359.304840,230.653275 354.771179,215.457336 
	C353.697906,211.859879 354.198639,210.140701 357.869446,208.778885 
	C362.973999,206.885132 367.829468,204.319885 373.256348,201.828735 
	C378.023895,209.210724 383.973083,215.846039 383.551392,225.828430 
z"/>
<path fill="#CADBB8" opacity="1.000000" stroke="none" 
	d="
M463.911804,353.824738 
	C462.996582,350.816498 461.753723,347.863159 461.238464,344.787903 
	C460.333191,339.384583 463.863220,334.928284 469.255096,334.094788 
	C473.265381,333.474823 476.215179,336.331787 478.521210,342.113312 
	C478.521210,339.134735 478.696655,336.142120 478.459229,333.182587 
	C478.302277,331.225983 477.408997,329.340027 477.094910,327.382385 
	C476.105438,321.215546 477.630920,317.734680 481.871155,316.113464 
	C486.925659,314.180908 491.982330,315.842438 495.305939,320.527863 
	C502.495178,330.662720 499.781860,345.639771 488.773743,353.574280 
	C480.083130,353.876801 471.997467,353.850769 463.911804,353.824738 
z"/>
<path fill="#77A04C" opacity="1.000000" stroke="none" 
	d="
M239.582764,210.894714 
	C240.411026,210.876343 240.872849,210.939407 241.680847,210.944077 
	C253.070648,212.241669 264.114288,213.597672 275.572266,215.021149 
	C273.297607,224.223557 274.765869,228.307007 282.739624,233.564911 
	C267.489594,233.816635 252.039551,233.816635 235.174271,233.816635 
	C235.174271,227.633987 234.896393,221.558563 235.359375,215.540115 
	C235.483276,213.929413 237.868988,212.492722 239.582764,210.894714 
z"/>
<path fill="#F2BAB9" opacity="1.000000" stroke="none" 
	d="
M307.367615,166.901459 
	C308.061890,162.706818 309.187988,158.554932 310.953735,154.210022 
	C325.989166,157.367493 340.384949,160.717987 355.062805,164.339233 
	C356.617432,164.579330 357.968933,164.815643 359.147552,164.467163 
	C362.454529,163.489365 365.447815,163.692642 367.384766,166.789474 
	C369.373230,169.968750 368.792419,173.019882 365.581665,175.494476 
	C362.825043,175.358765 360.437927,175.285660 357.766541,174.928268 
	C353.714874,174.106934 349.947479,173.569885 346.180084,173.032837 
	C333.386536,171.003296 320.593018,168.973755 307.367615,166.901459 
z"/>
<path fill="#454358" opacity="1.000000" stroke="none" 
	d="
M365.951141,175.557083 
	C368.792419,173.019882 369.373230,169.968750 367.384766,166.789474 
	C365.447815,163.692642 362.454529,163.489365 359.147552,164.467163 
	C357.968933,164.815643 356.617432,164.579330 355.243774,164.100739 
	C355.785645,163.151138 356.428589,162.710754 357.071533,162.270386 
	C362.133087,160.579865 367.194641,158.889328 372.621155,157.558685 
	C372.838165,158.895706 372.791138,159.901138 372.526154,160.845428 
	C370.501770,168.060516 377.841888,181.046707 387.642151,180.040894 
	C386.424194,181.130966 385.385468,182.674026 383.959442,183.238235 
	C374.032379,187.166046 364.024963,190.890884 353.660736,194.826035 
	C351.036407,187.422485 348.619019,180.602722 346.190857,173.407898 
	C349.947479,173.569885 353.714874,174.106934 357.718079,175.257843 
	C356.825470,179.253540 357.812439,182.154007 361.309204,182.605408 
	C364.746460,183.049133 365.949249,180.221375 365.905426,177.031586 
	C365.898682,176.540390 365.934814,176.048599 365.951141,175.557083 
z"/>
<path fill="#B3B3B3" opacity="1.000000" stroke="none" 
	d="
M271.165771,165.537170 
	C255.501556,165.971893 239.848709,165.964584 223.760803,165.915100 
	C222.797043,157.480698 223.269638,156.962357 231.500427,156.959869 
	C241.952408,156.956726 252.404373,156.958237 262.856354,156.959351 
	C271.168304,156.960220 271.168304,156.961288 271.165771,165.537170 
z"/>
<path fill="#759D4C" opacity="1.000000" stroke="none" 
	d="
M387.901733,179.843872 
	C377.841888,181.046707 370.501770,168.060516 372.526154,160.845428 
	C372.791138,159.901138 372.838165,158.895706 372.991669,157.511749 
	C377.583496,154.129745 384.245880,155.769653 388.018036,160.802185 
	C392.139374,166.300613 392.194305,173.528198 387.901733,179.843872 
z"/>
<path fill="#333243" opacity="1.000000" stroke="none" 
	d="
M337.509888,311.746094 
	C329.702209,314.776459 321.895874,314.617188 314.047974,311.285400 
	C313.951050,308.752228 313.951050,306.612488 313.951050,305.639893 
	C315.811096,303.596100 317.003326,302.286133 318.637695,300.553955 
	C322.025879,299.402222 324.971863,298.672607 327.917877,297.942993 
	C338.153473,298.329559 340.351074,299.755005 341.689972,307.187469 
	C340.170105,307.483734 338.642212,307.781525 336.829071,308.134949 
	C337.038910,309.210632 337.247253,310.278687 337.509888,311.746094 
z"/>
<path fill="#C69998" opacity="1.000000" stroke="none" 
	d="
M356.870789,161.959808 
	C356.428589,162.710754 355.785645,163.151138 354.961731,163.829987 
	C340.384949,160.717987 325.989166,157.367493 311.196136,153.929504 
	C311.383423,151.354355 311.967926,148.866714 312.844604,146.139282 
	C327.647888,151.149414 342.158966,156.399323 356.870789,161.959808 
z"/>
<path fill="#77A04C" opacity="1.000000" stroke="none" 
	d="
M217.339294,254.585541 
	C214.769806,257.727448 214.015106,262.959106 208.223297,263.088715 
	C202.543655,262.382233 200.258942,258.923615 199.763977,253.973587 
	C199.217865,248.512039 202.337982,243.699493 206.794800,242.957977 
	C211.575211,242.162628 215.115997,245.327332 216.334167,251.461746 
	C216.524887,252.422226 216.791672,253.367584 217.339294,254.585541 
z"/>
<path fill="#868593" opacity="1.000000" stroke="none" 
	d="
M463.450256,353.864838 
	C471.997467,353.850769 480.083130,353.876801 488.627930,353.864746 
	C508.872284,353.826660 528.657471,353.826660 548.442688,353.826660 
	C548.507690,354.282104 548.572693,354.737549 548.637695,355.192993 
	C547.432373,355.426300 546.227112,355.863678 545.021851,355.863495 
	C502.243744,355.857361 459.465668,355.810211 416.234436,355.586639 
	C417.260742,354.552948 418.740173,353.701477 420.569855,352.899536 
	C422.416199,353.274170 423.910736,353.873016 425.408600,353.881317 
	C437.934967,353.950684 450.461914,353.911438 463.450256,353.864838 
z"/>
<path fill="#F2BAB9" opacity="1.000000" stroke="none" 
	d="
M327.905701,297.511597 
	C324.971863,298.672607 322.025879,299.402222 318.678284,300.121094 
	C317.502380,298.917206 316.161163,297.770203 316.059601,296.522278 
	C315.751282,292.732910 315.922180,288.904541 315.912415,284.636261 
	C320.371368,283.626556 325.269958,285.558350 329.519226,281.778564 
	C329.223297,286.858551 328.558411,291.969360 327.905701,297.511597 
z"/>
<path fill="#868593" opacity="1.000000" stroke="none" 
	d="
M400.781860,353.178192 
	C402.416260,353.687347 404.050629,354.196472 405.849609,355.055359 
	C405.549500,355.557831 405.084656,355.844788 404.620209,355.844116 
	C374.597015,355.801758 344.573883,355.736023 314.275574,355.354126 
	C314.000397,355.035828 314.009125,354.557037 314.449432,354.258972 
	C341.776825,353.951447 368.663971,353.955994 395.550964,353.900269 
	C397.295105,353.896637 399.038239,353.429626 400.781860,353.178192 
z"/>
<path fill="#F2BAB9" opacity="1.000000" stroke="none" 
	d="
M297.362671,111.825188 
	C297.035156,111.373863 297.183685,110.845634 297.051636,110.400642 
	C294.261108,100.996346 294.730011,100.321442 304.523102,97.878265 
	C306.502106,97.384552 308.263519,96.018661 310.444489,94.896515 
	C311.159576,103.210373 308.017212,107.313881 297.362671,111.825188 
z"/>
<path fill="#FCFCFD" opacity="1.000000" stroke="none" 
	d="
M400.462524,353.032227 
	C399.038239,353.429626 397.295105,353.896637 395.550964,353.900269 
	C368.663971,353.955994 341.776825,353.951447 314.421234,354.021179 
	C291.962555,354.081451 269.972382,354.081451 247.982193,354.081451 
	C262.722382,349.002136 272.602020,339.299347 276.968628,323.866821 
	C287.734833,333.249878 299.944489,337.054993 313.590210,336.913971 
	C323.914246,336.807220 334.260345,337.407074 344.562134,336.936768 
	C357.220581,336.358856 368.016327,331.254028 376.718048,320.622284 
	C378.291534,336.517059 385.609619,347.431946 400.462524,353.032227 
z"/>
<path fill="#F9F9F9" opacity="1.000000" stroke="none" 
	d="
M238.242218,324.878052 
	C231.569687,322.622253 228.950836,319.195038 229.653427,314.124664 
	C230.260681,309.742157 233.588104,306.410248 237.816010,305.951111 
	C243.151154,305.371735 247.838882,309.008209 248.450195,314.200531 
	C249.122665,319.912506 245.496613,323.865265 238.242218,324.878052 
z"/>
<path fill="#F6F6F7" opacity="1.000000" stroke="none" 
	d="
M281.036011,297.335449 
	C275.936676,298.417236 272.610474,297.012268 270.066101,292.589020 
	C268.246643,289.426056 265.244446,286.943481 262.155701,283.465637 
	C268.206696,283.465637 273.626068,283.317627 279.032593,283.517700 
	C282.634247,283.651001 285.460602,285.372803 286.231964,289.182343 
	C287.046722,293.206146 285.265961,295.883545 281.036011,297.335449 
z"/>
<path fill="#F9F9F9" opacity="1.000000" stroke="none" 
	d="
M403.039703,323.902527 
	C402.007690,319.443604 402.652161,315.503326 406.724030,313.868805 
	C409.128479,312.903595 413.137817,312.767700 414.896393,314.172699 
	C417.045471,315.889648 418.835724,319.787201 418.465302,322.415344 
	C418.128052,324.807892 415.062378,327.695526 412.537537,328.697937 
	C408.557892,330.277924 405.230865,328.006073 403.039703,323.902527 
z"/>
<path fill="#46445A" opacity="1.000000" stroke="none" 
	d="
M240.051392,196.013519 
	C234.960632,195.248413 233.274963,192.385147 232.990112,185.186401 
	C232.830307,181.148117 235.392242,180.260757 238.615341,179.698776 
	C243.835449,178.788620 249.047791,177.798477 254.213196,176.621658 
	C257.985138,175.762283 259.890228,177.401291 260.750519,180.812164 
	C261.114349,182.254745 261.332977,183.733841 261.621094,185.195648 
	C262.618286,190.254791 261.591827,191.870499 256.571625,192.880219 
	C251.214355,193.957748 245.840576,194.953232 240.051392,196.013519 
M245.424988,182.976990 
	C243.318802,183.492615 241.212616,184.008240 239.106430,184.523849 
	C239.256302,185.139984 239.406174,185.756119 239.556046,186.372253 
	C244.804901,185.325180 250.053757,184.278107 255.302597,183.231033 
	C255.204086,182.620407 255.105591,182.009796 255.007080,181.399170 
	C252.085709,181.890732 249.164352,182.382294 245.424988,182.976990 
z"/>
<path fill="#759D4C" opacity="1.000000" stroke="none" 
	d="
M365.581665,175.494476 
	C365.934814,176.048599 365.898682,176.540390 365.905426,177.031586 
	C365.949249,180.221375 364.746460,183.049133 361.309204,182.605408 
	C357.812439,182.154007 356.825470,179.253540 358.002319,175.542114 
	C360.437927,175.285660 362.825043,175.358765 365.581665,175.494476 
z"/>
<path fill="#DFDFE2" opacity="1.000000" stroke="none" 
	d="
M245.833984,182.925415 
	C249.164352,182.382294 252.085709,181.890732 255.007080,181.399170 
	C255.105591,182.009796 255.204086,182.620407 255.302597,183.231033 
	C250.053757,184.278107 244.804901,185.325180 239.556046,186.372253 
	C239.406174,185.756119 239.256302,185.139984 239.106430,184.523849 
	C241.212616,184.008240 243.318802,183.492615 245.833984,182.925415 
z"/>
</svg>