<svg version="1.1" id="Layer_1" xmlns="http://www.w3.org/2000/svg" xmlns:xlink="http://www.w3.org/1999/xlink" x="0px" y="0px"
	 width="100%" viewBox="0 0 597 526" enable-background="new 0 0 597 526" xml:space="preserve">
<path fill="#FFFFFF" opacity="1.000000" stroke="none" 
	d="
M343.000000,527.000000 
	C228.691986,527.000000 114.883980,527.000000 1.037982,527.000000 
	C1.037982,351.730988 1.037982,176.461990 1.037982,1.096485 
	C199.891373,1.096485 398.782806,1.096485 597.837158,1.096485 
	C597.837158,176.333206 597.837158,351.666595 597.837158,527.000000 
	C513.128601,527.000000 428.314301,527.000000 343.000000,527.000000 
M528.000000,425.000000 
	C528.000000,425.000000 528.007568,424.991730 527.541199,425.184296 
	C527.358154,425.458588 527.175110,425.732880 526.999207,426.000824 
	C526.999207,426.000824 527.005493,425.993652 526.261658,426.065063 
	C522.977234,427.052246 519.699951,428.867004 516.407349,428.895233 
	C490.640137,429.116119 464.869965,428.994293 438.959442,428.053009 
	C438.952698,426.073608 438.946625,424.094238 438.939148,422.114838 
	C438.889832,409.106445 438.840210,396.098053 439.023682,382.241608 
	C439.028687,380.792114 439.033661,379.342590 439.735229,377.501007 
	C444.333130,375.842773 446.039948,372.681244 445.392700,367.790436 
	C444.804657,363.346954 445.056824,358.790558 444.441284,354.352905 
	C443.894287,350.409271 444.996704,347.889862 448.400116,345.659302 
	C454.085602,341.933105 455.016235,338.375305 452.983826,331.951965 
	C451.934387,328.635315 450.957153,325.295837 450.890656,321.913666 
	C463.542694,321.907349 476.195160,321.844452 488.846558,321.932037 
	C492.266937,321.955688 493.073303,320.254425 493.026215,317.252197 
	C492.980652,314.345734 492.912842,311.836517 488.941681,311.994019 
	C485.504456,312.130371 482.057526,312.022369 478.055206,312.022369 
	C478.055206,305.083893 477.876587,298.796692 478.124451,292.526337 
	C478.265503,288.957642 476.955536,287.990662 473.529663,288.033478 
	C462.046356,288.177094 450.559418,288.031036 438.960052,287.334839 
	C438.997894,286.891266 439.035736,286.447662 439.999084,285.925079 
	C452.546844,285.925079 465.094604,285.925079 477.658081,285.925079 
	C477.658081,274.535187 477.658081,264.009491 477.658081,252.918427 
	C464.510345,252.918427 451.755157,252.918427 439.000000,252.231171 
	C439.000427,251.544434 439.000824,250.857697 439.933563,250.074844 
	C452.472900,250.074844 465.012238,250.074844 477.890472,250.074844 
	C478.076477,242.842194 475.993439,237.155930 472.277557,231.864182 
	C471.128052,230.227142 470.686615,228.092926 469.965057,225.393158 
	C468.512177,221.358963 465.449951,219.968201 459.949921,221.184357 
	C455.032959,221.454926 450.001038,221.159668 445.226135,222.129578 
	C438.184692,223.559875 437.059601,225.525803 437.045227,232.626373 
	C437.034882,237.750946 436.993195,242.875458 436.523926,247.999893 
	C436.523926,247.999893 436.081787,247.999435 436.012848,247.065048 
	C436.012848,241.210739 436.012848,235.356430 436.012848,229.020096 
	C429.694885,232.964386 425.509125,242.804276 426.791595,249.985306 
	C429.793152,249.985306 432.894073,249.985306 435.997437,250.757843 
	C435.974609,251.531128 435.951782,252.304428 435.023132,253.048767 
	C432.155304,253.048767 429.287476,253.048767 426.003052,253.048767 
	C426.003052,259.904602 426.003052,265.943054 425.150513,272.070953 
	C423.202057,271.891479 421.241516,271.794861 419.307831,271.513794 
	C416.088379,271.045868 412.850830,269.878693 409.685638,270.071106 
	C405.780731,270.308441 402.876068,272.839050 402.111145,276.873749 
	C401.348328,280.897461 403.478241,283.496338 407.102325,285.858643 
	C406.703217,290.985931 408.710114,295.208069 412.016663,299.694214 
	C412.457001,302.255707 413.188507,304.232117 416.999786,301.830902 
	C419.010345,301.861786 421.020905,301.892670 423.698120,301.920959 
	C424.136169,301.984863 424.574219,302.048767 425.218140,302.494263 
	C425.400391,302.730530 425.634033,302.892944 426.005188,303.832367 
	C426.021118,304.972595 426.037048,306.112793 425.368347,307.171722 
	C424.912872,307.126709 424.457397,307.081696 423.908325,306.365479 
	C422.940552,306.545258 421.972748,306.725037 420.174500,306.987122 
	C418.017853,307.415100 415.861237,307.843079 412.990051,308.123993 
	C411.263885,309.421173 409.537720,310.718353 407.261475,311.653473 
	C406.732208,310.807739 406.262939,309.916779 405.664093,309.123596 
	C401.594238,303.733124 395.336365,301.910706 389.247711,304.308258 
	C383.565674,306.545715 380.293915,312.261658 380.951508,318.802124 
	C381.667786,325.926178 386.763092,329.968689 396.176666,331.745941 
	C395.576996,334.875519 394.977295,338.005127 393.422974,341.394928 
	C387.895233,341.337097 382.367462,341.279266 376.861053,340.256927 
	C376.871613,314.965515 377.045349,289.672607 376.815369,264.383392 
	C376.718292,253.712173 374.387482,243.473831 369.538818,233.737778 
	C364.933960,224.491318 358.668732,216.767517 350.987671,209.363556 
	C350.287964,208.973923 349.588257,208.584290 348.204468,208.026001 
	C344.919098,206.079971 341.686188,204.038208 338.339081,202.204865 
	C325.435638,195.137070 311.442841,194.254089 296.503326,194.802109 
	C295.334808,195.216690 294.166260,195.631287 292.344604,196.339874 
	C290.945557,196.590225 289.546509,196.840576 287.476562,196.793060 
	C282.779907,198.226395 278.015015,199.480301 273.435303,201.221298 
	C272.312958,201.647980 271.796051,203.667328 270.435242,205.318619 
	C267.992737,206.939880 265.550232,208.561142 262.669342,209.594299 
	C258.693878,208.387177 260.515320,211.607117 259.736603,213.620407 
	C258.514374,214.755890 257.292114,215.891388 255.249817,217.011612 
	C251.843491,216.664047 251.835373,218.847717 252.005234,221.900146 
	C250.656097,223.933655 249.306961,225.967148 247.218414,228.010971 
	C243.063324,229.791351 241.687134,232.786469 243.027725,237.736740 
	C242.690811,238.492950 242.353912,239.249146 241.352524,240.091446 
	C240.083710,241.250854 237.720901,242.270233 240.826065,244.773285 
	C239.883606,251.634399 238.153183,258.492096 238.123444,265.357178 
	C237.887009,319.894135 237.973694,374.432495 237.032104,429.013458 
	C195.236084,429.018616 153.439560,429.129425 111.644463,428.935120 
	C103.775475,428.898529 95.912140,427.645813 87.982414,426.288818 
	C87.017044,425.498657 86.051666,424.708527 85.029419,423.334686 
	C84.717743,422.860168 84.406067,422.385651 84.044807,421.280914 
	C84.018585,420.858154 83.992371,420.435394 84.431213,419.679504 
	C83.966629,419.120148 83.502045,418.560791 82.672867,417.246277 
	C82.453369,415.951874 82.041885,414.657532 82.041763,413.363098 
	C82.033409,323.575531 82.057976,233.787964 82.755547,143.990311 
	C83.501526,143.371017 84.247498,142.751724 85.793663,142.049072 
	C86.864609,142.074768 87.935562,142.100449 89.120384,142.772400 
	C90.081161,142.496902 91.041939,142.221420 92.637894,141.660706 
	C93.761070,141.476303 94.884254,141.291901 96.121292,141.757355 
	C96.726768,142.097275 97.332253,142.437195 97.937729,142.777115 
	C98.293045,141.984482 98.648361,141.191849 99.863831,140.186569 
	C105.245239,139.496948 110.626640,138.807312 116.123055,138.765549 
	C116.729309,139.102493 117.335556,139.439438 117.941811,139.776382 
	C118.295769,138.983994 118.649719,138.191589 119.874573,137.192642 
	C125.252380,136.500977 130.630188,135.809326 136.123032,135.765549 
	C136.729294,136.102493 137.335556,136.439438 137.941818,136.776367 
	C138.295792,135.983978 138.649750,135.191589 139.865280,134.193558 
	C145.245789,133.506241 150.626312,132.818924 156.121307,132.776733 
	C157.081772,132.499802 158.042236,132.222870 159.637894,131.660736 
	C160.761078,131.476318 161.884277,131.291901 163.121338,131.757355 
	C163.726807,132.097260 164.332275,132.437180 164.937744,132.777100 
	C165.293060,131.984482 165.648376,131.191849 166.844727,130.189606 
	C169.898758,129.836945 172.952789,129.484283 176.121307,129.776718 
	C177.081772,129.499786 178.042236,129.222870 179.639603,128.665787 
	C180.762207,128.479538 181.884827,128.293274 183.121231,128.756973 
	C183.726669,129.097031 184.332092,129.437073 184.937515,129.777130 
	C185.292908,128.984482 185.648300,128.191849 186.874588,127.192627 
	C192.252380,126.500984 197.630188,125.809334 203.123032,125.765572 
	C203.729294,126.102524 204.335541,126.439468 204.941803,126.776413 
	C205.295776,125.984009 205.649750,125.191597 206.786819,124.201668 
	C207.860367,124.170273 208.933914,124.138870 210.121323,124.757347 
	C210.726791,125.097275 211.332245,125.437195 211.937714,125.777122 
	C212.293045,124.984489 212.648376,124.191856 213.844727,123.189590 
	C216.898758,122.836937 219.952789,122.484283 223.121307,122.776726 
	C224.081772,122.499802 225.042236,122.222870 226.637894,121.660721 
	C227.761078,121.476303 228.884277,121.291885 230.121307,121.757332 
	C230.726776,122.097267 231.332245,122.437195 231.937714,122.777122 
	C232.293045,121.984482 232.648361,121.191849 233.874588,120.192642 
	C239.252380,119.500999 244.630188,118.809357 250.123032,118.765572 
	C250.729294,119.102516 251.335541,119.439461 251.941788,119.776405 
	C252.295761,118.984001 252.649734,118.191589 253.786819,117.201675 
	C254.860367,117.170273 255.933929,117.138878 257.121246,117.757355 
	C257.726746,118.097275 258.332214,118.437195 258.937714,118.777115 
	C259.293060,117.984482 259.648407,117.191849 260.863922,116.186577 
	C266.245300,115.496948 271.626678,114.807327 277.123108,114.765572 
	C277.729340,115.102516 278.335602,115.439461 278.941833,115.776405 
	C279.295807,114.984001 279.649780,114.191597 280.786865,113.201660 
	C281.860413,113.170265 282.933929,113.138870 284.121246,113.757362 
	C284.726746,114.097282 285.332214,114.437195 285.937714,114.777107 
	C286.293060,113.984482 286.648407,113.191849 287.873962,112.185471 
	C290.474243,111.857979 293.106476,111.689285 295.669037,111.174202 
	C304.518158,109.395523 313.277863,109.784637 322.089569,112.624184 
	C323.057678,112.454819 324.025818,112.285454 325.682587,112.096100 
	C326.787567,112.381340 327.892578,112.666588 329.089111,113.622993 
	C330.057068,113.460548 331.025055,113.298103 332.802765,113.132507 
	C338.201050,114.072647 343.599304,115.012794 349.089508,116.624619 
	C350.057526,116.457474 351.025574,116.290321 352.682037,116.098465 
	C353.787201,116.382919 354.892395,116.667374 356.089111,117.622986 
	C357.057068,117.460541 358.025055,117.298096 359.802429,117.132469 
	C365.200806,118.072273 370.599182,119.012077 376.089569,120.624184 
	C377.057678,120.454819 378.025818,120.285446 379.682587,120.096107 
	C380.787567,120.381348 381.892578,120.666595 383.088623,121.621872 
	C384.056519,121.465668 385.024445,121.309464 386.781250,121.149712 
	C389.853180,121.747002 392.925110,122.344292 396.087982,123.615601 
	C397.056519,123.451454 398.025055,123.287315 399.682068,123.098457 
	C400.787231,123.382927 401.892395,123.667397 403.089569,124.624176 
	C404.057678,124.454811 405.025818,124.285454 406.803589,124.124161 
	C412.201569,125.066734 417.599579,126.009308 423.089539,127.624176 
	C424.057678,127.454811 425.025787,127.285446 426.682587,127.096916 
	C427.787506,127.379776 428.892395,127.662643 430.087769,128.616913 
	C431.055969,128.462173 432.024139,128.307434 433.780853,128.154861 
	C436.853088,128.754227 439.925354,129.353577 443.089478,130.624634 
	C444.057526,130.457489 445.025543,130.290344 446.682068,130.098480 
	C447.787231,130.382904 448.892395,130.667343 450.089203,131.623306 
	C451.057281,131.458466 452.025391,131.293625 453.802155,131.137848 
	C459.200623,132.075821 464.599091,133.013794 470.089569,134.624100 
	C471.057678,134.454773 472.025818,134.285431 473.803589,134.124100 
	C479.201569,135.066666 484.599579,136.009247 490.089539,137.624130 
	C491.057678,137.454788 492.025787,137.285446 493.803986,137.124313 
	C499.201843,138.067062 504.599701,139.009811 510.089661,140.624695 
	C511.057770,140.455170 512.025879,140.285629 513.682556,140.096085 
	C514.787537,140.381302 515.892578,140.666534 517.088623,141.621841 
	C518.056519,141.465637 519.024475,141.309448 520.823120,141.156830 
	C524.686829,141.375885 528.550537,141.594925 532.262878,142.759079 
	C532.504089,148.394257 532.952332,154.029327 532.955383,159.664627 
	C533.001282,244.445145 532.988647,329.225677 532.482178,414.391449 
	C532.651672,415.591492 532.821167,416.791565 532.328491,418.098297 
	C532.028992,418.793976 531.729492,419.489685 531.429993,420.185364 
	C531.793884,420.312592 532.157776,420.439819 532.521667,420.567078 
	C532.684265,419.714355 532.846924,418.861664 533.553101,417.533020 
	C533.695435,416.337036 533.837708,415.141052 533.986206,413.014648 
	C533.981140,322.343292 533.976074,231.671967 534.584534,140.707199 
	C541.773071,136.816788 546.167419,130.765366 545.717712,122.631783 
	C545.281860,114.748070 541.552734,108.417740 533.351135,105.605888 
	C493.093048,91.803741 452.861389,77.924377 412.619385,64.075294 
	C381.966705,53.526318 351.349457,42.871979 320.627075,32.529976 
	C314.634338,30.512651 308.632172,27.306057 301.815948,29.673124 
	C270.560791,40.527077 239.304169,51.377419 208.010208,62.118690 
	C165.871567,76.582260 123.660461,90.836723 81.604401,105.535530 
	C77.852325,106.846909 74.108727,110.179710 71.915810,113.577141 
	C65.565796,123.415047 68.872917,133.549606 80.020203,141.915604 
	C80.018295,149.904251 80.014786,157.892883 80.014748,165.881531 
	C80.014412,247.266068 79.979332,328.650665 80.141182,410.034882 
	C80.147797,413.360748 82.008934,416.682953 82.999695,419.999512 
	C82.999695,419.999512 82.993065,419.993591 82.985130,420.602661 
	C83.287827,421.096130 83.590523,421.589600 83.948143,422.671295 
	C84.276077,423.131683 84.604004,423.592102 85.038986,424.716370 
	C86.013428,425.489929 86.987877,426.263489 88.309502,427.661774 
	C91.520134,428.782959 94.726936,430.867737 97.941971,430.880493 
	C144.973038,431.067505 192.005188,430.977997 239.969635,430.966217 
	C265.964813,430.957214 291.959961,430.948181 318.504700,430.975983 
	C318.687286,430.956848 318.869904,430.937744 319.982910,430.938385 
	C338.630554,430.930878 357.278168,430.923370 376.876251,430.999847 
	C384.277222,430.992401 391.678162,430.984955 399.594025,431.497864 
	C402.491119,439.853394 405.444519,448.190033 408.254486,456.574738 
	C409.227661,459.478607 410.634186,461.227631 413.977905,460.931458 
	C414.031006,462.625458 414.084106,464.319489 413.455780,466.336426 
	C406.290405,468.325989 404.563171,470.489532 405.762024,476.685364 
	C412.192902,474.781006 418.580902,472.889343 425.545258,470.982849 
	C425.737152,470.971710 425.929016,470.960602 426.627533,471.128021 
	C426.751892,471.256866 426.876221,471.385712 427.346741,472.120880 
	C427.570648,473.991486 427.794525,475.862061 427.167969,477.861420 
	C419.914307,478.050690 418.208618,479.230835 417.210693,484.816681 
	C423.751587,484.816681 430.271515,484.816681 437.395905,484.816681 
	C436.872009,482.112427 436.446686,479.916931 436.002594,476.908691 
	C436.002625,475.008331 436.002655,473.107971 436.755707,470.991913 
	C437.366089,469.428375 438.464569,467.878571 438.509033,466.299103 
	C438.840057,454.546631 438.961975,442.788269 440.067444,431.034180 
	C464.154633,431.033020 488.242737,431.137482 512.328247,430.936859 
	C516.857849,430.899109 521.377258,429.644379 526.700317,428.984039 
	C530.502075,428.692688 533.250061,427.642487 530.659912,422.547546 
	C530.104248,423.033661 529.548645,423.519775 529.000000,424.000000 
	C529.000000,424.000000 529.006836,423.992462 528.540955,424.185455 
	C528.357849,424.459503 528.174805,424.733551 528.000000,425.000000 
M177.007324,250.843567 
	C176.984314,251.585876 176.961304,252.328201 176.008881,253.059296 
	C162.804886,253.059296 149.600891,253.059296 136.048935,253.059296 
	C136.048935,262.867920 136.201447,271.822815 135.978348,280.768311 
	C135.880981,284.672791 137.187012,286.025330 141.122375,285.963684 
	C152.745575,285.781555 164.373886,285.924408 176.000000,286.647369 
	C175.999634,287.118225 175.999268,287.589111 175.062241,288.096344 
	C162.159302,288.096344 149.256363,288.096344 135.763733,288.096344 
	C135.763733,296.570770 135.763733,304.138306 135.763733,312.044495 
	C132.350571,312.044495 129.517471,312.248962 126.726265,311.994263 
	C122.991280,311.653412 121.741829,313.066284 121.844833,316.808746 
	C121.940407,320.280579 122.767937,321.972107 126.642159,321.955383 
	C152.454636,321.844269 178.268265,321.822327 204.080322,321.974579 
	C208.216248,321.998932 208.044952,319.765778 208.106583,316.907806 
	C208.172363,313.858398 207.882477,311.757355 203.917923,311.977570 
	C198.831482,312.260132 193.717453,312.046265 188.055664,312.046265 
	C188.055664,305.575287 187.729675,299.763885 188.155090,294.007996 
	C188.519196,289.081421 186.744446,287.305420 182.014603,288.085724 
	C181.367767,288.192444 180.685242,288.082794 180.006165,287.361572 
	C180.004456,286.887726 180.002747,286.413849 180.897980,285.903870 
	C183.277298,285.184479 187.598877,287.755951 187.828995,283.660583 
	C188.391281,273.653259 188.012436,263.593018 188.012436,252.961517 
	C184.890350,252.961517 182.445175,252.961517 180.000000,252.289047 
	C180.000366,251.839310 180.000748,251.389557 180.896454,250.903717 
	C183.134460,250.903717 185.372482,250.903717 187.392395,250.903717 
	C189.484604,243.799164 185.913483,238.676239 183.957001,232.425140 
	C182.959290,231.621201 181.961563,230.817261 180.453522,229.800934 
	C179.971100,229.540344 179.488678,229.279755 178.708603,228.535873 
	C178.191406,228.344772 177.674210,228.153671 177.073669,227.226151 
	C173.383133,225.164398 169.692596,223.102646 165.909805,220.370941 
	C164.942093,220.537170 163.974365,220.703415 162.206284,220.952011 
	C161.135300,220.924591 160.064331,220.897186 158.879120,220.224670 
	C157.918625,220.498642 156.958130,220.772614 155.369751,221.113602 
	C154.949890,221.143753 154.530045,221.173889 153.710510,220.622208 
	C152.834167,221.153381 151.957825,221.684570 150.615860,222.707916 
	C144.348434,224.445602 144.520584,231.726059 139.365768,235.060196 
	C138.987122,236.082718 138.608490,237.105225 138.135956,238.945831 
	C137.471680,242.648712 136.807404,246.351608 136.152451,250.002502 
	C149.995193,250.002502 163.498611,250.002502 177.002274,250.057281 
	C177.002274,250.057281 177.028778,250.105270 177.007324,250.843567 
M397.032654,485.989014 
	C402.975891,485.989014 408.919098,485.989014 414.862335,485.989014 
	C414.852783,485.781281 414.843231,485.573517 414.833679,485.365784 
	C407.970123,485.365784 401.106567,485.365784 394.243042,485.365784 
	C394.244293,485.534119 394.245544,485.702484 394.246796,485.870819 
	C394.894989,485.910126 395.543152,485.949432 397.032654,485.989014 
M444.488281,485.011078 
	C442.689148,485.011078 440.890015,485.011078 439.090881,485.011078 
	C439.113983,485.222107 439.137115,485.433136 439.160217,485.644165 
	C442.704895,485.644165 446.249573,485.644165 449.794220,485.644165 
	C449.787842,485.433136 449.781464,485.222107 449.775085,485.011078 
	C448.301544,485.011078 446.828033,485.011078 444.488281,485.011078 
z"/>
<path fill="#C9DAB7" opacity="1.000000" stroke="none" 
	d="
M176.006821,129.131622 
	C172.952789,129.484283 169.898758,129.836945 166.114105,130.209015 
	C164.591476,130.521439 163.799469,130.814468 163.007462,131.107483 
	C161.884277,131.291901 160.761078,131.476318 158.944107,131.787811 
	C157.502487,131.987137 156.754654,132.059387 156.006821,132.131622 
	C150.626312,132.818924 145.245789,133.506241 139.124146,134.211273 
	C137.591339,134.525208 136.799667,134.821442 136.007996,135.117676 
	C130.630188,135.809326 125.252380,136.500977 119.128769,137.210815 
	C117.591331,137.525223 116.799690,137.821457 116.008049,138.117676 
	C110.626640,138.807312 105.245239,139.496948 99.123642,140.207489 
	C97.591446,140.521439 96.799438,140.814453 96.007431,141.107483 
	C94.884254,141.291901 93.761070,141.476303 91.944153,141.787720 
	C90.502441,141.985199 89.754478,142.055664 89.006508,142.126129 
	C87.935562,142.100449 86.864609,142.074768 85.022797,142.031952 
	C83.502327,141.992172 82.752716,141.969498 81.836235,141.710144 
	C81.126518,141.306808 80.583679,141.140137 80.040840,140.973450 
	C68.872917,133.549606 65.565796,123.415047 71.915810,113.577141 
	C74.108727,110.179710 77.852325,106.846909 81.604401,105.535530 
	C123.660461,90.836723 165.871567,76.582260 208.010208,62.118690 
	C239.304169,51.377419 270.560791,40.527077 301.815948,29.673124 
	C308.632172,27.306057 314.634338,30.512651 320.627075,32.529976 
	C351.349457,42.871979 381.966705,53.526318 412.619385,64.075294 
	C452.861389,77.924377 493.093048,91.803741 533.351135,105.605888 
	C541.552734,108.417740 545.281860,114.748070 545.717712,122.631783 
	C546.167419,130.765366 541.773071,136.816788 534.067993,140.935333 
	C533.172424,141.380295 532.793335,141.597137 532.414246,141.813965 
	C528.550537,141.594925 524.686829,141.375885 520.036926,141.092285 
	C518.499695,141.002411 517.748596,140.977081 516.997559,140.951767 
	C515.892578,140.666534 514.787537,140.381302 512.966309,140.053131 
	C511.499237,139.990967 510.748383,139.971756 509.997559,139.952545 
	C504.599701,139.009811 499.201843,138.067062 493.027039,137.067230 
	C491.499268,136.990692 490.748413,136.971252 489.997559,136.951813 
	C484.599579,136.009247 479.201569,135.066666 473.026855,134.067123 
	C471.499268,133.990692 470.748413,133.971237 469.997559,133.951782 
	C464.599091,133.013794 459.200623,132.075821 453.026154,131.077728 
	C451.499298,130.995667 450.748413,130.973709 449.997559,130.951767 
	C448.892395,130.667343 447.787231,130.382904 445.966278,130.053986 
	C444.499512,129.990631 443.748566,129.971786 442.997589,129.952942 
	C439.925354,129.353577 436.853088,128.754227 433.015778,128.091110 
	C431.499573,128.000076 430.748444,127.972794 429.997314,127.945511 
	C428.892395,127.662643 427.787506,127.379776 425.966370,127.053528 
	C424.499268,126.990715 423.748413,126.971298 422.997559,126.951889 
	C417.599579,126.009308 412.201569,125.066734 406.026855,124.067139 
	C404.499268,123.990700 403.748413,123.971283 402.997559,123.951859 
	C401.892395,123.667397 400.787231,123.382927 398.966248,123.053925 
	C397.499268,122.986786 396.748169,122.964180 395.997040,122.941574 
	C392.925110,122.344292 389.853180,121.747002 386.015991,121.088715 
	C384.499695,121.002419 383.748627,120.977127 382.997559,120.951836 
	C381.892578,120.666595 380.787567,120.381348 378.966370,120.053116 
	C377.499268,119.990707 376.748413,119.971298 375.997559,119.951881 
	C370.599182,119.012077 365.200806,118.072273 359.026337,117.076370 
	C357.499359,116.997459 356.748444,116.974640 355.997559,116.951828 
	C354.892395,116.667374 353.787201,116.382919 351.966248,116.053970 
	C350.499512,115.990631 349.748566,115.971786 348.997589,115.952942 
	C343.599304,115.012794 338.201050,114.072647 332.026489,113.076393 
	C330.499359,112.997459 329.748444,112.974640 328.997559,112.951828 
	C327.892578,112.666588 326.787567,112.381340 324.966370,112.053116 
	C323.499268,111.990707 322.748413,111.971298 321.997559,111.951881 
	C313.277863,109.784637 304.518158,109.395523 295.669037,111.174202 
	C293.106476,111.689285 290.474243,111.857979 287.128754,112.206940 
	C285.591522,112.521439 284.799500,112.814461 284.007477,113.107483 
	C282.933929,113.138870 281.860413,113.170265 280.084961,113.215317 
	C278.591400,113.525215 277.799713,113.821457 277.008057,114.117706 
	C271.626678,114.807327 266.245300,115.496948 260.123718,116.207489 
	C258.591522,116.521431 257.799500,116.814453 257.007477,117.107483 
	C255.933929,117.138878 254.860367,117.170273 253.084900,117.215324 
	C251.591324,117.525215 250.799652,117.821465 250.007980,118.117706 
	C244.630188,118.809357 239.252380,119.500999 233.129028,120.210526 
	C231.591476,120.521431 230.799469,120.814461 230.007462,121.107483 
	C228.884277,121.291885 227.761078,121.476303 225.944107,121.787796 
	C224.502487,121.987122 223.754654,122.059380 223.006821,122.131638 
	C219.952789,122.484283 216.898758,122.836937 213.114105,123.209015 
	C211.591476,123.521446 210.799469,123.814468 210.007462,124.107483 
	C208.933914,124.138870 207.860367,124.170273 206.084900,124.215317 
	C204.591324,124.525200 203.799652,124.821442 203.007980,125.117691 
	C197.630188,125.809334 192.252380,126.500984 186.129059,127.210518 
	C184.591476,127.521271 183.799454,127.814133 183.007431,128.106995 
	C181.884827,128.293274 180.762207,128.479538 178.944962,128.790344 
	C177.502487,128.987137 176.754654,129.059387 176.006821,129.131622 
z"/>
<path fill="#C9DAB7" opacity="1.000000" stroke="none" 
	d="
M237.961212,428.970428 
	C237.973694,374.432495 237.887009,319.894135 238.123444,265.357178 
	C238.153183,258.492096 239.883606,251.634399 240.938080,244.048187 
	C241.372421,242.217163 241.694717,241.111267 242.017014,240.005356 
	C242.353912,239.249146 242.690811,238.492950 243.300507,237.189453 
	C245.034805,233.761673 246.496323,230.881165 247.957825,228.000656 
	C249.306961,225.967148 250.656097,223.933655 252.326965,221.388184 
	C253.789093,219.593109 254.929474,218.309982 256.069855,217.026886 
	C257.292114,215.891388 258.514374,214.755890 260.161621,213.215836 
	C261.427002,211.934967 262.267365,211.058685 263.107727,210.182388 
	C265.550232,208.561142 267.992737,206.939880 271.044434,205.017426 
	C277.151550,202.174484 282.649506,199.632706 288.147461,197.090942 
	C289.546509,196.840576 290.945557,196.590225 293.042389,196.199387 
	C294.880707,195.739441 296.021271,195.419983 297.161804,195.100525 
	C311.442841,194.254089 325.435638,195.137070 338.339081,202.204865 
	C341.686188,204.038208 344.919098,206.079971 348.694702,208.352264 
	C349.784210,209.134415 350.383514,209.590286 350.982788,210.046158 
	C358.668732,216.767517 364.933960,224.491318 369.538818,233.737778 
	C374.387482,243.473831 376.718292,253.712173 376.815369,264.383392 
	C377.045349,289.672607 376.871613,314.965515 376.480774,340.823914 
	C371.471069,341.196930 369.622345,343.588837 369.914215,348.008545 
	C370.020905,349.624023 370.059784,351.243988 370.061218,353.334961 
	C369.976349,366.616516 370.097992,379.427429 369.874908,392.232330 
	C369.786743,397.291534 371.854980,399.691345 376.828949,400.294220 
	C376.852509,410.183624 376.847137,419.588928 376.624939,429.168976 
	C376.247314,429.867767 376.086578,430.391815 375.925812,430.915863 
	C357.278168,430.923370 338.630554,430.930878 319.410248,430.771271 
	C318.543427,430.715820 318.249268,430.827484 317.955139,430.939148 
	C291.959961,430.948181 265.964813,430.957214 239.376953,430.708344 
	C238.509903,429.957123 238.235550,429.463776 237.961212,428.970428 
M311.498108,276.892853 
	C304.999481,276.892944 298.492767,277.088684 292.005341,276.819031 
	C288.172699,276.659760 286.698853,277.691833 286.857758,281.796661 
	C287.173309,289.949371 286.950958,298.122894 286.950897,306.287811 
	C286.950867,310.045227 286.950897,313.802643 286.950897,317.611816 
	C301.000519,317.611816 314.228851,317.611816 327.651428,317.611816 
	C327.651428,303.990387 327.651428,290.756012 327.651428,276.892700 
	C322.396454,276.892700 317.446472,276.892700 311.498108,276.892853 
M302.503571,358.997314 
	C310.906097,358.997314 319.308624,358.997314 327.550018,358.997314 
	C327.550018,346.119171 327.550018,334.217499 327.550018,321.965088 
	C314.655518,321.965088 302.182129,321.919678 289.710785,322.058868 
	C288.800354,322.069031 287.129242,323.404907 287.118469,324.143463 
	C286.952240,335.573212 287.002350,347.006073 287.002350,358.997314 
	C292.262512,358.997314 296.883881,358.997314 302.503571,358.997314 
M300.625336,236.006058 
	C296.911316,237.351471 293.073761,238.445450 289.549408,240.176880 
	C288.293549,240.793823 287.110138,242.937103 287.067963,244.417130 
	C286.831451,252.716537 287.040924,261.027588 286.906616,269.331573 
	C286.859406,272.247772 288.083099,273.026031 290.772491,272.981812 
	C297.913818,272.864380 305.058411,272.942993 312.201691,272.943329 
	C317.289703,272.943604 322.377686,272.943390 327.958466,272.943390 
	C327.958466,262.613434 328.005951,253.016129 327.882507,243.421021 
	C327.870605,242.496399 327.015656,241.196945 326.182617,240.728653 
	C318.497040,236.408051 310.415924,233.878052 300.625336,236.006058 
M284.957520,299.499390 
	C284.957520,295.180786 284.957520,290.862213 284.957520,286.543610 
	C284.957520,275.078491 284.957184,275.075226 273.268097,276.347656 
	C272.987549,276.378204 272.738983,276.702301 272.040833,277.198303 
	C272.040833,286.995056 272.040833,297.099609 272.040833,307.204163 
	C272.040863,318.767975 272.041107,318.771027 283.585297,317.795135 
	C283.872223,317.770874 284.136963,317.484283 284.957428,316.994446 
	C284.957428,311.709473 284.957428,306.104095 284.957520,299.499390 
M329.979065,314.263153 
	C329.644043,317.060547 330.882324,317.949493 333.672089,318.035095 
	C342.078186,318.292999 342.075012,318.409363 342.075409,310.475037 
	C342.075867,301.840820 342.075775,293.206573 342.075439,284.572357 
	C342.075134,276.709869 342.072510,276.902130 334.349243,276.808655 
	C330.751404,276.765167 329.858093,278.063080 329.913574,281.435608 
	C330.088318,292.059448 329.977753,302.688019 329.979065,314.263153 
M284.957489,339.500885 
	C284.956268,334.846863 285.114624,330.183594 284.846527,325.544983 
	C284.775665,324.318665 283.501923,322.258057 282.588440,322.145935 
	C279.238342,321.734833 275.807373,321.983063 272.041809,321.983063 
	C272.041809,331.468872 271.995911,340.092133 272.055511,348.714722 
	C272.108643,356.399902 276.811066,360.011322 284.957428,358.205780 
	C284.957428,352.389191 284.957428,346.444611 284.957489,339.500885 
M342.075592,332.524048 
	C342.075256,321.126617 342.074921,321.123260 331.297516,322.159973 
	C331.014099,322.187195 330.757233,322.490082 330.252686,322.816772 
	C330.252686,334.565033 330.252686,346.453857 330.252686,358.285431 
	C337.356201,359.753174 341.984070,356.230560 342.061432,349.480255 
	C342.122375,344.160278 342.075043,338.839050 342.075592,332.524048 
M284.957520,255.547180 
	C284.957520,252.178406 284.957520,248.809631 284.957520,245.440857 
	C276.272949,252.784836 272.114502,261.607178 272.201447,272.677795 
	C276.596863,272.677795 280.481415,272.677795 284.957428,272.677795 
	C284.957428,267.084351 284.957428,261.809021 284.957520,255.547180 
M337.231201,253.354874 
	C335.218140,250.665787 333.205048,247.976700 331.191986,245.287613 
	C330.901764,245.480301 330.611511,245.673004 330.321289,245.865692 
	C330.321289,254.717621 330.321289,263.569550 330.321289,272.980438 
	C333.121063,272.980438 335.593353,272.796539 338.027130,273.024261 
	C341.527557,273.351746 342.750366,271.580719 342.000183,268.602081 
	C340.759247,263.674713 339.109344,258.850372 337.231201,253.354874 
M356.912994,322.250214 
	C356.414886,328.706970 360.236847,332.778656 365.595215,331.418060 
	C369.014709,330.549744 370.975739,328.275574 371.202026,324.739532 
	C371.445618,320.932861 369.509613,318.262451 365.997345,317.270050 
	C362.032654,316.149811 358.887512,317.655334 356.912994,322.250214 
z"/>
<path fill="#333243" opacity="1.000000" stroke="none" 
	d="
M413.962952,460.082764 
	C410.634186,461.227631 409.227661,459.478607 408.254486,456.574738 
	C405.444519,448.190033 402.491119,439.853394 399.363403,430.967010 
	C398.962860,429.929810 398.792938,429.423431 398.535767,428.514496 
	C394.510529,418.901825 397.310333,409.344208 397.322083,399.695190 
	C405.401306,399.347198 413.155579,399.130676 420.907196,399.202332 
	C425.272888,399.242676 427.399170,397.547638 427.181274,393.052429 
	C427.041718,390.173004 427.155121,387.281281 427.155121,384.614410 
	C431.613373,384.030182 435.202057,383.559906 438.790741,383.089661 
	C438.840210,396.098053 438.889832,409.106445 438.939148,422.114838 
	C438.946625,424.094238 438.952698,426.073608 438.954468,428.855774 
	C439.016205,430.116302 439.082855,430.574005 439.149506,431.031738 
	C438.961975,442.788269 438.840057,454.546631 438.509033,466.299103 
	C438.464569,467.878571 437.366089,469.428375 435.932404,471.056824 
	C432.406250,471.252686 429.703430,471.383636 427.000580,471.514557 
	C426.876221,471.385712 426.751892,471.256866 426.322296,470.603149 
	C423.532013,447.546875 421.046936,425.015442 418.455902,401.523071 
	C417.799652,402.599640 417.472656,402.990295 417.300507,403.440247 
	C413.143646,414.304962 410.564880,425.200043 415.923340,436.514038 
	C417.042755,438.877594 417.499298,441.579865 418.084320,444.166077 
	C419.025543,448.326965 419.819397,452.521179 420.360779,456.838623 
	C418.018341,458.011536 415.990662,459.047150 413.962952,460.082764 
z"/>
<path fill="#CADBB8" opacity="1.000000" stroke="none" 
	d="
M180.019241,288.073303 
	C180.685242,288.082794 181.367767,288.192444 182.014603,288.085724 
	C186.744446,287.305420 188.519196,289.081421 188.155090,294.007996 
	C187.729675,299.763885 188.055664,305.575287 188.055664,312.046265 
	C193.717453,312.046265 198.831482,312.260132 203.917923,311.977570 
	C207.882477,311.757355 208.172363,313.858398 208.106583,316.907806 
	C208.044952,319.765778 208.216248,321.998932 204.080322,321.974579 
	C178.268265,321.822327 152.454636,321.844269 126.642159,321.955383 
	C122.767937,321.972107 121.940407,320.280579 121.844833,316.808746 
	C121.741829,313.066284 122.991280,311.653412 126.726265,311.994263 
	C129.517471,312.248962 132.350571,312.044495 135.763733,312.044495 
	C135.763733,304.138306 135.763733,296.570770 135.763733,288.096344 
	C149.256363,288.096344 162.159302,288.096344 175.741974,288.184753 
	C176.682648,288.463715 176.885361,288.703491 177.023392,289.461792 
	C177.016891,297.087341 177.016891,304.243561 177.016891,311.994934 
	C178.233429,311.199066 178.690826,311.041595 178.693039,310.877960 
	C178.791901,303.573578 178.850723,296.268616 179.135193,288.863098 
	C179.650909,288.603699 179.871964,288.373993 180.019241,288.073303 
z"/>
<path fill="#77A04B" opacity="1.000000" stroke="none" 
	d="
M438.907227,382.665649 
	C435.202057,383.559906 431.613373,384.030182 427.155121,384.614410 
	C427.155121,387.281281 427.041718,390.173004 427.181274,393.052429 
	C427.399170,397.547638 425.272888,399.242676 420.907196,399.202332 
	C413.155579,399.130676 405.401306,399.347198 396.868408,399.568481 
	C389.659119,399.732605 383.229584,399.771362 376.800018,399.810120 
	C371.854980,399.691345 369.786743,397.291534 369.874908,392.232330 
	C370.097992,379.427429 369.976349,366.616516 370.520081,353.356323 
	C387.015045,352.900513 402.982727,352.896332 419.106750,353.217102 
	C420.597717,357.201080 423.262939,358.352356 427.012634,358.099030 
	C427.093048,365.179810 427.093048,371.772980 427.093048,378.984802 
	C431.565826,378.576019 435.302246,378.234558 439.038635,377.893097 
	C439.033661,379.342590 439.028687,380.792114 438.907227,382.665649 
M401.199799,359.905640 
	C398.419037,360.428986 395.631409,360.918488 392.858704,361.481476 
	C380.693909,363.951691 380.332306,364.581696 383.145111,376.625580 
	C384.112305,380.766937 386.401672,382.630981 390.692841,381.780304 
	C397.547180,380.421509 404.414856,379.129364 411.262726,377.739227 
	C414.984406,376.983734 416.481476,374.686554 416.067200,370.855133 
	C415.085693,361.777344 413.513123,358.697693 409.382568,358.448822 
	C408.728943,358.409454 408.054901,358.525360 407.404694,358.646759 
	C405.605957,358.982605 403.814819,359.359314 401.199799,359.905640 
z"/>
<path fill="#333243" opacity="1.000000" stroke="none" 
	d="
M439.386932,377.697052 
	C435.302246,378.234558 431.565826,378.576019 427.093048,378.984802 
	C427.093048,371.772980 427.093048,365.179810 427.242126,357.865173 
	C428.968781,355.175995 433.111450,355.491241 431.875916,350.895416 
	C431.024750,347.729248 429.114441,347.997833 427.028534,347.267273 
	C427.004364,343.782745 425.485443,342.238434 422.344574,341.933746 
	C421.053253,341.808502 419.834564,340.934052 418.653839,340.022583 
	C421.210052,329.545624 423.695251,319.446503 426.586243,309.235474 
	C435.828125,311.287720 446.631927,309.934906 449.947327,321.966644 
	C450.957153,325.295837 451.934387,328.635315 452.983826,331.951965 
	C455.016235,338.375305 454.085602,341.933105 448.400116,345.659302 
	C444.996704,347.889862 443.894287,350.409271 444.441284,354.352905 
	C445.056824,358.790558 444.804657,363.346954 445.392700,367.790436 
	C446.039948,372.681244 444.333130,375.842773 439.386932,377.697052 
z"/>
<path fill="#CADBB8" opacity="1.000000" stroke="none" 
	d="
M450.419006,321.940155 
	C446.631927,309.934906 435.828125,311.287720 426.540222,308.886658 
	C426.076630,308.184143 426.064819,307.718597 426.052979,307.253021 
	C426.037048,306.112793 426.021118,304.972595 425.992310,303.150574 
	C425.995087,302.297241 426.010773,302.125732 426.355194,301.815643 
	C430.123383,299.355591 433.562805,297.034119 437.002533,295.199493 
	C437.002838,299.786957 437.002838,303.887604 437.002838,307.988220 
	C437.198944,307.983368 437.395050,307.978485 437.591156,307.973633 
	C437.591156,303.388000 437.591156,298.802368 437.592651,293.863770 
	C438.087372,291.672516 438.580627,289.834167 439.073883,287.995850 
	C450.559418,288.031036 462.046356,288.177094 473.529663,288.033478 
	C476.955536,287.990662 478.265503,288.957642 478.124451,292.526337 
	C477.876587,298.796692 478.055206,305.083893 478.055206,312.022369 
	C482.057526,312.022369 485.504456,312.130371 488.941681,311.994019 
	C492.912842,311.836517 492.980652,314.345734 493.026215,317.252197 
	C493.073303,320.254425 492.266937,321.955688 488.846558,321.932037 
	C476.195160,321.844452 463.542694,321.907349 450.419006,321.940155 
z"/>
<path fill="#C9DAB7" opacity="1.000000" stroke="none" 
	d="
M176.000198,285.940094 
	C164.373886,285.924408 152.745575,285.781555 141.122375,285.963684 
	C137.187012,286.025330 135.880981,284.672791 135.978348,280.768311 
	C136.201447,271.822815 136.048935,262.867920 136.048935,253.059296 
	C149.600891,253.059296 162.804886,253.059296 176.462112,253.052292 
	C176.915344,253.045288 176.918289,253.081635 176.943222,253.542145 
	C176.914825,264.635345 176.861496,275.268005 176.605560,285.897797 
	C176.402939,285.894928 176.000198,285.940094 176.000198,285.940094 
z"/>
<path fill="#CADBB8" opacity="1.000000" stroke="none" 
	d="
M439.000000,252.918427 
	C451.755157,252.918427 464.510345,252.918427 477.658081,252.918427 
	C477.658081,264.009491 477.658081,274.535187 477.658081,285.925079 
	C465.094604,285.925079 452.546844,285.925079 439.451660,285.598602 
	C437.959320,282.844482 437.014404,280.416809 436.382111,277.708557 
	C436.843109,269.303192 436.991516,261.178406 437.450928,253.046677 
	C438.174652,252.999298 438.587311,252.958862 439.000000,252.918427 
z"/>
<path fill="#C9DAB7" opacity="1.000000" stroke="none" 
	d="
M436.965454,248.000000 
	C436.993195,242.875458 437.034882,237.750946 437.045227,232.626373 
	C437.059601,225.525803 438.184692,223.559875 445.226135,222.129578 
	C450.001038,221.159668 455.032959,221.454926 460.651276,221.448792 
	C464.208740,223.204269 467.064850,224.695312 469.920959,226.186340 
	C470.686615,228.092926 471.128052,230.227142 472.277557,231.864182 
	C475.993439,237.155930 478.076477,242.842194 477.890472,250.074844 
	C465.012238,250.074844 452.472900,250.074844 439.149780,250.030090 
	C437.899109,249.323563 437.432281,248.661789 436.965454,248.000000 
z"/>
<path fill="#C9DAB7" opacity="1.000000" stroke="none" 
	d="
M140.036621,234.998840 
	C144.520584,231.726059 144.348434,224.445602 151.175919,222.418640 
	C152.527374,221.820923 153.318771,221.512466 154.110184,221.204041 
	C154.530045,221.173889 154.949890,221.143753 156.059540,221.089264 
	C157.497345,220.999878 158.245346,220.934814 158.993347,220.869766 
	C160.064331,220.897186 161.135300,220.924591 162.978333,220.962921 
	C164.500931,220.996185 165.251511,221.018539 166.002075,221.040878 
	C169.692596,223.102646 173.383133,225.164398 177.060516,228.064178 
	C177.032227,235.935654 177.017120,242.969070 177.002014,250.002502 
	C163.498611,250.002502 149.995193,250.002502 136.152451,250.002502 
	C136.807404,246.351608 137.471680,242.648712 138.434082,238.352798 
	C139.166992,236.839462 139.601807,235.919144 140.036621,234.998840 
z"/>
<path fill="#333243" opacity="1.000000" stroke="none" 
	d="
M436.069519,277.989136 
	C437.014404,280.416809 437.959320,282.844482 438.988892,285.638123 
	C439.035736,286.447662 438.997894,286.891266 439.016968,287.665344 
	C438.580627,289.834167 438.087372,291.672516 437.403046,293.934509 
	C437.211975,294.358154 437.002228,294.712646 437.002228,294.712646 
	C433.562805,297.034119 430.123383,299.355591 426.086304,301.757324 
	C425.329895,301.929291 425.171082,302.020966 425.012268,302.112671 
	C424.574219,302.048767 424.136169,301.984863 423.128510,301.682892 
	C418.728424,299.221344 417.040009,296.429596 419.470734,292.012848 
	C420.318085,290.473145 421.203979,287.552551 420.498291,286.855042 
	C419.072754,285.445953 416.616211,284.701385 414.498962,284.470459 
	C412.079071,284.206482 409.565735,284.799255 407.092987,285.019745 
	C403.478241,283.496338 401.348328,280.897461 402.111145,276.873749 
	C402.876068,272.839050 405.780731,270.308441 409.685638,270.071106 
	C412.850830,269.878693 416.088379,271.045868 419.307831,271.513794 
	C421.241516,271.794861 423.202057,271.891479 425.902679,272.176453 
	C429.679901,273.961823 432.704926,275.641663 435.781067,277.505554 
	C435.832153,277.689575 436.069519,277.989136 436.069519,277.989136 
z"/>
<path fill="#434255" opacity="1.000000" stroke="none" 
	d="
M418.582855,340.400391 
	C419.834564,340.934052 421.053253,341.808502 422.344574,341.933746 
	C425.485443,342.238434 427.004364,343.782745 426.678894,347.224121 
	C421.642731,346.251343 419.805084,348.891632 418.950378,352.892181 
	C402.982727,352.896332 387.015045,352.900513 370.588501,352.883301 
	C370.059784,351.243988 370.020905,349.624023 369.914215,348.008545 
	C369.622345,343.588837 371.471069,341.196930 376.470123,341.306152 
	C382.367462,341.279266 387.895233,341.337097 394.253540,341.426086 
	C399.615204,341.344391 404.146271,341.231476 409.139648,341.216858 
	C412.595581,341.010223 415.589233,340.705322 418.582855,340.400391 
z"/>
<path fill="#DFDFDF" opacity="1.000000" stroke="none" 
	d="
M80.030518,141.444519 
	C80.583679,141.140137 81.126518,141.306808 81.841995,142.053314 
	C82.036354,143.088882 82.058067,143.544647 82.079773,144.000397 
	C82.057976,233.787964 82.033409,323.575531 82.041763,413.363098 
	C82.041885,414.657532 82.453369,415.951874 82.849426,417.958069 
	C83.019348,419.115509 83.012703,419.561188 83.006050,420.006866 
	C82.008934,416.682953 80.147797,413.360748 80.141182,410.034882 
	C79.979332,328.650665 80.014412,247.266068 80.014748,165.881531 
	C80.014786,157.892883 80.018295,149.904251 80.030518,141.444519 
z"/>
<path fill="#77A04B" opacity="1.000000" stroke="none" 
	d="
M396.244629,330.935333 
	C386.763092,329.968689 381.667786,325.926178 380.951508,318.802124 
	C380.293915,312.261658 383.565674,306.545715 389.247711,304.308258 
	C395.336365,301.910706 401.594238,303.733124 405.664093,309.123596 
	C406.262939,309.916779 406.732208,310.807739 407.573547,312.272491 
	C408.199371,323.550018 406.138184,326.744904 396.244629,330.935333 
M396.871552,313.446747 
	C395.645721,314.972076 394.419861,316.497406 393.751068,317.329620 
	C391.408020,317.329620 389.814240,317.329620 388.220459,317.329620 
	C389.281250,318.784332 390.086182,320.637787 391.498810,321.544189 
	C392.345612,322.087555 394.554688,321.595459 395.425232,320.786865 
	C397.215424,319.124115 398.650787,317.019867 399.965973,314.929779 
	C400.640991,313.857056 400.743011,312.423798 401.103973,311.153442 
	C399.813904,311.724121 398.523865,312.294800 396.871552,313.446747 
z"/>
<path fill="#F2F2F3" opacity="1.000000" stroke="none" 
	d="
M420.675507,456.701294 
	C419.819397,452.521179 419.025543,448.326965 418.084320,444.166077 
	C417.499298,441.579865 417.042755,438.877594 415.923340,436.514038 
	C410.564880,425.200043 413.143646,414.304962 417.300507,403.440247 
	C417.472656,402.990295 417.799652,402.599640 418.455902,401.523071 
	C421.046936,425.015442 423.532013,447.546875 426.068970,470.513916 
	C425.929016,470.960602 425.737152,470.971710 425.093018,470.663147 
	C423.415619,468.364502 422.190491,466.385498 420.960449,463.920105 
	C420.862183,461.189545 420.768829,458.945404 420.675507,456.701294 
z"/>
<path fill="#C9C9C9" opacity="1.000000" stroke="none" 
	d="
M418.653839,340.022583 
	C415.589233,340.705322 412.595581,341.010223 409.205231,340.780762 
	C410.619385,332.732635 412.382477,325.206848 414.263458,317.710663 
	C415.076965,314.468658 417.388397,311.216370 413.704590,308.271057 
	C415.861237,307.843079 418.017853,307.415100 420.962524,306.989502 
	C422.500977,307.006775 423.251465,307.021729 424.001923,307.036682 
	C424.457397,307.081696 424.912872,307.126709 425.710663,307.212372 
	C426.064819,307.718597 426.076630,308.184143 426.134460,308.998535 
	C423.695251,319.446503 421.210052,329.545624 418.653839,340.022583 
z"/>
<path fill="#333243" opacity="1.000000" stroke="none" 
	d="
M413.347321,308.197510 
	C417.388397,311.216370 415.076965,314.468658 414.263458,317.710663 
	C412.382477,325.206848 410.619385,332.732635 408.742920,340.682495 
	C404.146271,341.231476 399.615204,341.344391 394.730896,341.295990 
	C394.977295,338.005127 395.576996,334.875519 396.210632,331.340637 
	C406.138184,326.744904 408.199371,323.550018 407.848572,312.453522 
	C409.537720,310.718353 411.263885,309.421173 413.347321,308.197510 
z"/>
<path fill="#DFDFDF" opacity="1.000000" stroke="none" 
	d="
M237.496658,428.991943 
	C238.235550,429.463776 238.509903,429.957123 238.910675,430.702393 
	C192.005188,430.977997 144.973038,431.067505 97.941971,430.880493 
	C94.726936,430.867737 91.520134,428.782959 88.157158,427.328491 
	C88.004814,426.995209 88.046204,426.954254 88.046204,426.954285 
	C95.912140,427.645813 103.775475,428.898529 111.644463,428.935120 
	C153.439560,429.129425 195.236084,429.018616 237.496658,428.991943 
z"/>
<path fill="#CADBB8" opacity="1.000000" stroke="none" 
	d="
M180.000000,252.961517 
	C182.445175,252.961517 184.890350,252.961517 188.012436,252.961517 
	C188.012436,263.593018 188.391281,273.653259 187.828995,283.660583 
	C187.598877,287.755951 183.277298,285.184479 180.238892,285.816223 
	C179.319611,285.539551 179.117081,285.301483 178.977966,284.544189 
	C179.026932,273.739410 179.070099,263.404877 179.336258,253.053726 
	C179.559235,253.037094 180.000000,252.961517 180.000000,252.961517 
z"/>
<path fill="#C9C9C9" opacity="1.000000" stroke="none" 
	d="
M532.338562,142.286530 
	C532.793335,141.597137 533.172424,141.380295 533.761230,141.082031 
	C533.976074,231.671967 533.981140,322.343292 533.736267,413.505188 
	C533.486328,413.995728 532.989807,414.006195 532.989807,414.006195 
	C532.988647,329.225677 533.001282,244.445145 532.955383,159.664627 
	C532.952332,154.029327 532.504089,148.394257 532.338562,142.286530 
z"/>
<path fill="#C9DAB7" opacity="1.000000" stroke="none" 
	d="
M435.729980,277.321533 
	C432.704926,275.641663 429.679901,273.961823 426.328949,272.131714 
	C426.003052,265.943054 426.003052,259.904602 426.003052,253.048767 
	C429.287476,253.048767 432.155304,253.048767 435.486389,253.042496 
	C435.949646,253.036224 435.926849,253.049255 435.941895,253.513184 
	C435.881287,261.758606 435.805634,269.540070 435.729980,277.321533 
z"/>
<path fill="#EFB9B8" opacity="1.000000" stroke="none" 
	d="
M407.097656,285.439209 
	C409.565735,284.799255 412.079071,284.206482 414.498962,284.470459 
	C416.616211,284.701385 419.072754,285.445953 420.498291,286.855042 
	C421.203979,287.552551 420.318085,290.473145 419.470734,292.012848 
	C417.040009,296.429596 418.728424,299.221344 422.795166,301.684174 
	C421.020905,301.892670 419.010345,301.861786 416.354919,301.566223 
	C414.481110,300.513947 413.252167,299.726379 412.023193,298.938782 
	C408.710114,295.208069 406.703217,290.985931 407.097656,285.439209 
z"/>
<path fill="#DFDFDF" opacity="1.000000" stroke="none" 
	d="
M439.608459,431.032959 
	C439.082855,430.574005 439.016205,430.116302 439.025146,429.318359 
	C464.869965,428.994293 490.640137,429.116119 516.407349,428.895233 
	C519.699951,428.867004 522.977234,427.052246 526.626038,426.350922 
	C526.627380,427.408234 526.264343,428.179718 525.901367,428.951202 
	C521.377258,429.644379 516.857849,430.899109 512.328247,430.936859 
	C488.242737,431.137482 464.154633,431.033020 439.608459,431.032959 
z"/>
<path fill="#333243" opacity="1.000000" stroke="none" 
	d="
M420.965332,464.406525 
	C422.190491,466.385498 423.415619,468.364502 424.804810,470.670593 
	C418.580902,472.889343 412.192902,474.781006 405.762024,476.685364 
	C404.563171,470.489532 406.290405,468.325989 414.157349,466.224274 
	C416.894379,465.543610 418.929840,464.975067 420.965332,464.406525 
z"/>
<path fill="#CADBB8" opacity="1.000000" stroke="none" 
	d="
M435.994995,249.985306 
	C432.894073,249.985306 429.793152,249.985306 426.791595,249.985306 
	C425.509125,242.804276 429.694885,232.964386 436.012848,229.020096 
	C436.012848,235.356430 436.012848,241.210739 436.011047,247.862076 
	C436.004517,249.101166 435.999756,249.543243 435.994995,249.985306 
z"/>
<path fill="#CADBB8" opacity="1.000000" stroke="none" 
	d="
M179.006256,229.019165 
	C179.488678,229.279755 179.971100,229.540344 180.844193,230.189438 
	C182.126160,231.455704 183.017456,232.333450 183.908768,233.211197 
	C185.913483,238.676239 189.484604,243.799164 187.392395,250.903717 
	C185.372482,250.903717 183.134460,250.903717 180.237656,250.814697 
	C179.320145,250.533173 179.116074,250.294037 178.972992,249.539276 
	C178.988312,242.386566 178.997284,235.702866 179.006256,229.019165 
z"/>
<path fill="#333243" opacity="1.000000" stroke="none" 
	d="
M436.021362,477.721436 
	C436.446686,479.916931 436.872009,482.112427 437.395905,484.816681 
	C430.271515,484.816681 423.751587,484.816681 417.210693,484.816681 
	C418.208618,479.230835 419.914307,478.050690 428.024231,477.897675 
	C431.260803,477.863098 433.641083,477.792267 436.021362,477.721436 
z"/>
<path fill="#EFB9B8" opacity="1.000000" stroke="none" 
	d="
M436.011963,477.315063 
	C433.641083,477.792267 431.260803,477.863098 428.449463,477.833313 
	C427.794525,475.862061 427.570648,473.991486 427.173645,471.817719 
	C429.703430,471.383636 432.406250,471.252686 435.555908,471.164673 
	C436.002655,473.107971 436.002625,475.008331 436.011963,477.315063 
z"/>
<path fill="#EFB9B8" opacity="1.000000" stroke="none" 
	d="
M420.960449,463.920105 
	C418.929840,464.975067 416.894379,465.543610 414.498047,466.062805 
	C414.084106,464.319489 414.031006,462.625458 413.970459,460.507111 
	C415.990662,459.047150 418.018341,458.011536 420.360779,456.838623 
	C420.768829,458.945404 420.862183,461.189545 420.960449,463.920105 
z"/>
<path fill="#DFDFDF" opacity="1.000000" stroke="none" 
	d="
M398.623047,428.917053 
	C398.792938,429.423431 398.962860,429.929810 399.105957,430.706818 
	C391.678162,430.984955 384.277222,430.992401 376.401031,430.957855 
	C376.086578,430.391815 376.247314,429.867767 377.110046,429.182465 
	C384.749054,428.986481 391.686035,428.951752 398.623047,428.917053 
z"/>
<path fill="#F2F2F3" opacity="1.000000" stroke="none" 
	d="
M178.857422,228.777527 
	C178.997284,235.702866 178.988312,242.386566 178.649567,249.540787 
	C177.889450,250.042633 177.459122,250.073944 177.028778,250.105255 
	C177.028778,250.105270 177.002274,250.057281 177.002136,250.029892 
	C177.017120,242.969070 177.032227,235.935654 177.102173,228.432404 
	C177.674210,228.153671 178.191406,228.344772 178.857422,228.777527 
z"/>
<path fill="#FFFFFF" opacity="1.000000" stroke="none" 
	d="
M287.812012,196.942001 
	C282.649506,199.632706 277.151550,202.174484 271.327209,204.835358 
	C271.796051,203.667328 272.312958,201.647980 273.435303,201.221298 
	C278.015015,199.480301 282.779907,198.226395 287.812012,196.942001 
z"/>
<path fill="#FFFFFF" opacity="1.000000" stroke="none" 
	d="
M247.588120,228.005814 
	C246.496323,230.881165 245.034805,233.761673 243.311829,236.862244 
	C241.687134,232.786469 243.063324,229.791351 247.588120,228.005814 
z"/>
<path fill="#FFFFFF" opacity="1.000000" stroke="none" 
	d="
M469.942993,225.789749 
	C467.064850,224.695312 464.208740,223.204269 461.106171,221.485535 
	C465.449951,219.968201 468.512177,221.358963 469.942993,225.789749 
z"/>
<path fill="#C9C9C9" opacity="1.000000" stroke="none" 
	d="
M396.612000,485.988861 
	C395.543152,485.949432 394.894989,485.910126 394.246796,485.870819 
	C394.245544,485.702484 394.244293,485.534119 394.243042,485.365784 
	C401.106567,485.365784 407.970123,485.365784 414.833679,485.365784 
	C414.843231,485.573517 414.852783,485.781281 414.862335,485.989014 
	C408.919098,485.989014 402.975891,485.989014 396.612000,485.988861 
z"/>
<path fill="#FFFFFF" opacity="1.000000" stroke="none" 
	d="
M526.300842,428.967621 
	C526.264343,428.179718 526.627380,427.408234 526.997925,426.315216 
	C527.005493,425.993652 526.999207,426.000824 527.236267,425.917542 
	C527.651428,425.553406 527.829468,425.272552 528.007568,424.991699 
	C528.007568,424.991730 528.000000,425.000000 528.236267,424.917114 
	C528.650635,424.553650 528.828735,424.273041 529.006836,423.992432 
	C529.006836,423.992462 529.000000,424.000000 529.298035,424.001038 
	C530.067261,423.668030 530.538391,423.334015 531.009521,423.000000 
	C533.250061,427.642487 530.502075,428.692688 526.300842,428.967621 
z"/>
<path fill="#C9C9C9" opacity="1.000000" stroke="none" 
	d="
M444.921387,485.011078 
	C446.828033,485.011078 448.301544,485.011078 449.775085,485.011078 
	C449.781464,485.222107 449.787842,485.433136 449.794220,485.644165 
	C446.249573,485.644165 442.704895,485.644165 439.160217,485.644165 
	C439.137115,485.433136 439.113983,485.222107 439.090881,485.011078 
	C440.890015,485.011078 442.689148,485.011078 444.921387,485.011078 
z"/>
<path fill="#FFFFFF" opacity="1.000000" stroke="none" 
	d="
M178.972183,285.014404 
	C179.117081,285.301483 179.319611,285.539551 179.790421,285.834290 
	C180.002747,286.413849 180.004456,286.887726 180.012695,287.717407 
	C179.871964,288.373993 179.650909,288.603699 178.821899,288.872955 
	C177.868454,288.986481 177.449173,288.989471 177.029892,288.992493 
	C176.885361,288.703491 176.682648,288.463715 176.210312,288.166565 
	C175.999268,287.589111 175.999634,287.118225 176.000092,286.293732 
	C176.000198,285.940094 176.402939,285.894928 176.898270,285.843506 
	C177.919785,285.532837 178.445984,285.273621 178.972183,285.014404 
z"/>
<path fill="#FFFFFF" opacity="1.000000" stroke="none" 
	d="
M435.996216,250.371582 
	C435.999756,249.543243 436.004517,249.101166 436.045532,248.329269 
	C436.081787,247.999435 436.523926,247.999893 436.744690,247.999954 
	C437.432281,248.661789 437.899109,249.323563 438.683594,250.078156 
	C439.000824,250.857697 439.000427,251.544434 439.000000,252.574799 
	C438.587311,252.958862 438.174652,252.999298 437.147125,253.034897 
	C436.330444,253.036453 436.128632,253.042862 435.926849,253.049255 
	C435.926849,253.049255 435.949646,253.036224 435.939301,253.056976 
	C435.951782,252.304428 435.974609,251.531128 435.996216,250.371582 
z"/>
<path fill="#FFFFFF" opacity="1.000000" stroke="none" 
	d="
M412.019928,299.316498 
	C413.252167,299.726379 414.481110,300.513947 415.925293,301.523926 
	C413.188507,304.232117 412.457001,302.255707 412.019928,299.316498 
z"/>
<path fill="#FFFFFF" opacity="1.000000" stroke="none" 
	d="
M255.659836,217.019241 
	C254.929474,218.309982 253.789093,219.593109 252.375732,221.056427 
	C251.835373,218.847717 251.843491,216.664047 255.659836,217.019241 
z"/>
<path fill="#FFFFFF" opacity="1.000000" stroke="none" 
	d="
M262.888550,209.888336 
	C262.267365,211.058685 261.427002,211.934967 260.304688,212.935547 
	C260.515320,211.607117 258.693878,208.387177 262.888550,209.888336 
z"/>
<path fill="#FFFFFF" opacity="1.000000" stroke="none" 
	d="
M257.064362,117.432419 
	C257.799500,116.814453 258.591522,116.521431 259.693665,116.313812 
	C259.648407,117.191849 259.293060,117.984482 258.937714,118.777115 
	C258.332214,118.437195 257.726746,118.097275 257.064362,117.432419 
z"/>
<path fill="#FFFFFF" opacity="1.000000" stroke="none" 
	d="
M250.065506,118.441635 
	C250.799652,117.821465 251.591324,117.525215 252.693344,117.314072 
	C252.649734,118.191589 252.295761,118.984001 251.941803,119.776413 
	C251.335541,119.439461 250.729294,119.102516 250.065506,118.441635 
z"/>
<path fill="#FFFFFF" opacity="1.000000" stroke="none" 
	d="
M230.064392,121.432404 
	C230.799469,120.814461 231.591476,120.521431 232.693588,120.313812 
	C232.648361,121.191849 232.293045,121.984482 231.937714,122.777122 
	C231.332245,122.437195 230.726776,122.097267 230.064392,121.432404 
z"/>
<path fill="#FFFFFF" opacity="1.000000" stroke="none" 
	d="
M210.064392,124.432419 
	C210.799469,123.814468 211.591476,123.521446 212.693588,123.313828 
	C212.648376,124.191856 212.293045,124.984489 211.937714,125.777122 
	C211.332245,125.437195 210.726791,125.097275 210.064392,124.432419 
z"/>
<path fill="#FFFFFF" opacity="1.000000" stroke="none" 
	d="
M277.065582,114.441635 
	C277.799713,113.821457 278.591400,113.525215 279.693420,113.314079 
	C279.649780,114.191597 279.295807,114.984001 278.941833,115.776413 
	C278.335602,115.439461 277.729340,115.102516 277.065582,114.441635 
z"/>
<path fill="#FFFFFF" opacity="1.000000" stroke="none" 
	d="
M203.065506,125.441635 
	C203.799652,124.821442 204.591324,124.525200 205.693359,124.314072 
	C205.649750,125.191597 205.295776,125.984009 204.941803,126.776413 
	C204.335541,126.439468 203.729294,126.102524 203.065506,125.441635 
z"/>
<path fill="#FFFFFF" opacity="1.000000" stroke="none" 
	d="
M183.064331,128.431976 
	C183.799454,127.814133 184.591476,127.521271 185.693604,127.313805 
	C185.648300,128.191849 185.292908,128.984482 184.937531,129.777130 
	C184.332092,129.437073 183.726669,129.097031 183.064331,128.431976 
z"/>
<path fill="#FFFFFF" opacity="1.000000" stroke="none" 
	d="
M163.064392,131.432419 
	C163.799469,130.814468 164.591476,130.521439 165.693588,130.313812 
	C165.648376,131.191849 165.293060,131.984482 164.937744,132.777100 
	C164.332275,132.437180 163.726807,132.097260 163.064392,131.432419 
z"/>
<path fill="#FFFFFF" opacity="1.000000" stroke="none" 
	d="
M284.064362,113.432419 
	C284.799500,112.814461 285.591522,112.521439 286.693665,112.313812 
	C286.648407,113.191849 286.293060,113.984482 285.937714,114.777115 
	C285.332214,114.437195 284.726746,114.097282 284.064362,113.432419 
z"/>
<path fill="#FFFFFF" opacity="1.000000" stroke="none" 
	d="
M136.065521,135.441620 
	C136.799667,134.821442 137.591339,134.525208 138.693359,134.314087 
	C138.649750,135.191589 138.295792,135.983978 137.941818,136.776367 
	C137.335556,136.439438 136.729294,136.102493 136.065521,135.441620 
z"/>
<path fill="#FFFFFF" opacity="1.000000" stroke="none" 
	d="
M116.065552,138.441620 
	C116.799690,137.821457 117.591331,137.525223 118.693329,137.314087 
	C118.649719,138.191589 118.295769,138.983994 117.941811,139.776382 
	C117.335556,139.439438 116.729309,139.102493 116.065552,138.441620 
z"/>
<path fill="#FFFFFF" opacity="1.000000" stroke="none" 
	d="
M177.018051,250.474411 
	C177.459122,250.073944 177.889450,250.042633 178.643219,250.009796 
	C179.116074,250.294037 179.320145,250.533173 179.789978,250.832748 
	C180.000748,251.389557 180.000366,251.839310 180.000000,252.625275 
	C180.000000,252.961517 179.559235,253.037094 178.969833,253.031906 
	C177.893051,253.045029 177.405670,253.063339 176.918289,253.081635 
	C176.918289,253.081635 176.915344,253.045288 176.926819,253.057892 
	C176.961304,252.328201 176.984314,251.585876 177.018051,250.474411 
z"/>
<path fill="#FFFFFF" opacity="1.000000" stroke="none" 
	d="
M241.684769,240.048401 
	C241.694717,241.111267 241.372421,242.217163 240.951630,243.658020 
	C237.720901,242.270233 240.083710,241.250854 241.684769,240.048401 
z"/>
<path fill="#FFFFFF" opacity="1.000000" stroke="none" 
	d="
M96.064362,141.432419 
	C96.799438,140.814453 97.591446,140.521439 98.693558,140.313812 
	C98.648361,141.191849 98.293045,141.984482 97.937729,142.777115 
	C97.332253,142.437195 96.726768,142.097275 96.064362,141.432419 
z"/>
<path fill="#FFFFFF" opacity="1.000000" stroke="none" 
	d="
M532.735962,414.198822 
	C532.989807,414.006195 533.486328,413.995728 533.733154,413.970398 
	C533.837708,415.141052 533.695435,416.337036 533.276550,417.766510 
	C533.000000,418.000000 532.990662,417.991608 532.990662,417.991608 
	C532.821167,416.791565 532.651672,415.591492 532.735962,414.198822 
z"/>
<path fill="#FFFFFF" opacity="1.000000" stroke="none" 
	d="
M139.701202,235.029510 
	C139.601807,235.919144 139.166992,236.839462 138.481018,237.943756 
	C138.608490,237.105225 138.987122,236.082718 139.701202,235.029510 
z"/>
<path fill="#DFDFDF" opacity="1.000000" stroke="none" 
	d="
M85.086288,423.918396 
	C86.051666,424.708527 87.017044,425.498657 88.014313,426.621521 
	C88.046204,426.954254 88.004814,426.995209 87.983566,427.016113 
	C86.987877,426.263489 86.013428,425.489929 85.025375,424.351532 
	C85.011772,423.986694 85.086281,423.918396 85.086288,423.918396 
z"/>
<path fill="#FFFFFF" opacity="1.000000" stroke="none" 
	d="
M296.832581,194.951324 
	C296.021271,195.419983 294.880707,195.739441 293.368958,196.052383 
	C294.166260,195.631287 295.334808,195.216690 296.832581,194.951324 
z"/>
<path fill="#FFFFFF" opacity="1.000000" stroke="none" 
	d="
M82.417664,143.995361 
	C82.058067,143.544647 82.036354,143.088882 82.008881,142.289978 
	C82.752716,141.969498 83.502327,141.992172 84.622696,142.073639 
	C84.247498,142.751724 83.501526,143.371017 82.417664,143.995361 
z"/>
<path fill="#FFFFFF" opacity="1.000000" stroke="none" 
	d="
M510.043610,140.288620 
	C510.748383,139.971756 511.499237,139.990967 512.622009,140.063126 
	C512.025879,140.285629 511.057770,140.455170 510.043610,140.288620 
z"/>
<path fill="#FFFFFF" opacity="1.000000" stroke="none" 
	d="
M322.043579,112.288033 
	C322.748413,111.971298 323.499268,111.990707 324.622009,112.063103 
	C324.025818,112.285454 323.057678,112.454819 322.043579,112.288033 
z"/>
<path fill="#FFFFFF" opacity="1.000000" stroke="none" 
	d="
M329.043335,113.287415 
	C329.748444,112.974640 330.499359,112.997459 331.621643,113.077972 
	C331.025055,113.298103 330.057068,113.460548 329.043335,113.287415 
z"/>
<path fill="#FFFFFF" opacity="1.000000" stroke="none" 
	d="
M183.932892,232.818176 
	C183.017456,232.333450 182.126160,231.455704 181.099350,230.295639 
	C181.961563,230.817261 182.959290,231.621201 183.932892,232.818176 
z"/>
<path fill="#FFFFFF" opacity="1.000000" stroke="none" 
	d="
M349.043549,116.288780 
	C349.748566,115.971786 350.499512,115.990631 351.622040,116.066315 
	C351.025574,116.290321 350.057526,116.457474 349.043549,116.288780 
z"/>
<path fill="#FFFFFF" opacity="1.000000" stroke="none" 
	d="
M153.910339,220.913116 
	C153.318771,221.512466 152.527374,221.820923 151.408722,222.172562 
	C151.957825,221.684570 152.834167,221.153381 153.910339,220.913116 
z"/>
<path fill="#FFFFFF" opacity="1.000000" stroke="none" 
	d="
M356.043335,117.287407 
	C356.748444,116.974640 357.499359,116.997459 358.621643,117.077965 
	C358.025055,117.298096 357.057068,117.460541 356.043335,117.287407 
z"/>
<path fill="#FFFFFF" opacity="1.000000" stroke="none" 
	d="
M165.955933,220.705902 
	C165.251511,221.018539 164.500931,220.996185 163.378510,220.921753 
	C163.974365,220.703415 164.942093,220.537170 165.955933,220.705902 
z"/>
<path fill="#FFFFFF" opacity="1.000000" stroke="none" 
	d="
M376.043579,120.288033 
	C376.748413,119.971298 377.499268,119.990707 378.622009,120.063103 
	C378.025818,120.285446 377.057678,120.454819 376.043579,120.288033 
z"/>
<path fill="#FFFFFF" opacity="1.000000" stroke="none" 
	d="
M490.043549,137.287964 
	C490.748413,136.971252 491.499268,136.990692 492.622009,137.063126 
	C492.025787,137.285446 491.057678,137.454788 490.043549,137.287964 
z"/>
<path fill="#FFFFFF" opacity="1.000000" stroke="none" 
	d="
M383.043091,121.286850 
	C383.748627,120.977127 384.499695,121.002419 385.621552,121.090485 
	C385.024445,121.309464 384.056519,121.465668 383.043091,121.286850 
z"/>
<path fill="#FFFFFF" opacity="1.000000" stroke="none" 
	d="
M533.004761,418.004486 
	C532.846924,418.861664 532.684265,419.714355 532.521667,420.567078 
	C532.157776,420.439819 531.793884,420.312592 531.429993,420.185364 
	C531.729492,419.489685 532.028992,418.793976 532.659546,418.044952 
	C532.990662,417.991608 533.000000,418.000000 533.004761,418.004486 
z"/>
<path fill="#FFFFFF" opacity="1.000000" stroke="none" 
	d="
M423.955139,306.701080 
	C423.251465,307.021729 422.500977,307.006775 421.377747,306.948334 
	C421.972748,306.725037 422.940552,306.545258 423.955139,306.701080 
z"/>
<path fill="#FFFFFF" opacity="1.000000" stroke="none" 
	d="
M517.043091,141.286804 
	C517.748596,140.977081 518.499695,141.002411 519.621582,141.090485 
	C519.024475,141.309448 518.056519,141.465637 517.043091,141.286804 
z"/>
<path fill="#FFFFFF" opacity="1.000000" stroke="none" 
	d="
M470.043579,134.287933 
	C470.748413,133.971237 471.499268,133.990692 472.622009,134.063126 
	C472.025818,134.285431 471.057678,134.454773 470.043579,134.287933 
z"/>
<path fill="#FFFFFF" opacity="1.000000" stroke="none" 
	d="
M156.064056,132.454193 
	C156.754654,132.059387 157.502487,131.987137 158.626511,131.930420 
	C158.042236,132.222870 157.081772,132.499802 156.064056,132.454193 
z"/>
<path fill="#FFFFFF" opacity="1.000000" stroke="none" 
	d="
M450.043396,131.287537 
	C450.748413,130.973709 451.499298,130.995667 452.621826,131.073212 
	C452.025391,131.293625 451.057281,131.458466 450.043396,131.287537 
z"/>
<path fill="#FFFFFF" opacity="1.000000" stroke="none" 
	d="
M443.043518,130.288788 
	C443.748566,129.971786 444.499512,129.990631 445.622040,130.066345 
	C445.025543,130.290344 444.057526,130.457489 443.043518,130.288788 
z"/>
<path fill="#FFFFFF" opacity="1.000000" stroke="none" 
	d="
M89.063446,142.449265 
	C89.754478,142.055664 90.502441,141.985199 91.626564,141.930328 
	C91.041939,142.221420 90.081161,142.496902 89.063446,142.449265 
z"/>
<path fill="#FFFFFF" opacity="1.000000" stroke="none" 
	d="
M176.064056,129.454178 
	C176.754654,129.059387 177.502487,128.987137 178.626511,128.930420 
	C178.042236,129.222870 177.081772,129.499786 176.064056,129.454178 
z"/>
<path fill="#FFFFFF" opacity="1.000000" stroke="none" 
	d="
M430.042542,128.281219 
	C430.748444,127.972794 431.499573,128.000076 432.621521,128.090027 
	C432.024139,128.307434 431.055969,128.462173 430.042542,128.281219 
z"/>
<path fill="#FFFFFF" opacity="1.000000" stroke="none" 
	d="
M423.043549,127.288033 
	C423.748413,126.971298 424.499268,126.990715 425.622009,127.063110 
	C425.025787,127.285446 424.057678,127.454811 423.043549,127.288033 
z"/>
<path fill="#FFFFFF" opacity="1.000000" stroke="none" 
	d="
M223.064056,122.454178 
	C223.754654,122.059380 224.502487,121.987122 225.626511,121.930405 
	C225.042236,122.222870 224.081772,122.499802 223.064056,122.454178 
z"/>
<path fill="#FFFFFF" opacity="1.000000" stroke="none" 
	d="
M403.043579,124.288025 
	C403.748413,123.971283 404.499268,123.990700 405.622009,124.063110 
	C405.025818,124.285454 404.057678,124.454811 403.043579,124.288025 
z"/>
<path fill="#FFFFFF" opacity="1.000000" stroke="none" 
	d="
M396.042511,123.278587 
	C396.748169,122.964180 397.499268,122.986786 398.622009,123.066277 
	C398.025055,123.287315 397.056519,123.451454 396.042511,123.278587 
z"/>
<path fill="#FFFFFF" opacity="1.000000" stroke="none" 
	d="
M158.936234,220.547211 
	C158.245346,220.934814 157.497345,220.999878 156.373489,221.055756 
	C156.958130,220.772614 157.918625,220.498642 158.936234,220.547211 
z"/>
<path fill="#FFFFFF" opacity="1.000000" stroke="none" 
	d="
M350.985229,209.704865 
	C350.383514,209.590286 349.784210,209.134415 349.036743,208.436600 
	C349.588257,208.584290 350.287964,208.973923 350.985229,209.704865 
z"/>
<path fill="#DFDFDF" opacity="1.000000" stroke="none" 
	d="
M530.834717,422.773804 
	C530.538391,423.334015 530.067261,423.668030 529.294556,424.003967 
	C529.548645,423.519775 530.104248,423.033661 530.834717,422.773804 
z"/>
<path fill="#FFFFFF" opacity="1.000000" stroke="none" 
	d="
M83.002876,420.003174 
	C83.012703,419.561188 83.019348,419.115509 83.031723,418.335632 
	C83.502045,418.560791 83.966629,419.120148 83.955612,419.840027 
	C83.480011,420.000519 82.993065,419.993591 82.993065,419.993591 
	C82.993065,419.993591 82.999695,419.999512 83.002876,420.003174 
z"/>
<path fill="#DFDFDF" opacity="1.000000" stroke="none" 
	d="
M84.094391,421.911133 
	C84.406067,422.385651 84.717743,422.860168 85.057846,423.626526 
	C85.086281,423.918396 85.011772,423.986694 84.971848,424.019592 
	C84.604004,423.592102 84.276077,423.131683 83.972733,422.334808 
	C83.997330,421.998322 84.094383,421.911133 84.094391,421.911133 
z"/>
<path fill="#DFDFDF" opacity="1.000000" stroke="none" 
	d="
M82.989098,420.298126 
	C82.993065,419.993591 83.480011,420.000519 83.723083,420.006592 
	C83.992371,420.435394 84.018585,420.858154 84.069595,421.596008 
	C84.094383,421.911133 83.997330,421.998322 83.945274,422.040710 
	C83.590523,421.589600 83.287827,421.096130 82.989098,420.298126 
z"/>
<path fill="#DFDFDF" opacity="1.000000" stroke="none" 
	d="
M527.774353,425.088013 
	C527.829468,425.272552 527.651428,425.553406 527.232666,425.920715 
	C527.175110,425.732880 527.358154,425.458588 527.774353,425.088013 
z"/>
<path fill="#DFDFDF" opacity="1.000000" stroke="none" 
	d="
M528.773926,424.088928 
	C528.828735,424.273041 528.650635,424.553650 528.232117,424.920929 
	C528.174805,424.733551 528.357849,424.459503 528.773926,424.088928 
z"/>
<path fill="#DFDFDF" opacity="1.000000" stroke="none" 
	d="
M318.229919,430.957581 
	C318.249268,430.827484 318.543427,430.715820 318.945038,430.761383 
	C318.869904,430.937744 318.687286,430.956848 318.229919,430.957581 
z"/>
<path fill="#FFFFFF" opacity="1.000000" stroke="none" 
	d="
M425.115204,302.303467 
	C425.171082,302.020966 425.329895,301.929291 425.757568,301.895935 
	C426.010773,302.125732 425.995087,302.297241 425.949219,302.725098 
	C425.634033,302.892944 425.400391,302.730530 425.115204,302.303467 
z"/>
<path fill="#FFFFFF" opacity="1.000000" stroke="none" 
	d="
M311.997314,276.892761 
	C317.446472,276.892700 322.396454,276.892700 327.651428,276.892700 
	C327.651428,290.756012 327.651428,303.990387 327.651428,317.611816 
	C314.228851,317.611816 301.000519,317.611816 286.950897,317.611816 
	C286.950897,313.802643 286.950867,310.045227 286.950897,306.287811 
	C286.950958,298.122894 287.173309,289.949371 286.857758,281.796661 
	C286.698853,277.691833 288.172699,276.659760 292.005341,276.819031 
	C298.492767,277.088684 304.999481,276.892944 311.997314,276.892761 
z"/>
<path fill="#FFFFFF" opacity="1.000000" stroke="none" 
	d="
M302.004395,358.997314 
	C296.883881,358.997314 292.262512,358.997314 287.002350,358.997314 
	C287.002350,347.006073 286.952240,335.573212 287.118469,324.143463 
	C287.129242,323.404907 288.800354,322.069031 289.710785,322.058868 
	C302.182129,321.919678 314.655518,321.965088 327.550018,321.965088 
	C327.550018,334.217499 327.550018,346.119171 327.550018,358.997314 
	C319.308624,358.997314 310.906097,358.997314 302.004395,358.997314 
z"/>
<path fill="#FFFFFF" opacity="1.000000" stroke="none" 
	d="
M301.049133,235.975281 
	C310.415924,233.878052 318.497040,236.408051 326.182617,240.728653 
	C327.015656,241.196945 327.870605,242.496399 327.882507,243.421021 
	C328.005951,253.016129 327.958466,262.613434 327.958466,272.943390 
	C322.377686,272.943390 317.289703,272.943604 312.201691,272.943329 
	C305.058411,272.942993 297.913818,272.864380 290.772491,272.981812 
	C288.083099,273.026031 286.859406,272.247772 286.906616,269.331573 
	C287.040924,261.027588 286.831451,252.716537 287.067963,244.417130 
	C287.110138,242.937103 288.293549,240.793823 289.549408,240.176880 
	C293.073761,238.445450 296.911316,237.351471 301.049133,235.975281 
z"/>
<path fill="#FFFFFF" opacity="1.000000" stroke="none" 
	d="
M398.535767,428.514465 
	C391.686035,428.951752 384.749054,428.986481 377.326904,429.007721 
	C376.847137,419.588928 376.852509,410.183624 376.828949,400.294220 
	C383.229584,399.771362 389.659119,399.732605 396.542358,399.820496 
	C397.310333,409.344208 394.510529,418.901825 398.535767,428.514465 
z"/>
<path fill="#FCFDFB" opacity="1.000000" stroke="none" 
	d="
M284.957458,299.999054 
	C284.957428,306.104095 284.957428,311.709473 284.957428,316.994446 
	C284.136963,317.484283 283.872223,317.770874 283.585297,317.795135 
	C272.041107,318.771027 272.040863,318.767975 272.040833,307.204163 
	C272.040833,297.099609 272.040833,286.995056 272.040833,277.198303 
	C272.738983,276.702301 272.987549,276.378204 273.268097,276.347656 
	C284.957184,275.075226 284.957520,275.078491 284.957520,286.543610 
	C284.957520,290.862213 284.957520,295.180786 284.957458,299.999054 
z"/>
<path fill="#FFFFFF" opacity="1.000000" stroke="none" 
	d="
M329.978333,313.788940 
	C329.977753,302.688019 330.088318,292.059448 329.913574,281.435608 
	C329.858093,278.063080 330.751404,276.765167 334.349243,276.808655 
	C342.072510,276.902130 342.075134,276.709869 342.075439,284.572357 
	C342.075775,293.206573 342.075867,301.840820 342.075409,310.475037 
	C342.075012,318.409363 342.078186,318.292999 333.672089,318.035095 
	C330.882324,317.949493 329.644043,317.060547 329.978333,313.788940 
z"/>
<path fill="#FCFDFB" opacity="1.000000" stroke="none" 
	d="
M284.957458,340.000427 
	C284.957428,346.444611 284.957428,352.389191 284.957428,358.205780 
	C276.811066,360.011322 272.108643,356.399902 272.055511,348.714722 
	C271.995911,340.092133 272.041809,331.468872 272.041809,321.983063 
	C275.807373,321.983063 279.238342,321.734833 282.588440,322.145935 
	C283.501923,322.258057 284.775665,324.318665 284.846527,325.544983 
	C285.114624,330.183594 284.956268,334.846863 284.957458,340.000427 
z"/>
<path fill="#FFFFFF" opacity="1.000000" stroke="none" 
	d="
M342.075684,333.021210 
	C342.075043,338.839050 342.122375,344.160278 342.061432,349.480255 
	C341.984070,356.230560 337.356201,359.753174 330.252686,358.285431 
	C330.252686,346.453857 330.252686,334.565033 330.252686,322.816772 
	C330.757233,322.490082 331.014099,322.187195 331.297516,322.159973 
	C342.074921,321.123260 342.075256,321.126617 342.075684,333.021210 
z"/>
<path fill="#FCFDFB" opacity="1.000000" stroke="none" 
	d="
M284.957458,256.040436 
	C284.957428,261.809021 284.957428,267.084351 284.957428,272.677795 
	C280.481415,272.677795 276.596863,272.677795 272.201447,272.677795 
	C272.114502,261.607178 276.272949,252.784836 284.957520,245.440857 
	C284.957520,248.809631 284.957520,252.178406 284.957458,256.040436 
z"/>
<path fill="#FCFDFB" opacity="1.000000" stroke="none" 
	d="
M337.431458,253.668747 
	C339.109344,258.850372 340.759247,263.674713 342.000183,268.602081 
	C342.750366,271.580719 341.527557,273.351746 338.027130,273.024261 
	C335.593353,272.796539 333.121063,272.980438 330.321289,272.980438 
	C330.321289,263.569550 330.321289,254.717621 330.321289,245.865692 
	C330.611511,245.673004 330.901764,245.480301 331.191986,245.287613 
	C333.205048,247.976700 335.218140,250.665787 337.431458,253.668747 
z"/>
<path fill="#090A08" opacity="1.000000" stroke="none" 
	d="
M357.005737,321.893127 
	C358.887512,317.655334 362.032654,316.149811 365.997345,317.270050 
	C369.509613,318.262451 371.445618,320.932861 371.202026,324.739532 
	C370.975739,328.275574 369.014709,330.549744 365.595215,331.418060 
	C360.236847,332.778656 356.414886,328.706970 357.005737,321.893127 
z"/>
<path fill="#F2F2F3" opacity="1.000000" stroke="none" 
	d="
M177.023392,289.461792 
	C177.449173,288.989471 177.868454,288.986481 178.601013,288.973633 
	C178.850723,296.268616 178.791901,303.573578 178.693039,310.877960 
	C178.690826,311.041595 178.233429,311.199066 177.016891,311.994934 
	C177.016891,304.243561 177.016891,297.087341 177.023392,289.461792 
z"/>
<path fill="#FCFDFB" opacity="1.000000" stroke="none" 
	d="
M401.610229,359.812744 
	C403.814819,359.359314 405.605957,358.982605 407.404694,358.646759 
	C408.054901,358.525360 408.728943,358.409454 409.382568,358.448822 
	C413.513123,358.697693 415.085693,361.777344 416.067200,370.855133 
	C416.481476,374.686554 414.984406,376.983734 411.262726,377.739227 
	C404.414856,379.129364 397.547180,380.421509 390.692841,381.780304 
	C386.401672,382.630981 384.112305,380.766937 383.145111,376.625580 
	C380.332306,364.581696 380.693909,363.951691 392.858704,361.481476 
	C395.631409,360.918488 398.419037,360.428986 401.610229,359.812744 
M402.625977,372.312775 
	C403.441498,371.932404 404.257050,371.552002 405.221283,371.102295 
	C404.050812,370.041901 403.196320,369.267761 402.176208,368.343597 
	C404.641693,367.565399 406.693451,366.917816 408.745239,366.270203 
	C408.568298,365.617188 408.391357,364.964203 408.214447,364.311218 
	C401.854553,365.621490 395.494690,366.931763 389.134827,368.242065 
	C389.221832,368.834961 389.308807,369.427887 389.395813,370.020813 
	C391.714172,370.020813 394.032501,370.020813 396.683533,370.020813 
	C395.588409,371.235168 394.874359,372.026917 393.110474,373.982819 
	C397.057739,373.321625 399.461273,372.919037 402.625977,372.312775 
z"/>
<path fill="#EFB9B8" opacity="1.000000" stroke="none" 
	d="
M419.106750,353.217102 
	C419.805084,348.891632 421.642731,346.251343 426.682068,347.601135 
	C429.114441,347.997833 431.024750,347.729248 431.875916,350.895416 
	C433.111450,355.491241 428.968781,355.175995 427.161713,357.377533 
	C423.262939,358.352356 420.597717,357.201080 419.106750,353.217102 
z"/>
<path fill="#C9DAB7" opacity="1.000000" stroke="none" 
	d="
M437.002533,295.199493 
	C437.002228,294.712646 437.211975,294.358154 437.401550,294.287445 
	C437.591156,298.802368 437.591156,303.388000 437.591156,307.973633 
	C437.395050,307.978485 437.198944,307.983368 437.002838,307.988220 
	C437.002838,303.887604 437.002838,299.786957 437.002533,295.199493 
z"/>
<path fill="#F2F2F3" opacity="1.000000" stroke="none" 
	d="
M176.943222,253.542160 
	C177.405670,253.063339 177.893051,253.045029 178.746857,253.048538 
	C179.070099,263.404877 179.026932,273.739410 178.977966,284.544189 
	C178.445984,285.273621 177.919785,285.532837 177.100891,285.846375 
	C176.861496,275.268005 176.914825,264.635345 176.943222,253.542160 
z"/>
<path fill="#FFFFFF" opacity="1.000000" stroke="none" 
	d="
M435.941895,253.513184 
	C436.128632,253.042862 436.330444,253.036453 436.836090,253.041840 
	C436.991516,261.178406 436.843109,269.303192 436.382111,277.708557 
	C436.069519,277.989136 435.832153,277.689575 435.781067,277.505554 
	C435.805634,269.540070 435.881287,261.758606 435.941895,253.513184 
z"/>
<path fill="#F2F2F3" opacity="1.000000" stroke="none" 
	d="
M397.052673,313.156128 
	C398.523865,312.294800 399.813904,311.724121 401.103973,311.153442 
	C400.743011,312.423798 400.640991,313.857056 399.965973,314.929779 
	C398.650787,317.019867 397.215424,319.124115 395.425232,320.786865 
	C394.554688,321.595459 392.345612,322.087555 391.498810,321.544189 
	C390.086182,320.637787 389.281250,318.784332 388.220459,317.329620 
	C389.814240,317.329620 391.408020,317.329620 393.751068,317.329620 
	C394.419861,316.497406 395.645721,314.972076 397.052673,313.156128 
z"/>
<path fill="#77A04B" opacity="1.000000" stroke="none" 
	d="
M402.245361,372.414612 
	C399.461273,372.919037 397.057739,373.321625 393.110474,373.982819 
	C394.874359,372.026917 395.588409,371.235168 396.683533,370.020813 
	C394.032501,370.020813 391.714172,370.020813 389.395813,370.020813 
	C389.308807,369.427887 389.221832,368.834961 389.134827,368.242065 
	C395.494690,366.931763 401.854553,365.621490 408.214447,364.311218 
	C408.391357,364.964203 408.568298,365.617188 408.745239,366.270203 
	C406.693451,366.917816 404.641693,367.565399 402.176208,368.343597 
	C403.196320,369.267761 404.050812,370.041901 405.221283,371.102295 
	C404.257050,371.552002 403.441498,371.932404 402.245361,372.414612 
z"/>
</svg>